UbuntuSans-Thin.ufo
<glyph name="numbersign" format="2">
  <advance width="637"/>
  <unicode hex="0023"/>
  <outline>
    <contour>
      <point x="110" y="0" type="line"/>
      <point x="146" y="0" type="line"/>
      <point x="183" y="195" type="line"/>
      <point x="393" y="195" type="line"/>
      <point x="356" y="0" type="line"/>
      <point x="392" y="0" type="line"/>
      <point x="429" y="195" type="line"/>
      <point x="593" y="195" type="line"/>
      <point x="593" y="227" type="line"/>
      <point x="435" y="227" type="line"/>
      <point x="481" y="465" type="line"/>
      <point x="593" y="465" type="line"/>
      <point x="593" y="497" type="line"/>
      <point x="487" y="497" type="line"/>
      <point x="525" y="693" type="line"/>
      <point x="489" y="693" type="line"/>
      <point x="451" y="497" type="line"/>
      <point x="241" y="497" type="line"/>
      <point x="279" y="693" type="line"/>
      <point x="243" y="693" type="line"/>
      <point x="205" y="497" type="line"/>
      <point x="44" y="497" type="line"/>
      <point x="44" y="465" type="line"/>
      <point x="199" y="465" type="line"/>
      <point x="153" y="227" type="line"/>
      <point x="44" y="227" type="line"/>
      <point x="44" y="195" type="line"/>
      <point x="147" y="195" type="line"/>
    </contour>
    <contour>
      <point x="189" y="227" type="line"/>
      <point x="235" y="465" type="line"/>
      <point x="445" y="465" type="line"/>
      <point x="399" y="227" type="line"/>
    </contour>
  </outline>
</glyph>
<glyph name="quotesingle" format="2">
  <advance width="176"/>
  <unicode hex="0027"/>
  <outline>
    <contour>
      <point x="80" y="536" type="curve"/>
      <point x="96" y="536" type="line"/>
      <point x="105" y="612"/>
      <point x="106" y="652"/>
      <point x="106" y="735" type="curve" smooth="yes"/>
      <point x="106" y="760" type="line"/>
      <point x="70" y="760" type="line"/>
      <point x="70" y="736" type="line" smooth="yes"/>
      <point x="70" y="667"/>
      <point x="70" y="618"/>
    </contour>
  </outline>
</glyph>
<glyph name="parenright" format="2">
  <advance width="294"/>
  <unicode hex="0029"/>
  <outline>
    <contour>
      <point x="37" y="-185" type="line"/>
      <point x="153" y="-26"/>
      <point x="207" y="127"/>
      <point x="207" y="299" type="curve" smooth="yes"/>
      <point x="207" y="471"/>
      <point x="153" y="624"/>
      <point x="37" y="783" type="curve"/>
      <point x="11" y="764" type="line"/>
      <point x="125" y="600"/>
      <point x="169" y="465"/>
      <point x="169" y="299" type="curve" smooth="yes"/>
      <point x="169" y="133"/>
      <point x="125" y="-2"/>
      <point x="11" y="-166" type="curve"/>
    </contour>
  </outline>
</glyph>
<glyph name="plus" format="2">
  <advance width="564"/>
  <unicode hex="002B"/>
  <outline>
    <contour>
      <point x="264" y="44" type="line"/>
      <point x="300" y="44" type="line"/>
      <point x="300" y="273" type="line"/>
      <point x="505" y="273" type="line"/>
      <point x="505" y="305" type="line"/>
      <point x="300" y="305" type="line"/>
      <point x="300" y="534" type="line"/>
      <point x="264" y="534" type="line"/>
      <point x="264" y="305" type="line"/>
      <point x="59" y="305" type="line"/>
      <point x="59" y="273" type="line"/>
      <point x="264" y="273" type="line"/>
    </contour>
  </outline>
</glyph>
<glyph name="period" format="2">
  <advance width="224"/>
  <unicode hex="002E"/>
  <outline>
    <contour>
      <point x="112" y="-7" type="curve" smooth="yes"/>
      <point x="133" y="-7"/>
      <point x="147" y="9"/>
      <point x="147" y="29" type="curve" smooth="yes"/>
      <point x="147" y="50"/>
      <point x="133" y="65"/>
      <point x="112" y="65" type="curve" smooth="yes"/>
      <point x="91" y="65"/>
      <point x="77" y="50"/>
      <point x="77" y="29" type="curve" smooth="yes"/>
      <point x="77" y="9"/>
      <point x="91" y="-7"/>
    </contour>
  </outline>
</glyph>
<glyph name="one" format="2">
  <advance width="564"/>
  <unicode hex="0031"/>
  <outline>
    <contour>
      <point x="301" y="0" type="line"/>
      <point x="335" y="0" type="line"/>
      <point x="335" y="693" type="line"/>
      <point x="311" y="693" type="line"/>
      <point x="260" y="621"/>
      <point x="195" y="578"/>
      <point x="119" y="550" type="curve"/>
      <point x="130" y="522" type="line"/>
      <point x="205" y="549"/>
      <point x="266" y="588"/>
      <point x="301" y="631" type="curve"/>
    </contour>
  </outline>
</glyph>
<glyph name="two" format="2">
  <advance width="564"/>
  <unicode hex="0032"/>
  <outline>
    <contour>
      <point x="92" y="0" type="curve"/>
      <point x="469" y="0" type="line"/>
      <point x="469" y="32" type="line"/>
      <point x="126" y="32" type="line"/>
      <point x="126" y="129"/>
      <point x="212" y="206"/>
      <point x="290" y="277" type="curve" smooth="yes"/>
      <point x="404" y="380"/>
      <point x="443" y="442"/>
      <point x="443" y="525" type="curve" smooth="yes"/>
      <point x="443" y="640"/>
      <point x="373" y="706"/>
      <point x="252" y="706" type="curve" smooth="yes"/>
      <point x="191" y="706"/>
      <point x="117" y="676"/>
      <point x="77" y="630" type="curve"/>
      <point x="97" y="605" type="line"/>
      <point x="140" y="648"/>
      <point x="196" y="674"/>
      <point x="255" y="674" type="curve" smooth="yes"/>
      <point x="355" y="674"/>
      <point x="407" y="622"/>
      <point x="407" y="522" type="curve" smooth="yes"/>
      <point x="407" y="451"/>
      <point x="375" y="399"/>
      <point x="268" y="303" type="curve" smooth="yes"/>
      <point x="179" y="224"/>
      <point x="91" y="145"/>
      <point x="91" y="24" type="curve" smooth="yes"/>
      <point x="91" y="17"/>
      <point x="91" y="12"/>
    </contour>
  </outline>
</glyph>
<glyph name="seven" format="2">
  <advance width="564"/>
  <unicode hex="0037"/>
  <outline>
    <contour>
      <point x="188" y="0" type="curve"/>
      <point x="226" y="0" type="line"/>
      <point x="240" y="229"/>
      <point x="363" y="517"/>
      <point x="477" y="661" type="curve"/>
      <point x="477" y="693" type="line"/>
      <point x="78" y="693" type="line"/>
      <point x="78" y="659" type="line"/>
      <point x="437" y="659" type="line"/>
      <point x="330" y="530"/>
      <point x="201" y="221"/>
    </contour>
  </outline>
</glyph>
<glyph name="nine" format="2">
  <advance width="564"/>
  <unicode hex="0039"/>
  <outline>
    <contour>
      <point x="102" y="-2" type="line"/>
      <point x="334" y="1"/>
      <point x="474" y="139"/>
      <point x="474" y="420" type="curve" smooth="yes"/>
      <point x="474" y="611"/>
      <point x="405" y="706"/>
      <point x="268" y="706" type="curve" smooth="yes"/>
      <point x="148" y="706"/>
      <point x="76" y="626"/>
      <point x="76" y="493" type="curve" smooth="yes"/>
      <point x="76" y="360"/>
      <point x="146" y="283"/>
      <point x="267" y="283" type="curve" smooth="yes"/>
      <point x="323" y="283"/>
      <point x="388" y="301"/>
      <point x="433" y="329" type="curve"/>
      <point x="414" y="142"/>
      <point x="302" y="33"/>
      <point x="101" y="28" type="curve"/>
    </contour>
    <contour>
      <point x="269" y="315" type="curve" smooth="yes"/>
      <point x="168" y="315"/>
      <point x="112" y="379"/>
      <point x="112" y="495" type="curve" smooth="yes"/>
      <point x="112" y="611"/>
      <point x="168" y="674"/>
      <point x="269" y="674" type="curve" smooth="yes"/>
      <point x="382" y="674"/>
      <point x="438" y="590"/>
      <point x="438" y="422" type="curve" smooth="yes"/>
      <point x="438" y="399"/>
      <point x="437" y="380"/>
      <point x="436" y="365" type="curve"/>
      <point x="373" y="329"/>
      <point x="326" y="315"/>
    </contour>
  </outline>
</glyph>
<glyph name="less" format="2">
  <advance width="564"/>
  <unicode hex="003C"/>
  <outline>
    <contour>
      <point x="492" y="83" type="line"/>
      <point x="505" y="114" type="line"/>
      <point x="104" y="285" type="line"/>
      <point x="505" y="456" type="line"/>
      <point x="492" y="487" type="line"/>
      <point x="58" y="302" type="line"/>
      <point x="58" y="269" type="line"/>
    </contour>
  </outline>
</glyph>
<glyph name="at" format="2">
  <advance width="930"/>
  <unicode hex="0040"/>
  <outline>
    <contour>
      <point x="492" y="-147" type="curve" smooth="yes"/>
      <point x="551" y="-147"/>
      <point x="600" y="-142"/>
      <point x="631" y="-131" type="curve"/>
      <point x="627" y="-101" type="line"/>
      <point x="600" y="-110"/>
      <point x="552" y="-115"/>
      <point x="492" y="-115" type="curve" smooth="yes"/>
      <point x="261" y="-115"/>
      <point x="116" y="37"/>
      <point x="116" y="282" type="curve" smooth="yes"/>
      <point x="116" y="533"/>
      <point x="258" y="670"/>
      <point x="471" y="670" type="curve" smooth="yes"/>
      <point x="692" y="670"/>
      <point x="814" y="536"/>
      <point x="814" y="316" type="curve" smooth="yes"/>
      <point x="814" y="184"/>
      <point x="766" y="102"/>
      <point x="685" y="102" type="curve" smooth="yes"/>
      <point x="645" y="102"/>
      <point x="625" y="128"/>
      <point x="625" y="181" type="curve" smooth="yes"/>
      <point x="625" y="474" type="line"/>
      <point x="594" y="489"/>
      <point x="549" y="497"/>
      <point x="498" y="497" type="curve" smooth="yes"/>
      <point x="372" y="497"/>
      <point x="288" y="411"/>
      <point x="288" y="280" type="curve" smooth="yes"/>
      <point x="288" y="148"/>
      <point x="360" y="68"/>
      <point x="477" y="68" type="curve" smooth="yes"/>
      <point x="530" y="68"/>
      <point x="575" y="82"/>
      <point x="612" y="109" type="curve"/>
      <point x="628" y="86"/>
      <point x="652" y="74"/>
      <point x="684" y="74" type="curve" smooth="yes"/>
      <point x="788" y="74"/>
      <point x="850" y="173"/>
      <point x="850" y="319" type="curve" smooth="yes"/>
      <point x="850" y="547"/>
      <point x="710" y="702"/>
      <point x="470" y="702" type="curve" smooth="yes"/>
      <point x="238" y="702"/>
      <point x="80" y="542"/>
      <point x="80" y="282" type="curve" smooth="yes"/>
      <point x="80" y="22"/>
      <point x="240" y="-147"/>
    </contour>
    <contour>
      <point x="490" y="96" type="curve" smooth="yes"/>
      <point x="382" y="96"/>
      <point x="322" y="163"/>
      <point x="322" y="283" type="curve" smooth="yes"/>
      <point x="322" y="392"/>
      <point x="389" y="469"/>
      <point x="499" y="469" type="curve" smooth="yes"/>
      <point x="534" y="469"/>
      <point x="566" y="465"/>
      <point x="593" y="457" type="curve"/>
      <point x="593" y="182" type="line" smooth="yes"/>
      <point x="593" y="165"/>
      <point x="596" y="148"/>
      <point x="601" y="132" type="curve"/>
      <point x="566" y="108"/>
      <point x="529" y="96"/>
    </contour>
  </outline>
</glyph>
<glyph name="A" format="2">
  <advance width="617"/>
  <unicode hex="0041"/>
  <anchor x="309" y="0" name="bottom"/>
  <anchor x="555" y="10" name="ogonek"/>
  <anchor x="309" y="669" name="top"/>
  <outline>
    <contour>
      <point x="14" y="0" type="curve"/>
      <point x="52" y="0" type="line"/>
      <point x="77" y="68"/>
      <point x="102" y="136"/>
      <point x="127" y="204" type="curve"/>
      <point x="487" y="204" type="line"/>
      <point x="512" y="136"/>
      <point x="538" y="68"/>
      <point x="563" y="0" type="curve"/>
      <point x="603" y="0" type="line"/>
      <point x="491" y="305"/>
      <point x="425" y="469"/>
      <point x="321" y="693" type="curve"/>
      <point x="293" y="693" type="line"/>
      <point x="187" y="458"/>
      <point x="103" y="242"/>
    </contour>
    <contour>
      <point x="140" y="238" type="line"/>
      <point x="201" y="402"/>
      <point x="235" y="479"/>
      <point x="306" y="649" type="curve"/>
      <point x="379" y="479"/>
      <point x="411" y="405"/>
      <point x="475" y="238" type="curve"/>
    </contour>
  </outline>
</glyph>
<glyph name="E" format="2">
  <advance width="538"/>
  <unicode hex="0045"/>
  <anchor x="269" y="0" name="bottom"/>
  <anchor x="484" y="10" name="ogonek"/>
  <anchor x="294" y="669" name="top"/>
  <anchor x="20" y="693" name="topleft"/>
  <outline>
    <contour>
      <point x="94" y="0" type="line"/>
      <point x="494" y="0" type="line"/>
      <point x="494" y="34" type="line"/>
      <point x="131" y="34" type="line"/>
      <point x="131" y="347" type="line"/>
      <point x="432" y="347" type="line"/>
      <point x="432" y="381" type="line"/>
      <point x="131" y="381" type="line"/>
      <point x="131" y="659" type="line"/>
      <point x="471" y="659" type="line"/>
      <point x="471" y="693" type="line"/>
      <point x="94" y="693" type="line"/>
    </contour>
  </outline>
</glyph>
<glyph name="J" format="2">
  <advance width="468"/>
  <unicode hex="004A"/>
  <anchor x="234" y="0" name="bottom"/>
  <anchor x="361" y="669" name="top"/>
  <outline>
    <contour>
      <point x="179" y="-10" type="curve" smooth="yes"/>
      <point x="314" y="-10"/>
      <point x="377" y="64"/>
      <point x="377" y="217" type="curve" smooth="yes"/>
      <point x="377" y="693" type="line"/>
      <point x="340" y="693" type="line"/>
      <point x="340" y="218" type="line" smooth="yes"/>
      <point x="340" y="83"/>
      <point x="290" y="24"/>
      <point x="179" y="24" type="curve" smooth="yes"/>
      <point x="120" y="24"/>
      <point x="63" y="42"/>
      <point x="28" y="70" type="curve"/>
      <point x="9" y="40" type="line"/>
      <point x="46" y="9"/>
      <point x="114" y="-10"/>
    </contour>
  </outline>
</glyph>
<glyph name="K" format="2">
  <advance width="567"/>
  <unicode hex="004B"/>
  <anchor x="301" y="0" name="bottom"/>
  <anchor x="288" y="669" name="top"/>
  <outline>
    <contour>
      <point x="94" y="0" type="line"/>
      <point x="131" y="0" type="line"/>
      <point x="131" y="345" type="line"/>
      <point x="247" y="290"/>
      <point x="419" y="130"/>
      <point x="511" y="0" type="curve"/>
      <point x="551" y="0" type="line"/>
      <point x="458" y="148"/>
      <point x="294" y="289"/>
      <point x="175" y="361" type="curve"/>
      <point x="281" y="444"/>
      <point x="429" y="590"/>
      <point x="529" y="693" type="curve"/>
      <point x="485" y="693" type="line"/>
      <point x="405" y="607"/>
      <point x="245" y="456"/>
      <point x="131" y="366" type="curve"/>
      <point x="131" y="693" type="line"/>
      <point x="94" y="693" type="line"/>
    </contour>
  </outline>
</glyph>
<glyph name="M" format="2">
  <advance width="855"/>
  <unicode hex="004D"/>
  <anchor x="428" y="0" name="bottom"/>
  <anchor x="428" y="693" name="top"/>
  <outline>
    <contour>
      <point x="79" y="0" type="curve"/>
      <point x="117" y="0" type="line"/>
      <point x="125" y="244"/>
      <point x="138" y="453"/>
      <point x="155" y="632" type="curve"/>
      <point x="225" y="496"/>
      <point x="345" y="253"/>
      <point x="406" y="104" type="curve"/>
      <point x="446" y="104" type="line"/>
      <point x="531" y="290"/>
      <point x="622" y="483"/>
      <point x="700" y="628" type="curve"/>
      <point x="719" y="452"/>
      <point x="729" y="243"/>
      <point x="738" y="0" type="curve"/>
      <point x="776" y="0" type="line"/>
      <point x="765" y="263"/>
      <point x="752" y="498"/>
      <point x="729" y="693" type="curve"/>
      <point x="701" y="693" type="line"/>
      <point x="611" y="543"/>
      <point x="514" y="341"/>
      <point x="428" y="141" type="curve"/>
      <point x="358" y="298"/>
      <point x="248" y="537"/>
      <point x="156" y="693" type="curve"/>
      <point x="126" y="693" type="line"/>
      <point x="102" y="476"/>
      <point x="92" y="260"/>
    </contour>
  </outline>
</glyph>
<glyph name="N" format="2">
  <advance width="699"/>
  <unicode hex="004E"/>
  <anchor x="344" y="0" name="bottom"/>
  <anchor x="350" y="669" name="top"/>
  <outline>
    <contour>
      <point x="94" y="0" type="line"/>
      <point x="131" y="0" type="line"/>
      <point x="131" y="633" type="line"/>
      <point x="252" y="501"/>
      <point x="476" y="185"/>
      <point x="573" y="0" type="curve"/>
      <point x="605" y="0" type="line"/>
      <point x="605" y="693" type="line"/>
      <point x="568" y="693" type="line"/>
      <point x="568" y="76" type="line"/>
      <point x="488" y="234"/>
      <point x="273" y="526"/>
      <point x="124" y="693" type="curve"/>
      <point x="94" y="693" type="line"/>
    </contour>
  </outline>
</glyph>
<glyph name="O" format="2">
  <advance width="760"/>
  <unicode hex="004F"/>
  <anchor x="380" y="0" name="bottom"/>
  <anchor x="380" y="347" name="center"/>
  <anchor x="684" y="10" name="ogonek"/>
  <anchor x="380" y="669" name="top"/>
  <anchor x="20" y="693" name="topleft"/>
  <anchor x="740" y="693" name="topright"/>
  <outline>
    <contour>
      <point x="380" y="-10" type="curve" smooth="yes"/>
      <point x="566" y="-10"/>
      <point x="694" y="130"/>
      <point x="694" y="346" type="curve" smooth="yes"/>
      <point x="694" y="561"/>
      <point x="564" y="703"/>
      <point x="380" y="703" type="curve" smooth="yes"/>
      <point x="196" y="703"/>
      <point x="66" y="561"/>
      <point x="66" y="346" type="curve" smooth="yes"/>
      <point x="66" y="130"/>
      <point x="194" y="-10"/>
    </contour>
    <contour>
      <point x="380" y="24" type="curve" smooth="yes"/>
      <point x="220" y="24"/>
      <point x="104" y="146"/>
      <point x="104" y="346" type="curve" smooth="yes"/>
      <point x="104" y="545"/>
      <point x="220" y="669"/>
      <point x="380" y="669" type="curve" smooth="yes"/>
      <point x="540" y="669"/>
      <point x="656" y="545"/>
      <point x="656" y="346" type="curve" smooth="yes"/>
      <point x="656" y="146"/>
      <point x="540" y="24"/>
    </contour>
  </outline>
</glyph>
<glyph name="U" format="2">
  <advance width="664"/>
  <unicode hex="0055"/>
  <anchor x="332" y="0" name="bottom"/>
  <anchor x="598" y="10" name="ogonek"/>
  <anchor x="332" y="669" name="top"/>
  <anchor x="644" y="693" name="topright"/>
  <outline>
    <contour>
      <point x="334" y="-10" type="curve" smooth="yes"/>
      <point x="495" y="-10"/>
      <point x="573" y="83"/>
      <point x="573" y="259" type="curve" smooth="yes"/>
      <point x="573" y="693" type="line"/>
      <point x="536" y="693" type="line"/>
      <point x="536" y="266" type="line" smooth="yes"/>
      <point x="536" y="109"/>
      <point x="475" y="24"/>
      <point x="334" y="24" type="curve" smooth="yes"/>
      <point x="191" y="24"/>
      <point x="128" y="109"/>
      <point x="128" y="266" type="curve" smooth="yes"/>
      <point x="128" y="693" type="line"/>
      <point x="91" y="693" type="line"/>
      <point x="91" y="259" type="line" smooth="yes"/>
      <point x="91" y="80"/>
      <point x="170" y="-10"/>
    </contour>
  </outline>
</glyph>
<glyph name="V" format="2">
  <advance width="607"/>
  <unicode hex="0056"/>
  <anchor x="304" y="0" name="bottom"/>
  <anchor x="304" y="693" name="top"/>
  <outline>
    <contour>
      <point x="291" y="0" type="curve"/>
      <point x="319" y="0" type="line"/>
      <point x="415" y="189"/>
      <point x="491" y="385"/>
      <point x="593" y="693" type="curve"/>
      <point x="555" y="693" type="line"/>
      <point x="464" y="409"/>
      <point x="406" y="271"/>
      <point x="305" y="44" type="curve"/>
      <point x="207" y="259"/>
      <point x="140" y="424"/>
      <point x="54" y="693" type="curve"/>
      <point x="14" y="693" type="line"/>
      <point x="92" y="464"/>
      <point x="182" y="215"/>
    </contour>
  </outline>
</glyph>
<glyph name="X" format="2">
  <advance width="574"/>
  <unicode hex="0058"/>
  <anchor x="287" y="0" name="bottom"/>
  <anchor x="287" y="693" name="top"/>
  <outline>
    <contour>
      <point x="30" y="0" type="curve"/>
      <point x="70" y="0" type="line"/>
      <point x="119" y="92"/>
      <point x="195" y="209"/>
      <point x="286" y="336" type="curve"/>
      <point x="381" y="202"/>
      <point x="439" y="114"/>
      <point x="501" y="0" type="curve"/>
      <point x="541" y="0" type="line"/>
      <point x="462" y="141"/>
      <point x="400" y="229"/>
      <point x="308" y="362" type="curve"/>
      <point x="534" y="693" type="line"/>
      <point x="496" y="693" type="line"/>
      <point x="289" y="390" type="line"/>
      <point x="84" y="693" type="line"/>
      <point x="44" y="693" type="line"/>
      <point x="266" y="364" type="line"/>
      <point x="167" y="229"/>
      <point x="95" y="116"/>
    </contour>
  </outline>
</glyph>
<glyph name="b" format="2">
  <advance width="568"/>
  <unicode hex="0062"/>
  <anchor x="284" y="0" name="bottom"/>
  <anchor x="284" y="257" name="center"/>
  <anchor x="284" y="513" name="top"/>
  <outline>
    <contour>
      <point x="246" y="-7" type="curve" smooth="yes"/>
      <point x="421" y="-7"/>
      <point x="508" y="94"/>
      <point x="508" y="262" type="curve" smooth="yes"/>
      <point x="508" y="416"/>
      <point x="425" y="525"/>
      <point x="281" y="525" type="curve" smooth="yes"/>
      <point x="220" y="525"/>
      <point x="156" y="501"/>
      <point x="124" y="475" type="curve"/>
      <point x="124" y="776" type="line"/>
      <point x="90" y="768" type="line"/>
      <point x="90" y="17" type="line"/>
      <point x="128" y="4"/>
      <point x="200" y="-7"/>
    </contour>
    <contour>
      <point x="249" y="25" type="curve" smooth="yes"/>
      <point x="208" y="25"/>
      <point x="159" y="30"/>
      <point x="124" y="39" type="curve"/>
      <point x="124" y="440" type="line"/>
      <point x="155" y="467"/>
      <point x="215" y="493"/>
      <point x="282" y="493" type="curve" smooth="yes"/>
      <point x="404" y="493"/>
      <point x="472" y="398"/>
      <point x="472" y="262" type="curve" smooth="yes"/>
      <point x="472" y="114"/>
      <point x="398" y="25"/>
    </contour>
  </outline>
</glyph>
<glyph name="c" format="2">
  <advance width="450"/>
  <unicode hex="0063"/>
  <anchor x="255" y="0" name="bottom"/>
  <anchor x="272" y="513" name="top"/>
  <outline>
    <contour>
      <point x="294" y="-6" type="curve" smooth="yes"/>
      <point x="338" y="-6"/>
      <point x="396" y="9"/>
      <point x="423" y="26" type="curve"/>
      <point x="415" y="57" type="line"/>
      <point x="386" y="40"/>
      <point x="333" y="26"/>
      <point x="294" y="26" type="curve" smooth="yes"/>
      <point x="165" y="26"/>
      <point x="96" y="105"/>
      <point x="96" y="254" type="curve" smooth="yes"/>
      <point x="96" y="406"/>
      <point x="165" y="492"/>
      <point x="289" y="492" type="curve" smooth="yes"/>
      <point x="336" y="492"/>
      <point x="377" y="484"/>
      <point x="404" y="469" type="curve"/>
      <point x="414" y="500" type="line"/>
      <point x="383" y="516"/>
      <point x="345" y="524"/>
      <point x="289" y="524" type="curve" smooth="yes"/>
      <point x="148" y="524"/>
      <point x="60" y="423"/>
      <point x="60" y="254" type="curve" smooth="yes"/>
      <point x="60" y="87"/>
      <point x="145" y="-6"/>
    </contour>
  </outline>
</glyph>
<glyph name="d" format="2">
  <advance width="567"/>
  <unicode hex="0064"/>
  <anchor x="284" y="0" name="bottom"/>
  <anchor x="284" y="257" name="center"/>
  <anchor x="284" y="776" name="top"/>
  <anchor x="547" y="776" name="topright"/>
  <outline>
    <contour>
      <point x="303" y="-7" type="curve" smooth="yes"/>
      <point x="374" y="-7"/>
      <point x="432" y="2"/>
      <point x="477" y="20" type="curve"/>
      <point x="477" y="776" type="line"/>
      <point x="443" y="768" type="line"/>
      <point x="443" y="473" type="line"/>
      <point x="402" y="505"/>
      <point x="345" y="525"/>
      <point x="289" y="525" type="curve" smooth="yes"/>
      <point x="148" y="525"/>
      <point x="60" y="424"/>
      <point x="60" y="258" type="curve" smooth="yes"/>
      <point x="60" y="94"/>
      <point x="154" y="-7"/>
    </contour>
    <contour>
      <point x="315" y="25" type="curve" smooth="yes"/>
      <point x="167" y="25"/>
      <point x="96" y="114"/>
      <point x="96" y="258" type="curve" smooth="yes"/>
      <point x="96" y="407"/>
      <point x="166" y="493"/>
      <point x="290" y="493" type="curve" smooth="yes"/>
      <point x="350" y="493"/>
      <point x="402" y="472"/>
      <point x="443" y="437" type="curve"/>
      <point x="443" y="42" type="line"/>
      <point x="412" y="31"/>
      <point x="362" y="25"/>
    </contour>
  </outline>
</glyph>
<glyph name="k" format="2">
  <advance width="459"/>
  <unicode hex="006B"/>
  <anchor x="258" y="0" name="bottom"/>
  <anchor x="230" y="776" name="top"/>
  <outline>
    <contour>
      <point x="90" y="0" type="line"/>
      <point x="124" y="0" type="line"/>
      <point x="124" y="262" type="line"/>
      <point x="219" y="212"/>
      <point x="320" y="104"/>
      <point x="395" y="0" type="curve"/>
      <point x="437" y="0" type="line"/>
      <point x="369" y="103"/>
      <point x="252" y="227"/>
      <point x="165" y="277" type="curve"/>
      <point x="256" y="353"/>
      <point x="333" y="432"/>
      <point x="409" y="513" type="curve"/>
      <point x="365" y="513" type="line"/>
      <point x="287" y="428"/>
      <point x="240" y="380"/>
      <point x="124" y="279" type="curve"/>
      <point x="124" y="776" type="line"/>
      <point x="90" y="768" type="line"/>
    </contour>
  </outline>
</glyph>
<glyph name="o" format="2">
  <advance width="574"/>
  <unicode hex="006F"/>
  <anchor x="287" y="0" name="bottom"/>
  <anchor x="287" y="257" name="center"/>
  <anchor x="517" y="10" name="ogonek"/>
  <anchor x="287" y="513" name="top"/>
  <anchor x="554" y="513" name="topright"/>
  <outline>
    <contour>
      <point x="287" y="-7" type="curve" smooth="yes"/>
      <point x="422" y="-7"/>
      <point x="514" y="101"/>
      <point x="514" y="259" type="curve" smooth="yes"/>
      <point x="514" y="417"/>
      <point x="422" y="525"/>
      <point x="287" y="525" type="curve" smooth="yes"/>
      <point x="152" y="525"/>
      <point x="60" y="417"/>
      <point x="60" y="259" type="curve" smooth="yes"/>
      <point x="60" y="101"/>
      <point x="152" y="-7"/>
    </contour>
    <contour>
      <point x="287" y="25" type="curve" smooth="yes"/>
      <point x="170" y="25"/>
      <point x="96" y="118"/>
      <point x="96" y="259" type="curve" smooth="yes"/>
      <point x="96" y="400"/>
      <point x="170" y="493"/>
      <point x="287" y="493" type="curve" smooth="yes"/>
      <point x="402" y="493"/>
      <point x="478" y="401"/>
      <point x="478" y="259" type="curve" smooth="yes"/>
      <point x="478" y="117"/>
      <point x="402" y="25"/>
    </contour>
  </outline>
</glyph>
<glyph name="q" format="2">
  <advance width="568"/>
  <unicode hex="0071"/>
  <anchor x="284" y="0" name="bottom"/>
  <anchor x="284" y="513" name="top"/>
  <outline>
    <contour>
      <point x="444" y="-185" type="line"/>
      <point x="478" y="-185" type="line"/>
      <point x="478" y="496" type="line"/>
      <point x="438" y="511"/>
      <point x="375" y="523"/>
      <point x="315" y="523" type="curve" smooth="yes"/>
      <point x="144" y="523"/>
      <point x="60" y="423"/>
      <point x="60" y="254" type="curve" smooth="yes"/>
      <point x="60" y="89"/>
      <point x="140" y="-7"/>
      <point x="279" y="-7" type="curve" smooth="yes"/>
      <point x="361" y="-7"/>
      <point x="416" y="24"/>
      <point x="444" y="46" type="curve"/>
    </contour>
    <contour>
      <point x="278" y="25" type="curve" smooth="yes"/>
      <point x="161" y="25"/>
      <point x="96" y="105"/>
      <point x="96" y="254" type="curve" smooth="yes"/>
      <point x="96" y="402"/>
      <point x="172" y="491"/>
      <point x="312" y="491" type="curve" smooth="yes"/>
      <point x="359" y="491"/>
      <point x="413" y="480"/>
      <point x="444" y="472" type="curve"/>
      <point x="444" y="79" type="line"/>
      <point x="412" y="52"/>
      <point x="350" y="25"/>
    </contour>
  </outline>
</glyph>
<glyph name="u" format="2">
  <advance width="553"/>
  <unicode hex="0075"/>
  <anchor x="277" y="0" name="bottom"/>
  <anchor x="498" y="10" name="ogonek"/>
  <anchor x="274" y="513" name="top"/>
  <anchor x="533" y="513" name="topright"/>
  <outline>
    <contour>
      <point x="286" y="-6" type="curve" smooth="yes"/>
      <point x="349" y="-6"/>
      <point x="416" y="7"/>
      <point x="463" y="24" type="curve"/>
      <point x="463" y="517" type="line"/>
      <point x="429" y="517" type="line"/>
      <point x="429" y="45" type="line"/>
      <point x="394" y="34"/>
      <point x="336" y="26"/>
      <point x="287" y="26" type="curve" smooth="yes"/>
      <point x="160" y="26"/>
      <point x="118" y="82"/>
      <point x="118" y="232" type="curve" smooth="yes"/>
      <point x="118" y="517" type="line"/>
      <point x="84" y="517" type="line"/>
      <point x="84" y="231" type="line" smooth="yes"/>
      <point x="84" y="55"/>
      <point x="140" y="-6"/>
    </contour>
  </outline>
</glyph>
<glyph name="x" format="2">
  <advance width="477"/>
  <unicode hex="0078"/>
  <anchor x="239" y="0" name="bottom"/>
  <anchor x="239" y="513" name="top"/>
  <outline>
    <contour>
      <point x="35" y="0" type="curve"/>
      <point x="70" y="0" type="line"/>
      <point x="111" y="74"/>
      <point x="182" y="190"/>
      <point x="235" y="256" type="curve"/>
      <point x="295" y="179"/>
      <point x="358" y="84"/>
      <point x="405" y="0" type="curve"/>
      <point x="442" y="0" type="line"/>
      <point x="399" y="76"/>
      <point x="332" y="181"/>
      <point x="256" y="281" type="curve"/>
      <point x="421" y="513" type="line"/>
      <point x="384" y="513" type="line"/>
      <point x="236" y="304" type="line"/>
      <point x="87" y="513" type="line"/>
      <point x="49" y="513" type="line"/>
      <point x="216" y="279" type="line"/>
      <point x="148" y="190"/>
      <point x="90" y="100"/>
    </contour>
  </outline>
</glyph>
<glyph name="z" format="2">
  <advance width="437"/>
  <unicode hex="007A"/>
  <anchor x="219" y="0" name="bottom"/>
  <anchor x="219" y="257" name="center"/>
  <anchor x="219" y="513" name="top"/>
  <outline>
    <contour>
      <point x="42" y="0" type="line"/>
      <point x="394" y="0" type="line"/>
      <point x="394" y="30" type="line"/>
      <point x="80" y="30" type="line"/>
      <point x="158" y="184"/>
      <point x="314" y="402"/>
      <point x="386" y="485" type="curve"/>
      <point x="386" y="513" type="line"/>
      <point x="58" y="513" type="line"/>
      <point x="58" y="483" type="line"/>
      <point x="342" y="483" type="line"/>
      <point x="264" y="388"/>
      <point x="111" y="166"/>
      <point x="42" y="28" type="curve"/>
    </contour>
  </outline>
</glyph>
<glyph name="asciitilde" format="2">
  <advance width="564"/>
  <unicode hex="007E"/>
  <outline>
    <contour>
      <point x="386" y="231" type="curve" smooth="yes"/>
      <point x="450" y="231"/>
      <point x="486" y="263"/>
      <point x="505" y="340" type="curve"/>
      <point x="472" y="348" type="line"/>
      <point x="457" y="288"/>
      <point x="434" y="263"/>
      <point x="394" y="263" type="curve" smooth="yes"/>
      <point x="322" y="263"/>
      <point x="261" y="355"/>
      <point x="175" y="355" type="curve" smooth="yes"/>
      <point x="114" y="355"/>
      <point x="80" y="323"/>
      <point x="59" y="246" type="curve"/>
      <point x="92" y="238" type="line"/>
      <point x="114" y="304"/>
      <point x="131" y="323"/>
      <point x="175" y="323" type="curve" smooth="yes"/>
      <point x="249" y="323"/>
      <point x="298" y="231"/>
    </contour>
  </outline>
</glyph>
<glyph name="exclamdown" format="2">
  <advance width="270"/>
  <unicode hex="00A1"/>
  <outline>
    <contour>
      <point x="116" y="-185" type="line"/>
      <point x="152" y="-185" type="line"/>
      <point x="152" y="14" type="line" smooth="yes"/>
      <point x="152" y="161"/>
      <point x="150" y="172"/>
      <point x="144" y="319" type="curve"/>
      <point x="124" y="319" type="line"/>
      <point x="118" y="171"/>
      <point x="116" y="162"/>
      <point x="116" y="14" type="curve" smooth="yes"/>
    </contour>
    <contour>
      <point x="135" y="443" type="curve" smooth="yes"/>
      <point x="156" y="443"/>
      <point x="170" y="458"/>
      <point x="170" y="479" type="curve" smooth="yes"/>
      <point x="170" y="499"/>
      <point x="156" y="515"/>
      <point x="135" y="515" type="curve" smooth="yes"/>
      <point x="114" y="515"/>
      <point x="100" y="499"/>
      <point x="100" y="479" type="curve" smooth="yes"/>
      <point x="100" y="458"/>
      <point x="114" y="443"/>
    </contour>
  </outline>
</glyph>
<glyph name="sterling" format="2">
  <advance width="564"/>
  <unicode hex="00A3"/>
  <outline>
    <contour>
      <point x="147" y="0" type="curve"/>
      <point x="509" y="0" type="line"/>
      <point x="509" y="34" type="line"/>
      <point x="189" y="34" type="line"/>
      <point x="204" y="126"/>
      <point x="208" y="241"/>
      <point x="208" y="311" type="curve" smooth="yes"/>
      <point x="208" y="320" type="line"/>
      <point x="424" y="320" type="line"/>
      <point x="424" y="354" type="line"/>
      <point x="208" y="354" type="line"/>
      <point x="208" y="487" type="line" smooth="yes"/>
      <point x="208" y="631"/>
      <point x="266" y="672"/>
      <point x="355" y="672" type="curve" smooth="yes"/>
      <point x="400" y="672"/>
      <point x="446" y="660"/>
      <point x="475" y="645" type="curve"/>
      <point x="485" y="677" type="line"/>
      <point x="454" y="692"/>
      <point x="409" y="706"/>
      <point x="356" y="706" type="curve" smooth="yes"/>
      <point x="258" y="706"/>
      <point x="171" y="661"/>
      <point x="171" y="477" type="curve" smooth="yes"/>
      <point x="171" y="354" type="line"/>
      <point x="71" y="354" type="line"/>
      <point x="71" y="320" type="line"/>
      <point x="171" y="320" type="line"/>
      <point x="171" y="312" type="line" smooth="yes"/>
      <point x="171" y="184"/>
      <point x="160" y="88"/>
    </contour>
  </outline>
</glyph>
<glyph name="registered" format="2">
  <advance width="567"/>
  <unicode hex="00AE"/>
  <outline>
    <contour>
      <point x="284" y="268" type="curve" smooth="yes"/>
      <point x="413" y="268"/>
      <point x="512" y="365"/>
      <point x="512" y="507" type="curve" smooth="yes"/>
      <point x="512" y="650"/>
      <point x="413" y="748"/>
      <point x="284" y="748" type="curve" smooth="yes"/>
      <point x="155" y="748"/>
      <point x="55" y="651"/>
      <point x="55" y="507" type="curve" smooth="yes"/>
      <point x="55" y="364"/>
      <point x="155" y="268"/>
    </contour>
    <contour>
      <point x="284" y="293" type="curve" smooth="yes"/>
      <point x="165" y="293"/>
      <point x="83" y="381"/>
      <point x="83" y="507" type="curve" smooth="yes"/>
      <point x="83" y="634"/>
      <point x="165" y="722"/>
      <point x="284" y="722" type="curve" smooth="yes"/>
      <point x="400" y="722"/>
      <point x="484" y="635"/>
      <point x="484" y="507" type="curve" smooth="yes"/>
      <point x="484" y="382"/>
      <point x="402" y="293"/>
    </contour>
    <contour>
      <point x="197" y="380" type="line"/>
      <point x="226" y="380" type="line"/>
      <point x="226" y="485" type="line"/>
      <point x="281" y="485" type="line"/>
      <point x="285" y="485"/>
      <point x="290" y="485"/>
      <point x="295" y="486" type="curve"/>
      <point x="313" y="462"/>
      <point x="335" y="430"/>
      <point x="363" y="380" type="curve"/>
      <point x="395" y="380" type="line"/>
      <point x="371" y="424"/>
      <point x="352" y="454"/>
      <point x="323" y="491" type="curve"/>
      <point x="359" y="503"/>
      <point x="377" y="530"/>
      <point x="377" y="561" type="curve" smooth="yes"/>
      <point x="377" y="615"/>
      <point x="338" y="641"/>
      <point x="264" y="641" type="curve" smooth="yes"/>
      <point x="241" y="641"/>
      <point x="215" y="639"/>
      <point x="197" y="636" type="curve"/>
    </contour>
    <contour>
      <point x="226" y="510" type="line"/>
      <point x="226" y="614" type="line"/>
      <point x="234" y="615"/>
      <point x="245" y="616"/>
      <point x="263" y="616" type="curve" smooth="yes"/>
      <point x="314" y="616"/>
      <point x="347" y="598"/>
      <point x="347" y="562" type="curve" smooth="yes"/>
      <point x="347" y="525"/>
      <point x="316" y="510"/>
      <point x="276" y="510" type="curve" smooth="yes"/>
    </contour>
  </outline>
</glyph>
<glyph name="degree" format="2">
  <advance width="302"/>
  <unicode hex="00B0"/>
  <outline>
    <contour>
      <point x="151" y="524" type="curve" smooth="yes"/>
      <point x="223" y="524"/>
      <point x="270" y="571"/>
      <point x="270" y="646" type="curve" smooth="yes"/>
      <point x="270" y="718"/>
      <point x="222" y="768"/>
      <point x="151" y="768" type="curve" smooth="yes"/>
      <point x="79" y="768"/>
      <point x="32" y="721"/>
      <point x="32" y="646" type="curve" smooth="yes"/>
      <point x="32" y="574"/>
      <point x="80" y="524"/>
    </contour>
    <contour>
      <point x="151" y="552" type="curve" smooth="yes"/>
      <point x="99" y="552"/>
      <point x="62" y="590"/>
      <point x="62" y="646" type="curve" smooth="yes"/>
      <point x="62" y="702"/>
      <point x="99" y="740"/>
      <point x="151" y="740" type="curve" smooth="yes"/>
      <point x="203" y="740"/>
      <point x="240" y="702"/>
      <point x="240" y="646" type="curve" smooth="yes"/>
      <point x="240" y="590"/>
      <point x="203" y="552"/>
    </contour>
  </outline>
</glyph>
<glyph name="plusminus" format="2">
  <advance width="564"/>
  <unicode hex="00B1"/>
  <outline>
    <contour>
      <point x="264" y="128" type="line"/>
      <point x="300" y="128" type="line"/>
      <point x="300" y="357" type="line"/>
      <point x="505" y="357" type="line"/>
      <point x="505" y="389" type="line"/>
      <point x="300" y="389" type="line"/>
      <point x="300" y="618" type="line"/>
      <point x="264" y="618" type="line"/>
      <point x="264" y="389" type="line"/>
      <point x="59" y="389" type="line"/>
      <point x="59" y="357" type="line"/>
      <point x="264" y="357" type="line"/>
    </contour>
    <contour>
      <point x="59" y="15" type="line"/>
      <point x="505" y="15" type="line"/>
      <point x="505" y="47" type="line"/>
      <point x="59" y="47" type="line"/>
    </contour>
  </outline>
</glyph>
<glyph name="micro" format="2">
  <advance width="568"/>
  <unicode hex="00B5"/>
  <outline>
    <contour>
      <point x="92" y="-185" type="line"/>
      <point x="126" y="-185" type="line"/>
      <point x="126" y="-63" type="line"/>
      <point x="126" y="-19"/>
      <point x="126" y="25"/>
      <point x="126" y="69" type="curve"/>
      <point x="156" y="16"/>
      <point x="211" y="-10"/>
      <point x="292" y="-10" type="curve" smooth="yes"/>
      <point x="352" y="-10"/>
      <point x="416" y="0"/>
      <point x="476" y="20" type="curve"/>
      <point x="476" y="513" type="line"/>
      <point x="442" y="513" type="line"/>
      <point x="442" y="45" type="line"/>
      <point x="407" y="32"/>
      <point x="346" y="22"/>
      <point x="291" y="22" type="curve" smooth="yes"/>
      <point x="175" y="22"/>
      <point x="126" y="84"/>
      <point x="126" y="217" type="curve" smooth="yes"/>
      <point x="126" y="513" type="line"/>
      <point x="92" y="513" type="line"/>
    </contour>
  </outline>
</glyph>
<glyph name="paragraph" format="2">
  <advance width="583"/>
  <unicode hex="00B6"/>
  <outline>
    <contour>
      <point x="299" y="-185" type="line"/>
      <point x="335" y="-185" type="line"/>
      <point x="335" y="663" type="line"/>
      <point x="369" y="667"/>
      <point x="410" y="665"/>
      <point x="446" y="660" type="curve"/>
      <point x="446" y="-185" type="line"/>
      <point x="482" y="-185" type="line"/>
      <point x="482" y="689" type="line"/>
      <point x="447" y="694"/>
      <point x="404" y="697"/>
      <point x="361" y="697" type="curve" smooth="yes"/>
      <point x="201" y="697"/>
      <point x="49" y="637"/>
      <point x="49" y="480" type="curve" smooth="yes"/>
      <point x="49" y="351"/>
      <point x="138" y="275"/>
      <point x="299" y="266" type="curve"/>
    </contour>
  </outline>
</glyph>
<glyph name="cedilla" format="2">
  <advance width="376"/>
  <unicode hex="00B8"/>
  <outline>
    <contour>
      <point x="169" y="-185" type="curve" smooth="yes"/>
      <point x="225" y="-185"/>
      <point x="259" y="-157"/>
      <point x="259" y="-113" type="curve" smooth="yes"/>
      <point x="259" y="-79"/>
      <point x="238" y="-53"/>
      <point x="197" y="-36" type="curve"/>
      <point x="209" y="-9"/>
      <point x="214" y="0"/>
      <point x="226" y="20" type="curve"/>
      <point x="195" y="20" type="line"/>
      <point x="186" y="4"/>
      <point x="169" y="-28"/>
      <point x="157" y="-55" type="curve"/>
      <point x="208" y="-71"/>
      <point x="225" y="-85"/>
      <point x="225" y="-114" type="curve" smooth="yes"/>
      <point x="225" y="-141"/>
      <point x="205" y="-155"/>
      <point x="165" y="-155" type="curve" smooth="yes"/>
      <point x="149" y="-155"/>
      <point x="129" y="-152"/>
      <point x="114" y="-147" type="curve"/>
      <point x="109" y="-175" type="line"/>
      <point x="127" y="-182"/>
      <point x="147" y="-185"/>
    </contour>
  </outline>
</glyph>
<glyph name="ordmasculine" format="2">
  <advance width="426"/>
  <unicode hex="00BA"/>
  <outline>
    <contour>
      <point x="213" y="333" type="curve" smooth="yes"/>
      <point x="308" y="333"/>
      <point x="377" y="410"/>
      <point x="377" y="517" type="curve" smooth="yes"/>
      <point x="377" y="623"/>
      <point x="307" y="701"/>
      <point x="213" y="701" type="curve" smooth="yes"/>
      <point x="119" y="701"/>
      <point x="49" y="623"/>
      <point x="49" y="517" type="curve" smooth="yes"/>
      <point x="49" y="410"/>
      <point x="118" y="333"/>
    </contour>
    <contour>
      <point x="213" y="361" type="curve" smooth="yes"/>
      <point x="135" y="361"/>
      <point x="81" y="428"/>
      <point x="81" y="517" type="curve" smooth="yes"/>
      <point x="81" y="605"/>
      <point x="136" y="673"/>
      <point x="213" y="673" type="curve" smooth="yes"/>
      <point x="288" y="673"/>
      <point x="345" y="606"/>
      <point x="345" y="517" type="curve" smooth="yes"/>
      <point x="345" y="428"/>
      <point x="291" y="361"/>
    </contour>
  </outline>
</glyph>
<glyph name="Aring" format="2">
  <advance width="617"/>
  <unicode hex="00C5"/>
  <outline>
    <contour>
      <point x="14" y="0" type="curve"/>
      <point x="52" y="0" type="line"/>
      <point x="77" y="68"/>
      <point x="102" y="136"/>
      <point x="127" y="204" type="curve"/>
      <point x="487" y="204" type="line"/>
      <point x="512" y="136"/>
      <point x="538" y="68"/>
      <point x="563" y="0" type="curve"/>
      <point x="603" y="0" type="line"/>
      <point x="545" y="160"/>
      <point x="409" y="511"/>
      <point x="336" y="662" type="curve"/>
      <point x="368" y="673"/>
      <point x="395" y="699"/>
      <point x="395" y="746" type="curve" smooth="yes"/>
      <point x="395" y="795"/>
      <point x="357" y="834"/>
      <point x="309" y="834" type="curve" smooth="yes"/>
      <point x="258" y="834"/>
      <point x="220" y="797"/>
      <point x="220" y="746" type="curve" smooth="yes"/>
      <point x="220" y="699"/>
      <point x="247" y="673"/>
      <point x="279" y="662" type="curve"/>
      <point x="186" y="454"/>
      <point x="118" y="290"/>
    </contour>
    <contour>
      <point x="140" y="238" type="line"/>
      <point x="208" y="414"/>
      <point x="235" y="482"/>
      <point x="306" y="652" type="curve"/>
      <point x="376" y="493"/>
      <point x="411" y="406"/>
      <point x="475" y="238" type="curve"/>
    </contour>
    <contour>
      <point x="308" y="686" type="curve" smooth="yes"/>
      <point x="273" y="686"/>
      <point x="250" y="711"/>
      <point x="250" y="746" type="curve" smooth="yes"/>
      <point x="250" y="781"/>
      <point x="275" y="806"/>
      <point x="308" y="806" type="curve" smooth="yes"/>
      <point x="340" y="806"/>
      <point x="365" y="781"/>
      <point x="365" y="746" type="curve" smooth="yes"/>
      <point x="365" y="711"/>
      <point x="340" y="686"/>
    </contour>
  </outline>
</glyph>
<glyph name="Oslash" format="2">
  <advance width="760"/>
  <unicode hex="00D8"/>
  <anchor x="380" y="0" name="bottom"/>
  <anchor x="380" y="669" name="top"/>
  <outline>
    <contour>
      <point x="120" y="-32" type="line"/>
      <point x="186" y="55" type="line"/>
      <point x="237" y="12"/>
      <point x="304" y="-10"/>
      <point x="380" y="-10" type="curve" smooth="yes"/>
      <point x="566" y="-10"/>
      <point x="694" y="130"/>
      <point x="694" y="346" type="curve" smooth="yes"/>
      <point x="694" y="455"/>
      <point x="660" y="544"/>
      <point x="603" y="607" type="curve"/>
      <point x="677" y="705" type="line"/>
      <point x="651" y="725" type="line"/>
      <point x="580" y="631" type="line"/>
      <point x="527" y="678"/>
      <point x="459" y="703"/>
      <point x="380" y="703" type="curve" smooth="yes"/>
      <point x="196" y="703"/>
      <point x="66" y="561"/>
      <point x="66" y="346" type="curve" smooth="yes"/>
      <point x="66" y="233"/>
      <point x="101" y="142"/>
      <point x="161" y="78" type="curve"/>
      <point x="94" y="-11" type="line"/>
    </contour>
    <contour>
      <point x="184" y="108" type="line"/>
      <point x="133" y="164"/>
      <point x="104" y="243"/>
      <point x="104" y="346" type="curve" smooth="yes"/>
      <point x="104" y="545"/>
      <point x="220" y="669"/>
      <point x="380" y="669" type="curve" smooth="yes"/>
      <point x="451" y="669"/>
      <point x="511" y="645"/>
      <point x="558" y="602" type="curve"/>
    </contour>
    <contour>
      <point x="380" y="24" type="curve" smooth="yes"/>
      <point x="313" y="24"/>
      <point x="255" y="44"/>
      <point x="208" y="84" type="curve"/>
      <point x="581" y="578" type="line"/>
      <point x="628" y="522"/>
      <point x="656" y="443"/>
      <point x="656" y="346" type="curve" smooth="yes"/>
      <point x="656" y="146"/>
      <point x="540" y="24"/>
    </contour>
  </outline>
</glyph>
<glyph name="germandbls" format="2">
  <advance width="565"/>
  <unicode hex="00DF"/>
  <anchor x="283" y="0" name="bottom"/>
  <anchor x="283" y="776" name="top"/>
  <outline>
    <contour>
      <point x="361" y="-12" type="curve" smooth="yes"/>
      <point x="472" y="-12"/>
      <point x="538" y="52"/>
      <point x="538" y="145" type="curve" smooth="yes"/>
      <point x="538" y="216"/>
      <point x="512" y="256"/>
      <point x="411" y="306" type="curve" smooth="yes"/>
      <point x="334" y="346"/>
      <point x="316" y="365"/>
      <point x="316" y="394" type="curve" smooth="yes"/>
      <point x="316" y="422"/>
      <point x="341" y="450"/>
      <point x="371" y="480" type="curve" smooth="yes"/>
      <point x="431" y="540"/>
      <point x="449" y="575"/>
      <point x="449" y="625" type="curve" smooth="yes"/>
      <point x="449" y="718"/>
      <point x="385" y="776"/>
      <point x="278" y="776" type="curve" smooth="yes"/>
      <point x="163" y="776"/>
      <point x="92" y="697"/>
      <point x="92" y="569" type="curve" smooth="yes"/>
      <point x="92" y="0" type="line"/>
      <point x="126" y="0" type="line"/>
      <point x="126" y="563" type="line" smooth="yes"/>
      <point x="126" y="675"/>
      <point x="179" y="744"/>
      <point x="288" y="744" type="curve" smooth="yes"/>
      <point x="364" y="744"/>
      <point x="415" y="694"/>
      <point x="415" y="622" type="curve" smooth="yes"/>
      <point x="415" y="578"/>
      <point x="397" y="553"/>
      <point x="344" y="500" type="curve" smooth="yes"/>
      <point x="303" y="459"/>
      <point x="281" y="429"/>
      <point x="281" y="393" type="curve" smooth="yes"/>
      <point x="281" y="344"/>
      <point x="309" y="316"/>
      <point x="395" y="276" type="curve" smooth="yes"/>
      <point x="476" y="237"/>
      <point x="502" y="205"/>
      <point x="502" y="146" type="curve" smooth="yes"/>
      <point x="502" y="71"/>
      <point x="456" y="20"/>
      <point x="361" y="20" type="curve" smooth="yes"/>
      <point x="314" y="20"/>
      <point x="270" y="32"/>
      <point x="239" y="47" type="curve"/>
      <point x="230" y="14" type="line"/>
      <point x="265" y="-2"/>
      <point x="313" y="-12"/>
    </contour>
  </outline>
</glyph>
<glyph name="divide" format="2">
  <advance width="564"/>
  <unicode hex="00F7"/>
  <outline>
    <contour>
      <point x="59" y="273" type="line"/>
      <point x="505" y="273" type="line"/>
      <point x="505" y="305" type="line"/>
      <point x="59" y="305" type="line"/>
    </contour>
    <contour>
      <point x="282" y="71" type="curve" smooth="yes"/>
      <point x="303" y="71"/>
      <point x="315" y="87"/>
      <point x="315" y="107" type="curve" smooth="yes"/>
      <point x="315" y="128"/>
      <point x="303" y="143"/>
      <point x="282" y="143" type="curve" smooth="yes"/>
      <point x="261" y="143"/>
      <point x="249" y="128"/>
      <point x="249" y="107" type="curve" smooth="yes"/>
      <point x="249" y="87"/>
      <point x="261" y="71"/>
    </contour>
    <contour>
      <point x="282" y="435" type="curve" smooth="yes"/>
      <point x="303" y="435"/>
      <point x="315" y="451"/>
      <point x="315" y="471" type="curve" smooth="yes"/>
      <point x="315" y="492"/>
      <point x="303" y="507"/>
      <point x="282" y="507" type="curve" smooth="yes"/>
      <point x="261" y="507"/>
      <point x="249" y="492"/>
      <point x="249" y="471" type="curve" smooth="yes"/>
      <point x="249" y="451"/>
      <point x="261" y="435"/>
    </contour>
  </outline>
</glyph>
<glyph name="thorn" format="2">
  <advance width="568"/>
  <unicode hex="00FE"/>
  <anchor x="284" y="0" name="bottom"/>
  <anchor x="284" y="513" name="top"/>
  <outline>
    <contour>
      <point x="90" y="-185" type="line"/>
      <point x="124" y="-185" type="line"/>
      <point x="124" y="43" type="line"/>
      <point x="163" y="12"/>
      <point x="222" y="-7"/>
      <point x="278" y="-7" type="curve" smooth="yes"/>
      <point x="420" y="-7"/>
      <point x="508" y="98"/>
      <point x="508" y="262" type="curve" smooth="yes"/>
      <point x="508" y="416"/>
      <point x="425" y="525"/>
      <point x="281" y="525" type="curve" smooth="yes"/>
      <point x="220" y="525"/>
      <point x="156" y="501"/>
      <point x="124" y="475" type="curve"/>
      <point x="124" y="776" type="line"/>
      <point x="90" y="768" type="line"/>
    </contour>
    <contour>
      <point x="277" y="25" type="curve" smooth="yes"/>
      <point x="220" y="25"/>
      <point x="159" y="46"/>
      <point x="124" y="77" type="curve"/>
      <point x="124" y="440" type="line"/>
      <point x="155" y="467"/>
      <point x="215" y="493"/>
      <point x="282" y="493" type="curve" smooth="yes"/>
      <point x="404" y="493"/>
      <point x="472" y="398"/>
      <point x="472" y="262" type="curve" smooth="yes"/>
      <point x="472" y="114"/>
      <point x="401" y="25"/>
    </contour>
  </outline>
</glyph>
<glyph name="eogonek" format="2">
  <advance width="541"/>
  <unicode hex="0119"/>
  <anchor x="271" y="513" name="top"/>
  <outline>
    <contour>
      <point x="373" y="-186" type="curve" smooth="yes"/>
      <point x="388" y="-186"/>
      <point x="403" y="-184"/>
      <point x="417" y="-179" type="curve"/>
      <point x="414" y="-149" type="line"/>
      <point x="401" y="-152"/>
      <point x="390" y="-154"/>
      <point x="381" y="-154" type="curve" smooth="yes"/>
      <point x="348" y="-154"/>
      <point x="331" y="-139"/>
      <point x="331" y="-110" type="curve" smooth="yes"/>
      <point x="331" y="-61"/>
      <point x="400" y="1"/>
      <point x="441" y="24" type="curve"/>
      <point x="433" y="54" type="line"/>
      <point x="406" y="38"/>
      <point x="357" y="25"/>
      <point x="310" y="25" type="curve" smooth="yes"/>
      <point x="167" y="25"/>
      <point x="99" y="98"/>
      <point x="96" y="257" type="curve"/>
      <point x="475" y="257" type="line"/>
      <point x="476" y="269"/>
      <point x="477" y="282"/>
      <point x="477" y="294" type="curve" smooth="yes"/>
      <point x="477" y="422"/>
      <point x="414" y="525"/>
      <point x="281" y="525" type="curve" smooth="yes"/>
      <point x="135" y="525"/>
      <point x="60" y="398"/>
      <point x="60" y="268" type="curve" smooth="yes"/>
      <point x="60" y="81"/>
      <point x="140" y="-7"/>
      <point x="309" y="-7" type="curve" smooth="yes"/>
      <point x="328" y="-7"/>
      <point x="347" y="-5"/>
      <point x="366" y="-1" type="curve"/>
      <point x="319" y="-40"/>
      <point x="296" y="-78"/>
      <point x="296" y="-116" type="curve" smooth="yes"/>
      <point x="296" y="-159"/>
      <point x="326" y="-186"/>
    </contour>
    <contour>
      <point x="96" y="287" type="line"/>
      <point x="104" y="393"/>
      <point x="162" y="493"/>
      <point x="281" y="493" type="curve" smooth="yes"/>
      <point x="381" y="493"/>
      <point x="441" y="423"/>
      <point x="441" y="287" type="curve"/>
    </contour>
  </outline>
</glyph>
<glyph name="Hbar" format="2">
  <advance width="706"/>
  <unicode hex="0126"/>
  <outline>
    <contour>
      <point x="107" y="0" type="line"/>
      <point x="144" y="0" type="line"/>
      <point x="144" y="346" type="line"/>
      <point x="562" y="346" type="line"/>
      <point x="562" y="0" type="line"/>
      <point x="599" y="0" type="line"/>
      <point x="599" y="543" type="line"/>
      <point x="677" y="543" type="line"/>
      <point x="677" y="577" type="line"/>
      <point x="599" y="577" type="line"/>
      <point x="599" y="693" type="line"/>
      <point x="562" y="693" type="line"/>
      <point x="562" y="577" type="line"/>
      <point x="144" y="577" type="line"/>
      <point x="144" y="693" type="line"/>
      <point x="107" y="693" type="line"/>
      <point x="107" y="577" type="line"/>
      <point x="27" y="577" type="line"/>
      <point x="27" y="543" type="line"/>
      <point x="107" y="543" type="line"/>
    </contour>
    <contour>
      <point x="144" y="380" type="line"/>
      <point x="144" y="543" type="line"/>
      <point x="562" y="543" type="line"/>
      <point x="562" y="380" type="line"/>
    </contour>
  </outline>
</glyph>
<glyph name="hbar" format="2">
  <advance width="555"/>
  <unicode hex="0127"/>
  <outline>
    <contour>
      <point x="90" y="0" type="line"/>
      <point x="124" y="0" type="line"/>
      <point x="124" y="459" type="line"/>
      <point x="154" y="474"/>
      <point x="216" y="491"/>
      <point x="270" y="491" type="curve" smooth="yes"/>
      <point x="399" y="491"/>
      <point x="435" y="422"/>
      <point x="435" y="267" type="curve" smooth="yes"/>
      <point x="435" y="0" type="line"/>
      <point x="469" y="0" type="line"/>
      <point x="469" y="285" type="line" smooth="yes"/>
      <point x="469" y="436"/>
      <point x="427" y="523"/>
      <point x="276" y="523" type="curve" smooth="yes"/>
      <point x="223" y="523"/>
      <point x="173" y="510"/>
      <point x="124" y="491" type="curve"/>
      <point x="124" y="646" type="line"/>
      <point x="323" y="646" type="line"/>
      <point x="323" y="676" type="line"/>
      <point x="124" y="676" type="line"/>
      <point x="124" y="776" type="line"/>
      <point x="90" y="768" type="line"/>
      <point x="90" y="676" type="line"/>
      <point x="4" y="676" type="line"/>
      <point x="4" y="646" type="line"/>
      <point x="90" y="646" type="line"/>
    </contour>
  </outline>
</glyph>
<glyph name="Iogonek" format="2">
  <advance width="225"/>
  <unicode hex="012E"/>
  <outline>
    <contour>
      <point x="97" y="-186" type="curve" smooth="yes"/>
      <point x="112" y="-186"/>
      <point x="127" y="-184"/>
      <point x="141" y="-179" type="curve"/>
      <point x="138" y="-149" type="line"/>
      <point x="125" y="-152"/>
      <point x="114" y="-154"/>
      <point x="105" y="-154" type="curve" smooth="yes"/>
      <point x="72" y="-154"/>
      <point x="55" y="-139"/>
      <point x="55" y="-110" type="curve" smooth="yes"/>
      <point x="55" y="-78"/>
      <point x="82" y="-39"/>
      <point x="131" y="0" type="curve"/>
      <point x="131" y="693" type="line"/>
      <point x="94" y="693" type="line"/>
      <point x="94" y="0" type="line"/>
      <point x="94" y="0" type="line"/>
      <point x="47" y="-35"/>
      <point x="20" y="-76"/>
      <point x="20" y="-116" type="curve" smooth="yes"/>
      <point x="20" y="-159"/>
      <point x="50" y="-186"/>
    </contour>
  </outline>
</glyph>
<glyph name="Lslash" format="2">
  <advance width="494"/>
  <unicode hex="0141"/>
  <outline>
    <contour>
      <point x="104" y="0" type="line"/>
      <point x="472" y="0" type="line"/>
      <point x="472" y="34" type="line"/>
      <point x="141" y="34" type="line"/>
      <point x="141" y="330" type="line"/>
      <point x="279" y="405" type="line"/>
      <point x="263" y="434" type="line"/>
      <point x="141" y="367" type="line"/>
      <point x="141" y="693" type="line"/>
      <point x="104" y="693" type="line"/>
      <point x="104" y="347" type="line"/>
      <point x="-2" y="290" type="line"/>
      <point x="14" y="261" type="line"/>
      <point x="104" y="310" type="line"/>
    </contour>
  </outline>
</glyph>
<glyph name="lslash" format="2">
  <advance width="231"/>
  <unicode hex="0142"/>
  <outline>
    <contour>
      <point x="192" y="-4" type="curve"/>
      <point x="198" y="26" type="line"/>
      <point x="142" y="37"/>
      <point x="123" y="62"/>
      <point x="123" y="113" type="curve" smooth="yes"/>
      <point x="123" y="386" type="line"/>
      <point x="203" y="430" type="line"/>
      <point x="189" y="455" type="line"/>
      <point x="123" y="419" type="line"/>
      <point x="123" y="776" type="line"/>
      <point x="89" y="768" type="line"/>
      <point x="89" y="400" type="line"/>
      <point x="20" y="363" type="line"/>
      <point x="34" y="338" type="line"/>
      <point x="89" y="368" type="line"/>
      <point x="89" y="113" type="line" smooth="yes"/>
      <point x="89" y="41"/>
      <point x="123" y="4"/>
    </contour>
  </outline>
</glyph>
<glyph name="Scedilla" format="2">
  <advance width="500"/>
  <unicode hex="015E"/>
  <outline>
    <contour>
      <point x="223" y="-185" type="curve" smooth="yes"/>
      <point x="279" y="-185"/>
      <point x="313" y="-157"/>
      <point x="313" y="-113" type="curve" smooth="yes"/>
      <point x="313" y="-79"/>
      <point x="292" y="-53"/>
      <point x="251" y="-36" type="curve"/>
      <point x="255" y="-27"/>
      <point x="260" y="-17"/>
      <point x="264" y="-8" type="curve"/>
      <point x="392" y="1"/>
      <point x="458" y="65"/>
      <point x="458" y="176" type="curve" smooth="yes"/>
      <point x="458" y="263"/>
      <point x="407" y="316"/>
      <point x="276" y="367" type="curve" smooth="yes"/>
      <point x="142" y="421"/>
      <point x="96" y="456"/>
      <point x="96" y="533" type="curve" smooth="yes"/>
      <point x="96" y="622"/>
      <point x="154" y="669"/>
      <point x="266" y="669" type="curve" smooth="yes"/>
      <point x="322" y="669"/>
      <point x="380" y="655"/>
      <point x="423" y="631" type="curve"/>
      <point x="437" y="662" type="line"/>
      <point x="398" y="686"/>
      <point x="329" y="703"/>
      <point x="270" y="703" type="curve" smooth="yes"/>
      <point x="135" y="703"/>
      <point x="58" y="646"/>
      <point x="58" y="534" type="curve" smooth="yes"/>
      <point x="58" y="442"/>
      <point x="111" y="391"/>
      <point x="251" y="337" type="curve" smooth="yes"/>
      <point x="380" y="288"/>
      <point x="420" y="245"/>
      <point x="420" y="174" type="curve" smooth="yes"/>
      <point x="420" y="74"/>
      <point x="354" y="24"/>
      <point x="223" y="24" type="curve" smooth="yes"/>
      <point x="164" y="24"/>
      <point x="98" y="41"/>
      <point x="47" y="70" type="curve"/>
      <point x="34" y="38" type="line"/>
      <point x="85" y="7"/>
      <point x="151" y="-10"/>
      <point x="233" y="-10" type="curve"/>
      <point x="226" y="-25"/>
      <point x="218" y="-40"/>
      <point x="211" y="-55" type="curve"/>
      <point x="262" y="-71"/>
      <point x="279" y="-85"/>
      <point x="279" y="-114" type="curve" smooth="yes"/>
      <point x="279" y="-141"/>
      <point x="259" y="-155"/>
      <point x="219" y="-155" type="curve" smooth="yes"/>
      <point x="203" y="-155"/>
      <point x="183" y="-152"/>
      <point x="168" y="-147" type="curve"/>
      <point x="163" y="-175" type="line"/>
      <point x="181" y="-182"/>
      <point x="201" y="-185"/>
    </contour>
  </outline>
</glyph>
<glyph name="Tbar" format="2">
  <advance width="533"/>
  <unicode hex="0166"/>
  <outline>
    <contour>
      <point x="248" y="0" type="line"/>
      <point x="285" y="0" type="line"/>
      <point x="285" y="338" type="line"/>
      <point x="402" y="338" type="line"/>
      <point x="402" y="372" type="line"/>
      <point x="285" y="372" type="line"/>
      <point x="285" y="659" type="line"/>
      <point x="511" y="659" type="line"/>
      <point x="511" y="693" type="line"/>
      <point x="22" y="693" type="line"/>
      <point x="22" y="659" type="line"/>
      <point x="248" y="659" type="line"/>
      <point x="248" y="372" type="line"/>
      <point x="131" y="372" type="line"/>
      <point x="131" y="338" type="line"/>
      <point x="248" y="338" type="line"/>
    </contour>
  </outline>
</glyph>
<glyph name="longs" format="2">
  <advance width="218"/>
  <unicode hex="017F"/>
  <anchor x="109" y="0" name="bottom"/>
  <anchor x="109" y="513" name="top"/>
  <outline>
    <contour>
      <point x="90" y="0" type="line"/>
      <point x="124" y="0" type="line"/>
      <point x="124" y="577" type="line" smooth="yes"/>
      <point x="124" y="698"/>
      <point x="160" y="744"/>
      <point x="257" y="744" type="curve" smooth="yes"/>
      <point x="265" y="744"/>
      <point x="272" y="743"/>
      <point x="285" y="742" type="curve"/>
      <point x="290" y="773" type="line"/>
      <point x="278" y="775"/>
      <point x="265" y="776"/>
      <point x="252" y="776" type="curve" smooth="yes"/>
      <point x="144" y="776"/>
      <point x="90" y="715"/>
      <point x="90" y="579" type="curve" smooth="yes"/>
    </contour>
  </outline>
</glyph>
<glyph name="Oopen" format="2">
  <advance width="591"/>
  <unicode hex="0186"/>
  <anchor x="296" y="0" name="bottom"/>
  <anchor x="296" y="693" name="top"/>
  <outline>
    <contour>
      <point x="217" y="-10" type="curve" smooth="yes"/>
      <point x="404" y="-10"/>
      <point x="525" y="131"/>
      <point x="525" y="347" type="curve" smooth="yes"/>
      <point x="525" y="559"/>
      <point x="399" y="703"/>
      <point x="220" y="703" type="curve" smooth="yes"/>
      <point x="147" y="703"/>
      <point x="88" y="689"/>
      <point x="43" y="662" type="curve"/>
      <point x="54" y="631" type="line"/>
      <point x="94" y="655"/>
      <point x="155" y="669"/>
      <point x="220" y="669" type="curve" smooth="yes"/>
      <point x="377" y="669"/>
      <point x="487" y="534"/>
      <point x="487" y="344" type="curve" smooth="yes"/>
      <point x="487" y="156"/>
      <point x="379" y="24"/>
      <point x="217" y="24" type="curve" smooth="yes"/>
      <point x="153" y="24"/>
      <point x="92" y="36"/>
      <point x="47" y="57" type="curve"/>
      <point x="37" y="27" type="line"/>
      <point x="82" y="4"/>
      <point x="149" y="-10"/>
    </contour>
  </outline>
</glyph>
<glyph name="Ereversed" format="2">
  <advance width="538"/>
  <unicode hex="018E"/>
  <anchor x="269" y="0" name="bottom"/>
  <anchor x="269" y="693" name="top"/>
  <outline>
    <contour>
      <point x="44" y="0" type="line"/>
      <point x="444" y="0" type="line"/>
      <point x="444" y="693" type="line"/>
      <point x="67" y="693" type="line"/>
      <point x="67" y="659" type="line"/>
      <point x="407" y="659" type="line"/>
      <point x="407" y="381" type="line"/>
      <point x="106" y="381" type="line"/>
      <point x="106" y="347" type="line"/>
      <point x="407" y="347" type="line"/>
      <point x="407" y="34" type="line"/>
      <point x="44" y="34" type="line"/>
    </contour>
  </outline>
</glyph>
<glyph name="Schwa" format="2">
  <advance width="681"/>
  <unicode hex="018F"/>
  <anchor x="341" y="0" name="bottom"/>
  <anchor x="325" y="669" name="top"/>
  <outline>
    <contour>
      <point x="324" y="-10" type="curve" smooth="yes"/>
      <point x="521" y="-10"/>
      <point x="615" y="161"/>
      <point x="615" y="334" type="curve" smooth="yes"/>
      <point x="615" y="585"/>
      <point x="516" y="703"/>
      <point x="299" y="703" type="curve" smooth="yes"/>
      <point x="231" y="703"/>
      <point x="160" y="688"/>
      <point x="109" y="661" type="curve"/>
      <point x="120" y="631" type="line"/>
      <point x="176" y="656"/>
      <point x="236" y="669"/>
      <point x="299" y="669" type="curve" smooth="yes"/>
      <point x="486" y="669"/>
      <point x="574" y="567"/>
      <point x="577" y="346" type="curve"/>
      <point x="69" y="346" type="line"/>
      <point x="67" y="330"/>
      <point x="66" y="314"/>
      <point x="66" y="299" type="curve" smooth="yes"/>
      <point x="66" y="124"/>
      <point x="152" y="-10"/>
    </contour>
    <contour>
      <point x="324" y="23" type="curve" smooth="yes"/>
      <point x="183" y="23"/>
      <point x="103" y="121"/>
      <point x="103" y="312" type="curve"/>
      <point x="576" y="312" type="line"/>
      <point x="568" y="160"/>
      <point x="487" y="23"/>
    </contour>
  </outline>
</glyph>
<glyph name="Fhook" format="2">
  <advance width="501"/>
  <unicode hex="0191"/>
  <outline>
    <contour>
      <point x="30" y="-189" type="curve" smooth="yes"/>
      <point x="97" y="-189"/>
      <point x="131" y="-147"/>
      <point x="131" y="-63" type="curve" smooth="yes"/>
      <point x="131" y="344" type="line"/>
      <point x="426" y="344" type="line"/>
      <point x="426" y="378" type="line"/>
      <point x="131" y="378" type="line"/>
      <point x="131" y="659" type="line"/>
      <point x="463" y="659" type="line"/>
      <point x="463" y="693" type="line"/>
      <point x="94" y="693" type="line"/>
      <point x="94" y="-68" type="line" smooth="yes"/>
      <point x="94" y="-129"/>
      <point x="73" y="-157"/>
      <point x="25" y="-157" type="curve" smooth="yes"/>
      <point x="10" y="-157"/>
      <point x="-3" y="-155"/>
      <point x="-14" y="-151" type="curve"/>
      <point x="-22" y="-181" type="line"/>
      <point x="-9" y="-186"/>
      <point x="7" y="-189"/>
    </contour>
  </outline>
</glyph>
<glyph name="florin" format="2">
  <advance width="365"/>
  <unicode hex="0192"/>
  <outline>
    <contour>
      <point x="-3" y="-187" type="curve" smooth="yes"/>
      <point x="95" y="-187"/>
      <point x="126" y="-138"/>
      <point x="126" y="-1" type="curve" smooth="yes"/>
      <point x="126" y="483" type="line"/>
      <point x="342" y="483" type="line"/>
      <point x="342" y="513" type="line"/>
      <point x="126" y="513" type="line"/>
      <point x="126" y="577" type="line" smooth="yes"/>
      <point x="126" y="705"/>
      <point x="168" y="744"/>
      <point x="267" y="744" type="curve" smooth="yes"/>
      <point x="299" y="744"/>
      <point x="329" y="738"/>
      <point x="352" y="727" type="curve"/>
      <point x="360" y="758" type="line"/>
      <point x="339" y="769"/>
      <point x="303" y="776"/>
      <point x="267" y="776" type="curve" smooth="yes"/>
      <point x="150" y="776"/>
      <point x="92" y="715"/>
      <point x="92" y="579" type="curve" smooth="yes"/>
      <point x="92" y="-7" type="line" smooth="yes"/>
      <point x="92" y="-111"/>
      <point x="78" y="-155"/>
      <point x="-2" y="-155" type="curve" smooth="yes"/>
      <point x="-21" y="-155"/>
      <point x="-37" y="-153"/>
      <point x="-52" y="-149" type="curve"/>
      <point x="-57" y="-178" type="line"/>
      <point x="-41" y="-184"/>
      <point x="-23" y="-187"/>
    </contour>
  </outline>
</glyph>
<glyph name="Ghook" format="2">
  <advance width="629"/>
  <unicode hex="0193"/>
  <anchor x="315" y="0" name="bottom"/>
  <anchor x="315" y="693" name="top"/>
  <outline>
    <contour>
      <point x="386" y="-10" type="curve" smooth="yes"/>
      <point x="462" y="-10"/>
      <point x="530" y="6"/>
      <point x="574" y="25" type="curve"/>
      <point x="574" y="313" type="line"/>
      <point x="537" y="313" type="line"/>
      <point x="537" y="45" type="line"/>
      <point x="505" y="34"/>
      <point x="451" y="24"/>
      <point x="386" y="24" type="curve" smooth="yes"/>
      <point x="211" y="24"/>
      <point x="104" y="149"/>
      <point x="104" y="347" type="curve" smooth="yes"/>
      <point x="104" y="533"/>
      <point x="220" y="669"/>
      <point x="386" y="669" type="curve" smooth="yes"/>
      <point x="458" y="669"/>
      <point x="524" y="649"/>
      <point x="559" y="629" type="curve"/>
      <point x="572" y="675" type="line" smooth="yes"/>
      <point x="588" y="731"/>
      <point x="611" y="749"/>
      <point x="652" y="749" type="curve" smooth="yes"/>
      <point x="664" y="749"/>
      <point x="677" y="747"/>
      <point x="690" y="744" type="curve"/>
      <point x="699" y="775" type="line"/>
      <point x="685" y="779"/>
      <point x="670" y="781"/>
      <point x="655" y="781" type="curve" smooth="yes"/>
      <point x="591" y="781"/>
      <point x="557" y="750"/>
      <point x="537" y="677" type="curve"/>
      <point x="494" y="694"/>
      <point x="447" y="703"/>
      <point x="386" y="703" type="curve" smooth="yes"/>
      <point x="197" y="703"/>
      <point x="66" y="557"/>
      <point x="66" y="347" type="curve" smooth="yes"/>
      <point x="66" y="132"/>
      <point x="185" y="-10"/>
    </contour>
  </outline>
</glyph>
<glyph name="hv" format="2">
  <advance width="873"/>
  <unicode hex="0195"/>
  <outline>
    <contour>
      <point x="605" y="-7" type="curve" smooth="yes"/>
      <point x="736" y="-7"/>
      <point x="789" y="77"/>
      <point x="789" y="199" type="curve" smooth="yes"/>
      <point x="789" y="513" type="line"/>
      <point x="755" y="513" type="line"/>
      <point x="755" y="199" type="line" smooth="yes"/>
      <point x="755" y="94"/>
      <point x="716" y="25"/>
      <point x="605" y="25" type="curve" smooth="yes"/>
      <point x="494" y="25"/>
      <point x="455" y="94"/>
      <point x="455" y="199" type="curve" smooth="yes"/>
      <point x="455" y="285" type="line" smooth="yes"/>
      <point x="455" y="438"/>
      <point x="411" y="523"/>
      <point x="269" y="523" type="curve" smooth="yes"/>
      <point x="222" y="523"/>
      <point x="173" y="510"/>
      <point x="124" y="491" type="curve"/>
      <point x="124" y="776" type="line"/>
      <point x="90" y="768" type="line"/>
      <point x="90" y="0" type="line"/>
      <point x="124" y="0" type="line"/>
      <point x="124" y="459" type="line"/>
      <point x="154" y="474"/>
      <point x="215" y="491"/>
      <point x="263" y="491" type="curve" smooth="yes"/>
      <point x="385" y="491"/>
      <point x="421" y="421"/>
      <point x="421" y="267" type="curve" smooth="yes"/>
      <point x="421" y="199" type="line" smooth="yes"/>
      <point x="421" y="77"/>
      <point x="474" y="-7"/>
    </contour>
  </outline>
</glyph>
<glyph name="lbar" format="2">
  <advance width="229"/>
  <unicode hex="019A"/>
  <outline>
    <contour>
      <point x="199" y="-4" type="curve"/>
      <point x="205" y="26" type="line"/>
      <point x="149" y="37"/>
      <point x="130" y="62"/>
      <point x="130" y="113" type="curve" smooth="yes"/>
      <point x="130" y="388" type="line"/>
      <point x="224" y="388" type="line"/>
      <point x="224" y="418" type="line"/>
      <point x="130" y="418" type="line"/>
      <point x="130" y="776" type="line"/>
      <point x="96" y="768" type="line"/>
      <point x="96" y="418" type="line"/>
      <point x="20" y="418" type="line"/>
      <point x="20" y="388" type="line"/>
      <point x="96" y="388" type="line"/>
      <point x="96" y="113" type="line" smooth="yes"/>
      <point x="96" y="41"/>
      <point x="130" y="4"/>
    </contour>
  </outline>
</glyph>
<glyph name="Ocenteredtilde" format="2">
  <advance width="760"/>
  <unicode hex="019F"/>
  <anchor x="380" y="669" name="top"/>
  <outline>
    <contour>
      <point x="380" y="-10" type="curve" smooth="yes"/>
      <point x="566" y="-10"/>
      <point x="694" y="130"/>
      <point x="694" y="346" type="curve" smooth="yes"/>
      <point x="694" y="561"/>
      <point x="564" y="703"/>
      <point x="380" y="703" type="curve" smooth="yes"/>
      <point x="196" y="703"/>
      <point x="66" y="561"/>
      <point x="66" y="346" type="curve" smooth="yes"/>
      <point x="66" y="130"/>
      <point x="194" y="-10"/>
    </contour>
    <contour>
      <point x="380" y="24" type="curve" smooth="yes"/>
      <point x="221" y="24"/>
      <point x="109" y="142"/>
      <point x="104" y="333" type="curve"/>
      <point x="656" y="333" type="line"/>
      <point x="651" y="139"/>
      <point x="535" y="24"/>
    </contour>
    <contour>
      <point x="104" y="367" type="line"/>
      <point x="112" y="553"/>
      <point x="224" y="669"/>
      <point x="380" y="669" type="curve" smooth="yes"/>
      <point x="536" y="669"/>
      <point x="647" y="552"/>
      <point x="655" y="367" type="curve"/>
    </contour>
  </outline>
</glyph>
<glyph name="ohorn" format="2">
  <advance width="583"/>
  <unicode hex="01A1"/>
  <anchor x="292" y="0" name="bottom"/>
  <anchor x="292" y="513" name="top"/>
  <outline>
    <contour>
      <point x="287" y="-7" type="curve" smooth="yes"/>
      <point x="422" y="-7"/>
      <point x="514" y="101"/>
      <point x="514" y="259" type="curve" smooth="yes"/>
      <point x="514" y="324"/>
      <point x="498" y="380"/>
      <point x="471" y="424" type="curve"/>
      <point x="524" y="467"/>
      <point x="551" y="508"/>
      <point x="551" y="576" type="curve" smooth="yes"/>
      <point x="551" y="590"/>
      <point x="550" y="605"/>
      <point x="548" y="621" type="curve"/>
      <point x="512" y="621" type="line"/>
      <point x="514" y="608"/>
      <point x="515" y="595"/>
      <point x="515" y="582" type="curve" smooth="yes"/>
      <point x="515" y="526"/>
      <point x="493" y="479"/>
      <point x="452" y="451" type="curve"/>
      <point x="412" y="498"/>
      <point x="355" y="525"/>
      <point x="287" y="525" type="curve" smooth="yes"/>
      <point x="152" y="525"/>
      <point x="60" y="417"/>
      <point x="60" y="259" type="curve" smooth="yes"/>
      <point x="60" y="101"/>
      <point x="152" y="-7"/>
    </contour>
    <contour>
      <point x="287" y="25" type="curve" smooth="yes"/>
      <point x="170" y="25"/>
      <point x="96" y="118"/>
      <point x="96" y="259" type="curve" smooth="yes"/>
      <point x="96" y="400"/>
      <point x="170" y="493"/>
      <point x="287" y="493" type="curve" smooth="yes"/>
      <point x="402" y="493"/>
      <point x="478" y="401"/>
      <point x="478" y="259" type="curve" smooth="yes"/>
      <point x="478" y="117"/>
      <point x="402" y="25"/>
    </contour>
  </outline>
</glyph>
<glyph name="Phook" format="2">
  <advance width="646"/>
  <unicode hex="01A4"/>
  <outline>
    <contour>
      <point x="164" y="0" type="line"/>
      <point x="201" y="0" type="line"/>
      <point x="201" y="279" type="line"/>
      <point x="310" y="279" type="line" smooth="yes"/>
      <point x="517" y="279"/>
      <point x="606" y="341"/>
      <point x="606" y="488" type="curve" smooth="yes"/>
      <point x="606" y="627"/>
      <point x="512" y="697"/>
      <point x="323" y="697" type="curve" smooth="yes"/>
      <point x="72" y="697"/>
      <point x="22" y="640"/>
      <point x="22" y="542" type="curve" smooth="yes"/>
      <point x="22" y="527"/>
      <point x="25" y="507"/>
      <point x="28" y="500" type="curve"/>
      <point x="59" y="505" type="line"/>
      <point x="58" y="512"/>
      <point x="55" y="529"/>
      <point x="55" y="544" type="curve" smooth="yes"/>
      <point x="55" y="604"/>
      <point x="79" y="637"/>
      <point x="164" y="653" type="curve"/>
    </contour>
    <contour>
      <point x="201" y="313" type="line"/>
      <point x="201" y="658" type="line"/>
      <point x="233" y="661"/>
      <point x="273" y="663"/>
      <point x="321" y="663" type="curve" smooth="yes"/>
      <point x="486" y="663"/>
      <point x="568" y="605"/>
      <point x="568" y="489" type="curve" smooth="yes"/>
      <point x="568" y="339"/>
      <point x="455" y="313"/>
      <point x="307" y="313" type="curve" smooth="yes"/>
    </contour>
  </outline>
</glyph>
<glyph name="Thook" format="2">
  <advance width="541"/>
  <unicode hex="01AC"/>
  <anchor x="271" y="0" name="bottom"/>
  <anchor x="271" y="693" name="top"/>
  <outline>
    <contour>
      <point x="256" y="0" type="line"/>
      <point x="293" y="0" type="line"/>
      <point x="293" y="659" type="line"/>
      <point x="519" y="659" type="line"/>
      <point x="519" y="693" type="line"/>
      <point x="233" y="693" type="line" smooth="yes"/>
      <point x="90" y="693"/>
      <point x="22" y="649"/>
      <point x="22" y="542" type="curve" smooth="yes"/>
      <point x="22" y="531"/>
      <point x="25" y="508"/>
      <point x="28" y="500" type="curve"/>
      <point x="59" y="505" type="line"/>
      <point x="56" y="526"/>
      <point x="55" y="536"/>
      <point x="55" y="544" type="curve" smooth="yes"/>
      <point x="55" y="628"/>
      <point x="108" y="659"/>
      <point x="228" y="659" type="curve" smooth="yes"/>
      <point x="256" y="659" type="line"/>
    </contour>
  </outline>
</glyph>
<glyph name="Vhook" format="2">
  <advance width="669"/>
  <unicode hex="01B2"/>
  <anchor x="335" y="0" name="bottom"/>
  <anchor x="335" y="693" name="top"/>
  <outline>
    <contour>
      <point x="334" y="-10" type="curve" smooth="yes"/>
      <point x="500" y="-10"/>
      <point x="583" y="109"/>
      <point x="583" y="346" type="curve" smooth="yes"/>
      <point x="583" y="591"/>
      <point x="524" y="703"/>
      <point x="392" y="703" type="curve" smooth="yes"/>
      <point x="374" y="703"/>
      <point x="357" y="701"/>
      <point x="340" y="696" type="curve"/>
      <point x="348" y="666" type="line"/>
      <point x="363" y="670"/>
      <point x="376" y="671"/>
      <point x="392" y="671" type="curve" smooth="yes"/>
      <point x="494" y="671"/>
      <point x="545" y="562"/>
      <point x="545" y="343" type="curve" smooth="yes"/>
      <point x="545" y="138"/>
      <point x="481" y="24"/>
      <point x="334" y="24" type="curve" smooth="yes"/>
      <point x="191" y="24"/>
      <point x="128" y="109"/>
      <point x="128" y="266" type="curve" smooth="yes"/>
      <point x="128" y="693" type="line"/>
      <point x="91" y="693" type="line"/>
      <point x="91" y="259" type="line" smooth="yes"/>
      <point x="91" y="80"/>
      <point x="170" y="-10"/>
    </contour>
  </outline>
</glyph>
<glyph name="Yhook" format="2">
  <advance width="634"/>
  <unicode hex="01B3"/>
  <anchor x="317" y="0" name="bottom"/>
  <anchor x="317" y="693" name="top"/>
  <outline>
    <contour>
      <point x="250" y="0" type="line"/>
      <point x="287" y="0" type="line"/>
      <point x="287" y="292" type="line"/>
      <point x="329" y="367"/>
      <point x="434" y="552"/>
      <point x="480" y="625" type="curve" smooth="yes"/>
      <point x="503" y="660"/>
      <point x="517" y="671"/>
      <point x="542" y="671" type="curve" smooth="yes"/>
      <point x="565" y="671"/>
      <point x="584" y="662"/>
      <point x="609" y="637" type="curve"/>
      <point x="629" y="662" type="line"/>
      <point x="604" y="689"/>
      <point x="572" y="703"/>
      <point x="540" y="703" type="curve" smooth="yes"/>
      <point x="501" y="703"/>
      <point x="479" y="688"/>
      <point x="454" y="648" type="curve" smooth="yes"/>
      <point x="387" y="538"/>
      <point x="324" y="422"/>
      <point x="268" y="320" type="curve"/>
      <point x="188" y="437"/>
      <point x="113" y="566"/>
      <point x="54" y="693" type="curve"/>
      <point x="14" y="693" type="line"/>
      <point x="90" y="540"/>
      <point x="165" y="411"/>
      <point x="250" y="290" type="curve"/>
    </contour>
  </outline>
</glyph>
<glyph name="Ezh" format="2">
  <advance width="535"/>
  <unicode hex="01B7"/>
  <anchor x="268" y="0" name="bottom"/>
  <anchor x="253" y="669" name="top"/>
  <outline>
    <contour>
      <point x="230" y="-10" type="curve" smooth="yes"/>
      <point x="355" y="-10"/>
      <point x="476" y="44"/>
      <point x="476" y="191" type="curve" smooth="yes"/>
      <point x="476" y="311"/>
      <point x="399" y="382"/>
      <point x="232" y="387" type="curve"/>
      <point x="345" y="514"/>
      <point x="416" y="599"/>
      <point x="460" y="659" type="curve"/>
      <point x="460" y="693" type="line"/>
      <point x="58" y="693" type="line"/>
      <point x="58" y="659" type="line"/>
      <point x="416" y="659" type="line"/>
      <point x="351" y="572"/>
      <point x="260" y="465"/>
      <point x="185" y="387" type="curve"/>
      <point x="185" y="353" type="line"/>
      <point x="198" y="353" type="line" smooth="yes"/>
      <point x="363" y="353"/>
      <point x="438" y="302"/>
      <point x="438" y="191" type="curve" smooth="yes"/>
      <point x="438" y="75"/>
      <point x="339" y="24"/>
      <point x="230" y="24" type="curve" smooth="yes"/>
      <point x="163" y="24"/>
      <point x="102" y="40"/>
      <point x="51" y="71" type="curve"/>
      <point x="37" y="38" type="line"/>
      <point x="88" y="7"/>
      <point x="158" y="-10"/>
    </contour>
  </outline>
</glyph>
<glyph name="ezhreversed" format="2">
  <advance width="446"/>
  <unicode hex="01B9"/>
  <anchor x="223" y="0" name="bottom"/>
  <anchor x="223" y="513" name="top"/>
  <outline>
    <contour>
      <point x="277" y="-185" type="curve" smooth="yes"/>
      <point x="338" y="-185"/>
      <point x="395" y="-172"/>
      <point x="438" y="-149" type="curve"/>
      <point x="426" y="-119" type="line"/>
      <point x="383" y="-143"/>
      <point x="337" y="-153"/>
      <point x="277" y="-153" type="curve" smooth="yes"/>
      <point x="153" y="-153"/>
      <point x="77" y="-88"/>
      <point x="77" y="16" type="curve" smooth="yes"/>
      <point x="77" y="129"/>
      <point x="147" y="180"/>
      <point x="290" y="180" type="curve" smooth="yes"/>
      <point x="310" y="180" type="line"/>
      <point x="310" y="210" type="line"/>
      <point x="252" y="275"/>
      <point x="151" y="409"/>
      <point x="105" y="483" type="curve"/>
      <point x="418" y="483" type="line"/>
      <point x="418" y="513" type="line"/>
      <point x="67" y="513" type="line"/>
      <point x="67" y="483" type="line"/>
      <point x="106" y="423"/>
      <point x="167" y="338"/>
      <point x="267" y="211" type="curve"/>
      <point x="112" y="206"/>
      <point x="41" y="135"/>
      <point x="41" y="16" type="curve" smooth="yes"/>
      <point x="41" y="-111"/>
      <point x="128" y="-185"/>
    </contour>
  </outline>
</glyph>
<glyph name="Tonefive" format="2">
  <advance width="577"/>
  <unicode hex="01BC"/>
  <anchor x="289" y="0" name="bottom"/>
  <anchor x="289" y="693" name="top"/>
  <outline>
    <contour>
      <point x="246" y="-15" type="curve" smooth="yes"/>
      <point x="399" y="-15"/>
      <point x="487" y="61"/>
      <point x="487" y="194" type="curve" smooth="yes"/>
      <point x="487" y="335"/>
      <point x="377" y="408"/>
      <point x="169" y="409" type="curve"/>
      <point x="176" y="479"/>
      <point x="187" y="608"/>
      <point x="187" y="659" type="curve"/>
      <point x="463" y="659" type="line"/>
      <point x="463" y="693" type="line"/>
      <point x="50" y="693" type="line"/>
      <point x="50" y="659" type="line"/>
      <point x="154" y="659" type="line"/>
      <point x="151" y="586"/>
      <point x="147" y="506"/>
      <point x="131" y="376" type="curve"/>
      <point x="352" y="376"/>
      <point x="451" y="320"/>
      <point x="451" y="196" type="curve" smooth="yes"/>
      <point x="451" y="79"/>
      <point x="379" y="17"/>
      <point x="244" y="17" type="curve" smooth="yes"/>
      <point x="188" y="17"/>
      <point x="122" y="34"/>
      <point x="85" y="55" type="curve"/>
      <point x="74" y="21" type="line"/>
      <point x="113" y="0"/>
      <point x="183" y="-15"/>
    </contour>
  </outline>
</glyph>
<glyph name="tonefive" format="2">
  <advance width="476"/>
  <unicode hex="01BD"/>
  <anchor x="238" y="0" name="bottom"/>
  <anchor x="238" y="513" name="top"/>
  <outline>
    <contour>
      <point x="221" y="-7" type="curve" smooth="yes"/>
      <point x="356" y="-7"/>
      <point x="427" y="46"/>
      <point x="427" y="146" type="curve" smooth="yes"/>
      <point x="427" y="293"/>
      <point x="302" y="307"/>
      <point x="157" y="307" type="curve" smooth="yes"/>
      <point x="142" y="307" type="line"/>
      <point x="146" y="347"/>
      <point x="151" y="403"/>
      <point x="155" y="483" type="curve"/>
      <point x="406" y="483" type="line"/>
      <point x="406" y="513" type="line"/>
      <point x="42" y="513" type="line"/>
      <point x="42" y="483" type="line"/>
      <point x="123" y="483" type="line"/>
      <point x="119" y="403"/>
      <point x="114" y="346"/>
      <point x="105" y="274" type="curve"/>
      <point x="146" y="274" type="line" smooth="yes"/>
      <point x="265" y="274"/>
      <point x="391" y="267"/>
      <point x="391" y="146" type="curve" smooth="yes"/>
      <point x="391" y="65"/>
      <point x="334" y="25"/>
      <point x="221" y="25" type="curve" smooth="yes"/>
      <point x="165" y="25"/>
      <point x="103" y="38"/>
      <point x="64" y="57" type="curve"/>
      <point x="53" y="24" type="line"/>
      <point x="94" y="5"/>
      <point x="161" y="-7"/>
    </contour>
  </outline>
</glyph>
<glyph name="glottalinvertedstroke" format="2">
  <advance width="411"/>
  <unicode hex="01BE"/>
  <anchor x="206" y="0" name="bottom"/>
  <anchor x="206" y="513" name="top"/>
  <outline>
    <contour>
      <point x="184" y="-7" type="curve" smooth="yes"/>
      <point x="301" y="-7"/>
      <point x="367" y="43"/>
      <point x="367" y="131" type="curve" smooth="yes"/>
      <point x="367" y="204"/>
      <point x="327" y="232"/>
      <point x="213" y="281" type="curve" smooth="yes"/>
      <point x="117" y="323"/>
      <point x="93" y="341"/>
      <point x="93" y="398" type="curve" smooth="yes"/>
      <point x="93" y="483" type="line"/>
      <point x="302" y="483" type="line"/>
      <point x="302" y="513" type="line"/>
      <point x="93" y="513" type="line"/>
      <point x="93" y="681" type="line"/>
      <point x="59" y="673" type="line"/>
      <point x="59" y="394" type="line" smooth="yes"/>
      <point x="59" y="326"/>
      <point x="88" y="294"/>
      <point x="190" y="252" type="curve" smooth="yes"/>
      <point x="302" y="206"/>
      <point x="331" y="185"/>
      <point x="331" y="127" type="curve" smooth="yes"/>
      <point x="331" y="62"/>
      <point x="277" y="25"/>
      <point x="194" y="25" type="curve" smooth="yes"/>
      <point x="129" y="25"/>
      <point x="87" y="37"/>
      <point x="50" y="54" type="curve"/>
      <point x="40" y="22" type="line"/>
      <point x="75" y="3"/>
      <point x="145" y="-7"/>
    </contour>
  </outline>
</glyph>
<glyph name="clickalveolar" format="2">
  <advance width="568"/>
  <unicode hex="01C2"/>
  <outline>
    <contour>
      <point x="265" y="-185" type="line"/>
      <point x="301" y="-185" type="line"/>
      <point x="301" y="190" type="line"/>
      <point x="512" y="190" type="line"/>
      <point x="512" y="225" type="line"/>
      <point x="301" y="225" type="line"/>
      <point x="301" y="376" type="line"/>
      <point x="512" y="376" type="line"/>
      <point x="512" y="410" type="line"/>
      <point x="301" y="410" type="line"/>
      <point x="301" y="783" type="line"/>
      <point x="265" y="783" type="line"/>
      <point x="265" y="410" type="line"/>
      <point x="56" y="410" type="line"/>
      <point x="56" y="376" type="line"/>
      <point x="265" y="376" type="line"/>
      <point x="265" y="225" type="line"/>
      <point x="56" y="225" type="line"/>
      <point x="56" y="190" type="line"/>
      <point x="265" y="190" type="line"/>
    </contour>
  </outline>
</glyph>
<glyph name="oogonek" format="2">
  <advance width="574"/>
  <unicode hex="01EB"/>
  <anchor x="287" y="513" name="top"/>
  <outline>
    <contour>
      <point x="323" y="-186" type="curve" smooth="yes"/>
      <point x="338" y="-186"/>
      <point x="353" y="-184"/>
      <point x="367" y="-179" type="curve"/>
      <point x="364" y="-149" type="line"/>
      <point x="349" y="-153"/>
      <point x="340" y="-154"/>
      <point x="331" y="-154" type="curve" smooth="yes"/>
      <point x="298" y="-154"/>
      <point x="281" y="-139"/>
      <point x="281" y="-110" type="curve" smooth="yes"/>
      <point x="281" y="-80"/>
      <point x="297" y="-56"/>
      <point x="337" y="-23" type="curve" smooth="yes"/>
      <point x="355" y="-9"/>
      <point x="378" y="7"/>
      <point x="406" y="26" type="curve" smooth="yes"/>
      <point x="477" y="73"/>
      <point x="514" y="154"/>
      <point x="514" y="259" type="curve" smooth="yes"/>
      <point x="514" y="419"/>
      <point x="422" y="525"/>
      <point x="287" y="525" type="curve" smooth="yes"/>
      <point x="152" y="525"/>
      <point x="60" y="419"/>
      <point x="60" y="259" type="curve" smooth="yes"/>
      <point x="60" y="99"/>
      <point x="152" y="-7"/>
      <point x="287" y="-7" type="curve" smooth="yes"/>
      <point x="306" y="-7"/>
      <point x="310" y="-6"/>
      <point x="313" y="-5" type="curve"/>
      <point x="266" y="-43"/>
      <point x="243" y="-80"/>
      <point x="243" y="-116" type="curve" smooth="yes"/>
      <point x="243" y="-159"/>
      <point x="274" y="-186"/>
    </contour>
    <contour>
      <point x="287" y="25" type="curve" smooth="yes"/>
      <point x="170" y="25"/>
      <point x="96" y="118"/>
      <point x="96" y="259" type="curve" smooth="yes"/>
      <point x="96" y="400"/>
      <point x="170" y="493"/>
      <point x="287" y="493" type="curve" smooth="yes"/>
      <point x="403" y="493"/>
      <point x="478" y="401"/>
      <point x="478" y="259" type="curve" smooth="yes"/>
      <point x="478" y="117"/>
      <point x="403" y="25"/>
    </contour>
  </outline>
</glyph>
<glyph name="Wynn" format="2">
  <advance width="615"/>
  <unicode hex="01F7"/>
  <outline>
    <contour>
      <point x="94" y="-185" type="line"/>
      <point x="130" y="-185" type="line"/>
      <point x="130" y="1" type="line"/>
      <point x="361" y="91"/>
      <point x="555" y="201"/>
      <point x="555" y="451" type="curve" smooth="yes"/>
      <point x="555" y="609"/>
      <point x="448" y="697"/>
      <point x="300" y="697" type="curve" smooth="yes"/>
      <point x="237" y="697"/>
      <point x="169" y="682"/>
      <point x="94" y="649" type="curve"/>
    </contour>
    <contour>
      <point x="130" y="41" type="curve"/>
      <point x="130" y="628" type="line"/>
      <point x="191" y="653"/>
      <point x="248" y="665"/>
      <point x="300" y="665" type="curve" smooth="yes"/>
      <point x="431" y="665"/>
      <point x="517" y="585"/>
      <point x="517" y="455" type="curve" smooth="yes"/>
      <point x="517" y="225"/>
      <point x="343" y="122"/>
    </contour>
  </outline>
</glyph>
<glyph name="OU" format="2">
  <advance width="648"/>
  <unicode hex="0222"/>
  <outline>
    <contour>
      <point x="324" y="-10" type="curve" smooth="yes"/>
      <point x="492" y="-10"/>
      <point x="589" y="64"/>
      <point x="589" y="192" type="curve" smooth="yes"/>
      <point x="589" y="289"/>
      <point x="526" y="364"/>
      <point x="429" y="381" type="curve"/>
      <point x="509" y="402"/>
      <point x="541" y="450"/>
      <point x="541" y="550" type="curve" smooth="yes"/>
      <point x="541" y="590"/>
      <point x="536" y="633"/>
      <point x="521" y="693" type="curve"/>
      <point x="489" y="693" type="line"/>
      <point x="501" y="642"/>
      <point x="507" y="591"/>
      <point x="507" y="550" type="curve" smooth="yes"/>
      <point x="507" y="442"/>
      <point x="452" y="397"/>
      <point x="324" y="397" type="curve" smooth="yes"/>
      <point x="196" y="397"/>
      <point x="141" y="442"/>
      <point x="141" y="550" type="curve" smooth="yes"/>
      <point x="141" y="591"/>
      <point x="147" y="642"/>
      <point x="159" y="693" type="curve"/>
      <point x="127" y="693" type="line"/>
      <point x="112" y="633"/>
      <point x="107" y="590"/>
      <point x="107" y="550" type="curve" smooth="yes"/>
      <point x="107" y="450"/>
      <point x="139" y="402"/>
      <point x="219" y="381" type="curve"/>
      <point x="122" y="364"/>
      <point x="59" y="289"/>
      <point x="59" y="192" type="curve" smooth="yes"/>
      <point x="59" y="64"/>
      <point x="156" y="-10"/>
    </contour>
    <contour>
      <point x="324" y="24" type="curve" smooth="yes"/>
      <point x="176" y="24"/>
      <point x="97" y="83"/>
      <point x="97" y="192" type="curve" smooth="yes"/>
      <point x="97" y="301"/>
      <point x="177" y="363"/>
      <point x="324" y="363" type="curve" smooth="yes"/>
      <point x="471" y="363"/>
      <point x="551" y="301"/>
      <point x="551" y="192" type="curve" smooth="yes"/>
      <point x="551" y="83"/>
      <point x="472" y="24"/>
    </contour>
  </outline>
</glyph>
<glyph name="Ecedilla" format="2">
  <advance width="538"/>
  <unicode hex="0228"/>
  <outline>
    <contour>
      <point x="269" y="-185" type="curve" smooth="yes"/>
      <point x="325" y="-185"/>
      <point x="359" y="-157"/>
      <point x="359" y="-113" type="curve" smooth="yes"/>
      <point x="359" y="-79"/>
      <point x="338" y="-53"/>
      <point x="297" y="-36" type="curve"/>
      <point x="304" y="-19"/>
      <point x="309" y="-9"/>
      <point x="314" y="0" type="curve"/>
      <point x="494" y="0" type="line"/>
      <point x="494" y="34" type="line"/>
      <point x="131" y="34" type="line"/>
      <point x="131" y="347" type="line"/>
      <point x="432" y="347" type="line"/>
      <point x="432" y="381" type="line"/>
      <point x="131" y="381" type="line"/>
      <point x="131" y="659" type="line"/>
      <point x="471" y="659" type="line"/>
      <point x="471" y="693" type="line"/>
      <point x="94" y="693" type="line"/>
      <point x="94" y="0" type="line"/>
      <point x="284" y="0" type="line"/>
      <point x="275" y="-16"/>
      <point x="265" y="-36"/>
      <point x="257" y="-55" type="curve"/>
      <point x="308" y="-71"/>
      <point x="325" y="-85"/>
      <point x="325" y="-114" type="curve" smooth="yes"/>
      <point x="325" y="-141"/>
      <point x="305" y="-155"/>
      <point x="265" y="-155" type="curve" smooth="yes"/>
      <point x="249" y="-155"/>
      <point x="229" y="-152"/>
      <point x="214" y="-147" type="curve"/>
      <point x="209" y="-175" type="line"/>
      <point x="227" y="-182"/>
      <point x="247" y="-185"/>
    </contour>
  </outline>
</glyph>
<glyph name="lcurl" format="2">
  <advance width="324"/>
  <unicode hex="0234"/>
  <outline>
    <contour>
      <point x="214" y="-179" type="curve" smooth="yes"/>
      <point x="291" y="-179"/>
      <point x="340" y="-129"/>
      <point x="340" y="-49" type="curve" smooth="yes"/>
      <point x="340" y="34"/>
      <point x="296" y="84"/>
      <point x="227" y="84" type="curve" smooth="yes"/>
      <point x="186" y="84"/>
      <point x="152" y="65"/>
      <point x="123" y="27" type="curve"/>
      <point x="123" y="776" type="line"/>
      <point x="89" y="768" type="line"/>
      <point x="89" y="4" type="line"/>
      <point x="89" y="-1"/>
      <point x="89" y="-6"/>
      <point x="89" y="-11" type="curve"/>
      <point x="-9" y="-137" type="line"/>
      <point x="15" y="-157" type="line"/>
      <point x="90" y="-59" type="line"/>
      <point x="97" y="-134"/>
      <point x="142" y="-179"/>
    </contour>
    <contour>
      <point x="213" y="-147" type="curve" smooth="yes"/>
      <point x="158" y="-147"/>
      <point x="122" y="-104"/>
      <point x="122" y="-41" type="curve" smooth="yes"/>
      <point x="122" y="-23" type="line"/>
      <point x="153" y="25"/>
      <point x="187" y="52"/>
      <point x="226" y="52" type="curve" smooth="yes"/>
      <point x="277" y="52"/>
      <point x="304" y="18"/>
      <point x="304" y="-49" type="curve" smooth="yes"/>
      <point x="304" y="-110"/>
      <point x="270" y="-147"/>
    </contour>
  </outline>
</glyph>
<glyph name="jdotless" format="2">
  <advance width="220"/>
  <unicode hex="0237"/>
  <anchor x="110" y="-185" name="bottom"/>
  <anchor x="110" y="273" name="center"/>
  <anchor x="110" y="513" name="top"/>
  <outline>
    <contour>
      <point x="-17" y="-187" type="curve" smooth="yes"/>
      <point x="101" y="-187"/>
      <point x="127" y="-103"/>
      <point x="127" y="-1" type="curve" smooth="yes"/>
      <point x="127" y="513" type="line"/>
      <point x="93" y="513" type="line"/>
      <point x="93" y="-1" type="line" smooth="yes"/>
      <point x="93" y="-87"/>
      <point x="80" y="-155"/>
      <point x="-17" y="-155" type="curve" smooth="yes"/>
      <point x="-28" y="-155"/>
      <point x="-49" y="-152"/>
      <point x="-58" y="-149" type="curve"/>
      <point x="-63" y="-179" type="line"/>
      <point x="-54" y="-183"/>
      <point x="-29" y="-187"/>
    </contour>
  </outline>
</glyph>
<glyph name="cstroke" format="2">
  <advance width="450"/>
  <unicode hex="023C"/>
  <outline>
    <contour>
      <point x="159" y="-81" type="line"/>
      <point x="189" y="13" type="line"/>
      <point x="218" y="0"/>
      <point x="253" y="-6"/>
      <point x="294" y="-6" type="curve" smooth="yes"/>
      <point x="338" y="-6"/>
      <point x="396" y="9"/>
      <point x="423" y="26" type="curve"/>
      <point x="415" y="57" type="line"/>
      <point x="386" y="40"/>
      <point x="333" y="26"/>
      <point x="294" y="26" type="curve" smooth="yes"/>
      <point x="257" y="26"/>
      <point x="226" y="32"/>
      <point x="199" y="44" type="curve"/>
      <point x="342" y="488" type="line"/>
      <point x="366" y="484"/>
      <point x="388" y="478"/>
      <point x="404" y="469" type="curve"/>
      <point x="414" y="500" type="line"/>
      <point x="397" y="509"/>
      <point x="376" y="515"/>
      <point x="352" y="519" type="curve"/>
      <point x="379" y="601" type="line"/>
      <point x="348" y="611" type="line"/>
      <point x="319" y="523" type="line"/>
      <point x="314" y="524"/>
      <point x="310" y="524"/>
      <point x="289" y="524" type="curve" smooth="yes"/>
      <point x="148" y="524"/>
      <point x="60" y="423"/>
      <point x="60" y="254" type="curve" smooth="yes"/>
      <point x="60" y="146"/>
      <point x="95" y="70"/>
      <point x="160" y="29" type="curve"/>
      <point x="128" y="-71" type="line"/>
    </contour>
    <contour>
      <point x="171" y="61" type="line"/>
      <point x="121" y="98"/>
      <point x="96" y="162"/>
      <point x="96" y="254" type="curve" smooth="yes"/>
      <point x="96" y="399"/>
      <point x="162" y="503"/>
      <point x="309" y="491" type="curve"/>
    </contour>
  </outline>
</glyph>
<glyph name="Lbar" format="2">
  <advance width="494"/>
  <unicode hex="023D"/>
  <outline>
    <contour>
      <point x="104" y="0" type="line"/>
      <point x="472" y="0" type="line"/>
      <point x="472" y="34" type="line"/>
      <point x="141" y="34" type="line"/>
      <point x="141" y="341" type="line"/>
      <point x="312" y="341" type="line"/>
      <point x="312" y="375" type="line"/>
      <point x="141" y="375" type="line"/>
      <point x="141" y="693" type="line"/>
      <point x="104" y="693" type="line"/>
      <point x="104" y="375" type="line"/>
      <point x="23" y="375" type="line"/>
      <point x="23" y="341" type="line"/>
      <point x="104" y="341" type="line"/>
    </contour>
  </outline>
</glyph>
<glyph name="Bstroke" format="2">
  <advance width="632"/>
  <unicode hex="0243"/>
  <outline>
    <contour>
      <point x="269" y="-4" type="curve" smooth="yes"/>
      <point x="481" y="-4"/>
      <point x="573" y="62"/>
      <point x="573" y="195" type="curve" smooth="yes"/>
      <point x="573" y="288"/>
      <point x="517" y="346"/>
      <point x="417" y="363" type="curve"/>
      <point x="489" y="379"/>
      <point x="540" y="440"/>
      <point x="540" y="519" type="curve" smooth="yes"/>
      <point x="540" y="640"/>
      <point x="448" y="697"/>
      <point x="269" y="697" type="curve" smooth="yes"/>
      <point x="220" y="697"/>
      <point x="146" y="691"/>
      <point x="108" y="680" type="curve"/>
      <point x="108" y="210" type="line"/>
      <point x="28" y="210" type="line"/>
      <point x="28" y="176" type="line"/>
      <point x="108" y="176" type="line"/>
      <point x="108" y="14" type="line"/>
      <point x="140" y="5"/>
      <point x="218" y="-4"/>
    </contour>
    <contour>
      <point x="267" y="30" type="curve" smooth="yes"/>
      <point x="232" y="30"/>
      <point x="176" y="34"/>
      <point x="145" y="41" type="curve"/>
      <point x="145" y="176" type="line"/>
      <point x="289" y="176" type="line"/>
      <point x="289" y="210" type="line"/>
      <point x="145" y="210" type="line"/>
      <point x="145" y="343" type="line"/>
      <point x="307" y="343" type="line" smooth="yes"/>
      <point x="472" y="343"/>
      <point x="535" y="292"/>
      <point x="535" y="195" type="curve" smooth="yes"/>
      <point x="535" y="79"/>
      <point x="451" y="30"/>
    </contour>
    <contour>
      <point x="145" y="377" type="line"/>
      <point x="145" y="653" type="line"/>
      <point x="170" y="657"/>
      <point x="222" y="663"/>
      <point x="262" y="663" type="curve" smooth="yes"/>
      <point x="423" y="663"/>
      <point x="502" y="620"/>
      <point x="502" y="523" type="curve" smooth="yes"/>
      <point x="502" y="427"/>
      <point x="440" y="377"/>
      <point x="301" y="377" type="curve" smooth="yes"/>
    </contour>
  </outline>
</glyph>
<glyph name="Ystroke" format="2">
  <advance width="556"/>
  <unicode hex="024E"/>
  <anchor x="278" y="0" name="bottom"/>
  <anchor x="278" y="693" name="top"/>
  <outline>
    <contour>
      <point x="260" y="0" type="line"/>
      <point x="297" y="0" type="line"/>
      <point x="297" y="291" type="line"/>
      <point x="346" y="363"/>
      <point x="385" y="423"/>
      <point x="418" y="479" type="curve"/>
      <point x="530" y="479" type="line"/>
      <point x="530" y="513" type="line"/>
      <point x="438" y="513" type="line"/>
      <point x="475" y="577"/>
      <point x="504" y="632"/>
      <point x="532" y="693" type="curve"/>
      <point x="494" y="693" type="line"/>
      <point x="467" y="633"/>
      <point x="439" y="578"/>
      <point x="400" y="513" type="curve"/>
      <point x="157" y="513" type="line"/>
      <point x="122" y="573"/>
      <point x="92" y="633"/>
      <point x="64" y="693" type="curve"/>
      <point x="24" y="693" type="line"/>
      <point x="55" y="629"/>
      <point x="87" y="570"/>
      <point x="119" y="513" type="curve"/>
      <point x="24" y="513" type="line"/>
      <point x="24" y="479" type="line"/>
      <point x="139" y="479" type="line"/>
      <point x="178" y="411"/>
      <point x="217" y="349"/>
      <point x="260" y="289" type="curve"/>
    </contour>
    <contour>
      <point x="279" y="319" type="curve"/>
      <point x="244" y="370"/>
      <point x="210" y="423"/>
      <point x="177" y="479" type="curve"/>
      <point x="380" y="479" type="line"/>
      <point x="352" y="432"/>
      <point x="319" y="380"/>
    </contour>
  </outline>
</glyph>
<glyph name="apostrophemod" format="2">
  <advance width="376"/>
  <unicode hex="02BC"/>
  <outline>
    <contour>
      <point x="159" y="579" type="line"/>
      <point x="197" y="643"/>
      <point x="215" y="695"/>
      <point x="218" y="754" type="curve" smooth="yes"/>
      <point x="219" y="761"/>
      <point x="219" y="768"/>
      <point x="219" y="776" type="curve"/>
      <point x="175" y="776" type="line"/>
      <point x="176" y="768"/>
      <point x="177" y="754"/>
      <point x="177" y="739" type="curve" smooth="yes"/>
      <point x="177" y="703"/>
      <point x="168" y="657"/>
      <point x="133" y="590" type="curve"/>
    </contour>
  </outline>
</glyph>
<glyph name="caron" format="2">
  <advance width="376"/>
  <unicode hex="02C7"/>
  <outline>
    <contour>
      <point x="188" y="592" type="line"/>
      <point x="315" y="733" type="line"/>
      <point x="299" y="751" type="line"/>
      <point x="188" y="640" type="line"/>
      <point x="77" y="751" type="line"/>
      <point x="61" y="733" type="line"/>
    </contour>
  </outline>
</glyph>
<glyph name="breve" format="2">
  <advance width="368"/>
  <unicode hex="02D8"/>
  <outline>
    <contour>
      <point x="184" y="626" type="curve" smooth="yes"/>
      <point x="259" y="626"/>
      <point x="294" y="671"/>
      <point x="294" y="742" type="curve"/>
      <point x="268" y="742" type="line"/>
      <point x="265" y="686"/>
      <point x="239" y="655"/>
      <point x="184" y="655" type="curve" smooth="yes"/>
      <point x="129" y="655"/>
      <point x="103" y="686"/>
      <point x="100" y="742" type="curve"/>
      <point x="74" y="742" type="line"/>
      <point x="74" y="671"/>
      <point x="109" y="626"/>
    </contour>
  </outline>
</glyph>
<glyph name="tilde" format="2">
  <advance width="371"/>
  <unicode hex="02DC"/>
  <outline>
    <contour>
      <point x="61" y="629" type="line"/>
      <point x="78" y="660"/>
      <point x="97" y="676"/>
      <point x="118" y="676" type="curve" smooth="yes"/>
      <point x="155" y="676"/>
      <point x="204" y="635"/>
      <point x="248" y="635" type="curve" smooth="yes"/>
      <point x="285" y="635"/>
      <point x="312" y="652"/>
      <point x="335" y="703" type="curve"/>
      <point x="310" y="715" type="line"/>
      <point x="295" y="688"/>
      <point x="280" y="668"/>
      <point x="257" y="668" type="curve" smooth="yes"/>
      <point x="208" y="668"/>
      <point x="168" y="709"/>
      <point x="123" y="709" type="curve" smooth="yes"/>
      <point x="84" y="709"/>
      <point x="60" y="692"/>
      <point x="36" y="641" type="curve"/>
    </contour>
  </outline>
</glyph>
<glyph name="gravecomb" format="2">
  <unicode hex="0300"/>
  <anchor x="0" y="513" name="_top"/>
  <anchor x="0" y="773" name="top"/>
  <outline>
    <contour>
      <point x="51" y="598" type="line"/>
      <point x="67" y="616" type="line"/>
      <point x="-99" y="773" type="line"/>
      <point x="-123" y="745" type="line"/>
    </contour>
  </outline>
</glyph>
<glyph name="circumflexcomb" format="2">
  <unicode hex="0302"/>
  <anchor x="0" y="513" name="_top"/>
  <anchor x="0" y="751" name="top"/>
  <outline>
    <contour>
      <point x="-111" y="592" type="line"/>
      <point x="0" y="703" type="line"/>
      <point x="111" y="592" type="line"/>
      <point x="127" y="610" type="line"/>
      <point x="0" y="751" type="line"/>
      <point x="-127" y="610" type="line"/>
    </contour>
  </outline>
</glyph>
<glyph name="tildecomb" format="2">
  <unicode hex="0303"/>
  <anchor x="149" y="513" name="_top"/>
  <anchor x="149" y="715" name="top"/>
  <outline>
    <contour>
      <point x="25" y="629" type="line"/>
      <point x="42" y="660"/>
      <point x="60" y="676"/>
      <point x="81" y="676" type="curve" smooth="yes"/>
      <point x="118" y="676"/>
      <point x="167" y="635"/>
      <point x="211" y="635" type="curve" smooth="yes"/>
      <point x="248" y="635"/>
      <point x="275" y="652"/>
      <point x="298" y="703" type="curve"/>
      <point x="273" y="715" type="line"/>
      <point x="258" y="688"/>
      <point x="243" y="668"/>
      <point x="220" y="668" type="curve" smooth="yes"/>
      <point x="171" y="668"/>
      <point x="131" y="709"/>
      <point x="86" y="709" type="curve" smooth="yes"/>
      <point x="47" y="709"/>
      <point x="24" y="692"/>
      <point x="0" y="641" type="curve"/>
    </contour>
  </outline>
</glyph>
<glyph name="brevecomb" format="2">
  <unicode hex="0306"/>
  <anchor x="0" y="513" name="_top"/>
  <anchor x="0" y="742" name="top"/>
  <outline>
    <contour>
      <point x="0" y="626" type="curve" smooth="yes"/>
      <point x="75" y="626"/>
      <point x="110" y="671"/>
      <point x="110" y="742" type="curve"/>
      <point x="84" y="742" type="line"/>
      <point x="81" y="686"/>
      <point x="55" y="655"/>
      <point x="0" y="655" type="curve" smooth="yes"/>
      <point x="-55" y="655"/>
      <point x="-81" y="686"/>
      <point x="-84" y="742" type="curve"/>
      <point x="-110" y="742" type="line"/>
      <point x="-110" y="671"/>
      <point x="-75" y="626"/>
    </contour>
  </outline>
</glyph>
<glyph name="ringcomb" format="2">
  <unicode hex="030A"/>
  <anchor x="0" y="513" name="_top"/>
  <anchor x="0" y="761" name="top"/>
  <outline>
    <contour>
      <point x="0" y="585" type="curve" smooth="yes"/>
      <point x="43" y="585"/>
      <point x="88" y="614"/>
      <point x="88" y="673" type="curve" smooth="yes"/>
      <point x="88" y="722"/>
      <point x="49" y="761"/>
      <point x="0" y="761" type="curve" smooth="yes"/>
      <point x="-50" y="761"/>
      <point x="-88" y="724"/>
      <point x="-88" y="673" type="curve" smooth="yes"/>
      <point x="-88" y="615"/>
      <point x="-45" y="585"/>
    </contour>
    <contour>
      <point x="0" y="613" type="curve" smooth="yes"/>
      <point x="-35" y="613"/>
      <point x="-58" y="638"/>
      <point x="-58" y="673" type="curve" smooth="yes"/>
      <point x="-58" y="708"/>
      <point x="-33" y="733"/>
      <point x="0" y="733" type="curve" smooth="yes"/>
      <point x="32" y="733"/>
      <point x="58" y="708"/>
      <point x="58" y="673" type="curve" smooth="yes"/>
      <point x="58" y="638"/>
      <point x="32" y="613"/>
    </contour>
  </outline>
</glyph>
<glyph name="hungarumlautcomb" format="2">
  <unicode hex="030B"/>
  <anchor x="0" y="513" name="_top"/>
  <anchor x="0" y="775" name="top"/>
  <outline>
    <contour>
      <point x="89" y="598" type="line"/>
      <point x="217" y="751" type="line"/>
      <point x="190" y="775" type="line"/>
      <point x="70" y="613" type="line"/>
    </contour>
    <contour>
      <point x="-59" y="598" type="line"/>
      <point x="69" y="751" type="line"/>
      <point x="42" y="775" type="line"/>
      <point x="-78" y="613" type="line"/>
    </contour>
  </outline>
</glyph>
<glyph name="breveinvertedcomb" format="2">
  <unicode hex="0311"/>
  <anchor x="0" y="513" name="_top"/>
  <anchor x="0" y="742" name="top"/>
  <outline>
    <contour>
      <point x="-110" y="626" type="curve"/>
      <point x="-84" y="626" type="line"/>
      <point x="-81" y="682"/>
      <point x="-55" y="713"/>
      <point x="0" y="713" type="curve" smooth="yes"/>
      <point x="55" y="713"/>
      <point x="81" y="682"/>
      <point x="84" y="626" type="curve"/>
      <point x="110" y="626" type="line"/>
      <point x="110" y="697"/>
      <point x="75" y="742"/>
      <point x="0" y="742" type="curve" smooth="yes"/>
      <point x="-75" y="742"/>
      <point x="-110" y="697"/>
    </contour>
  </outline>
</glyph>
<glyph name="commaturnedabovecomb" format="2">
  <unicode hex="0312"/>
  <anchor x="0" y="513" name="_top"/>
  <anchor x="0" y="775" name="top"/>
  <outline>
    <contour>
      <point x="-32" y="618" type="curve"/>
      <point x="4" y="618" type="line"/>
      <point x="4" y="622"/>
      <point x="4" y="626"/>
      <point x="4" y="630" type="curve" smooth="yes"/>
      <point x="4" y="697"/>
      <point x="19" y="727"/>
      <point x="64" y="751" type="curve"/>
      <point x="51" y="775" type="line"/>
      <point x="-2" y="754"/>
      <point x="-33" y="705"/>
      <point x="-33" y="641" type="curve" smooth="yes"/>
      <point x="-33" y="625"/>
      <point x="-33" y="621"/>
    </contour>
  </outline>
</glyph>
<glyph name="commaaccentcomb" format="2">
  <unicode hex="0326"/>
  <anchor x="0" y="0" name="_bottom"/>
  <anchor x="0" y="-182" name="bottom"/>
  <outline>
    <contour>
      <point x="-83" y="-182" type="curve" smooth="yes"/>
      <point x="-20" y="-182"/>
      <point x="14" y="-146"/>
      <point x="14" y="-75" type="curve" smooth="yes"/>
      <point x="14" y="-66"/>
      <point x="14" y="-64"/>
      <point x="13" y="-61" type="curve"/>
      <point x="-20" y="-61" type="line"/>
      <point x="-20" y="-65"/>
      <point x="-20" y="-70"/>
      <point x="-20" y="-74" type="curve" smooth="yes"/>
      <point x="-20" y="-130"/>
      <point x="-44" y="-152"/>
      <point x="-104" y="-152" type="curve"/>
      <point x="-104" y="-179" type="line"/>
      <point x="-99" y="-181"/>
      <point x="-92" y="-182"/>
    </contour>
  </outline>
</glyph>
<glyph name="strokeshortcomb" format="2">
  <unicode hex="0335"/>
  <anchor x="145" y="273" name="_center"/>
  <outline>
    <contour>
      <point x="34" y="258" type="line"/>
      <point x="255" y="258" type="line"/>
      <point x="255" y="288" type="line"/>
      <point x="34" y="288" type="line"/>
    </contour>
  </outline>
</glyph>
<glyph name="Xi" format="2">
  <advance width="549"/>
  <unicode hex="039E"/>
  <outline>
    <contour>
      <point x="41" y="0" type="line"/>
      <point x="508" y="0" type="line"/>
      <point x="508" y="34" type="line"/>
      <point x="41" y="34" type="line"/>
    </contour>
    <contour>
      <point x="105" y="347" type="line"/>
      <point x="444" y="347" type="line"/>
      <point x="444" y="381" type="line"/>
      <point x="105" y="381" type="line"/>
    </contour>
    <contour>
      <point x="61" y="659" type="line"/>
      <point x="488" y="659" type="line"/>
      <point x="488" y="693" type="line"/>
      <point x="61" y="693" type="line"/>
    </contour>
  </outline>
</glyph>
<glyph name="Sigma" format="2">
  <advance width="539"/>
  <unicode hex="03A3"/>
  <outline>
    <contour>
      <point x="42" y="0" type="line"/>
      <point x="498" y="0" type="line"/>
      <point x="498" y="34" type="line"/>
      <point x="84" y="34" type="line"/>
      <point x="143" y="127"/>
      <point x="228" y="239"/>
      <point x="336" y="367" type="curve"/>
      <point x="257" y="464"/>
      <point x="179" y="562"/>
      <point x="100" y="659" type="curve"/>
      <point x="494" y="659" type="line"/>
      <point x="494" y="693" type="line"/>
      <point x="55" y="693" type="line"/>
      <point x="55" y="661" type="line"/>
      <point x="134" y="563"/>
      <point x="214" y="465"/>
      <point x="293" y="367" type="curve"/>
      <point x="187" y="243"/>
      <point x="117" y="145"/>
      <point x="42" y="32" type="curve"/>
    </contour>
  </outline>
</glyph>
<glyph name="zeta" format="2">
  <advance width="414"/>
  <unicode hex="03B6"/>
  <outline>
    <contour>
      <point x="388" y="-179" type="line"/>
      <point x="411" y="-150"/>
      <point x="432" y="-92"/>
      <point x="432" y="-60" type="curve" smooth="yes"/>
      <point x="432" y="-4"/>
      <point x="400" y="26"/>
      <point x="313" y="47" type="curve" smooth="yes"/>
      <point x="226" y="68"/>
      <point x="173" y="86"/>
      <point x="141" y="111" type="curve" smooth="yes"/>
      <point x="109" y="136"/>
      <point x="99" y="167"/>
      <point x="99" y="214" type="curve" smooth="yes"/>
      <point x="99" y="363"/>
      <point x="223" y="572"/>
      <point x="405" y="741" type="curve"/>
      <point x="405" y="769" type="line"/>
      <point x="94" y="769" type="line"/>
      <point x="94" y="739" type="line"/>
      <point x="363" y="739" type="line"/>
      <point x="226" y="621"/>
      <point x="63" y="395"/>
      <point x="63" y="217" type="curve" smooth="yes"/>
      <point x="63" y="100"/>
      <point x="106" y="62"/>
      <point x="303" y="16" type="curve" smooth="yes"/>
      <point x="370" y="1"/>
      <point x="396" y="-20"/>
      <point x="396" y="-59" type="curve" smooth="yes"/>
      <point x="396" y="-90"/>
      <point x="380" y="-135"/>
      <point x="357" y="-166" type="curve"/>
    </contour>
  </outline>
</glyph>
<glyph name="nu" format="2">
  <advance width="455"/>
  <unicode hex="03BD"/>
  <outline>
    <contour>
      <point x="193" y="0" type="curve"/>
      <point x="233" y="0" type="line"/>
      <point x="329" y="149"/>
      <point x="391" y="310"/>
      <point x="432" y="513" type="curve"/>
      <point x="398" y="513" type="line"/>
      <point x="359" y="326"/>
      <point x="298" y="164"/>
      <point x="221" y="40" type="curve"/>
      <point x="190" y="185"/>
      <point x="141" y="352"/>
      <point x="73" y="513" type="curve"/>
      <point x="37" y="513" type="line"/>
      <point x="110" y="333"/>
      <point x="164" y="165"/>
    </contour>
  </outline>
</glyph>
<glyph name="phi" format="2">
  <advance width="748"/>
  <unicode hex="03C6"/>
  <outline>
    <contour>
      <point x="357" y="-185" type="line"/>
      <point x="391" y="-185" type="line"/>
      <point x="391" y="-8" type="line"/>
      <point x="579" y="-3"/>
      <point x="688" y="87"/>
      <point x="688" y="260" type="curve" smooth="yes"/>
      <point x="688" y="423"/>
      <point x="571" y="525"/>
      <point x="374" y="525" type="curve" smooth="yes"/>
      <point x="176" y="525"/>
      <point x="60" y="423"/>
      <point x="60" y="260" type="curve" smooth="yes"/>
      <point x="60" y="87"/>
      <point x="159" y="-3"/>
      <point x="357" y="-8" type="curve"/>
    </contour>
    <contour>
      <point x="357" y="24" type="line"/>
      <point x="182" y="29"/>
      <point x="96" y="109"/>
      <point x="96" y="260" type="curve" smooth="yes"/>
      <point x="96" y="403"/>
      <point x="190" y="486"/>
      <point x="357" y="493" type="curve"/>
    </contour>
    <contour>
      <point x="391" y="24" type="curve"/>
      <point x="391" y="493" type="line"/>
      <point x="558" y="486"/>
      <point x="652" y="403"/>
      <point x="652" y="260" type="curve" smooth="yes"/>
      <point x="652" y="109"/>
      <point x="558" y="29"/>
    </contour>
  </outline>
</glyph>
<glyph name="chi" format="2">
  <advance width="449"/>
  <unicode hex="03C7"/>
  <outline>
    <contour>
      <point x="20" y="-185" type="curve"/>
      <point x="56" y="-185" type="line"/>
      <point x="111" y="-60"/>
      <point x="166" y="63"/>
      <point x="222" y="156" type="curve"/>
      <point x="282" y="52"/>
      <point x="345" y="-73"/>
      <point x="390" y="-185" type="curve"/>
      <point x="429" y="-185" type="line"/>
      <point x="377" y="-66"/>
      <point x="330" y="27"/>
      <point x="241" y="186" type="curve"/>
      <point x="405" y="513" type="line"/>
      <point x="369" y="513" type="line"/>
      <point x="223" y="215" type="line"/>
      <point x="75" y="513" type="line"/>
      <point x="36" y="513" type="line"/>
      <point x="204" y="185" type="line"/>
      <point x="140" y="80"/>
      <point x="71" y="-60"/>
    </contour>
  </outline>
</glyph>
<glyph name="Tshe-cy" format="2">
  <advance width="707"/>
  <unicode hex="040B"/>
  <outline>
    <contour>
      <point x="236" y="0" type="line"/>
      <point x="273" y="0" type="line"/>
      <point x="273" y="365" type="line"/>
      <point x="299" y="375"/>
      <point x="372" y="397"/>
      <point x="430" y="397" type="curve" smooth="yes"/>
      <point x="553" y="397"/>
      <point x="600" y="342"/>
      <point x="600" y="215" type="curve" smooth="yes"/>
      <point x="600" y="0" type="line"/>
      <point x="637" y="0" type="line"/>
      <point x="637" y="216" type="line" smooth="yes"/>
      <point x="637" y="347"/>
      <point x="585" y="431"/>
      <point x="432" y="431" type="curve" smooth="yes"/>
      <point x="357" y="431"/>
      <point x="300" y="412"/>
      <point x="273" y="401" type="curve"/>
      <point x="273" y="659" type="line"/>
      <point x="511" y="659" type="line"/>
      <point x="511" y="693" type="line"/>
      <point x="22" y="693" type="line"/>
      <point x="22" y="659" type="line"/>
      <point x="236" y="659" type="line"/>
    </contour>
  </outline>
</glyph>
<glyph name="Yeru-cy" format="2">
  <advance width="784"/>
  <unicode hex="042B"/>
  <anchor x="392" y="669" name="top"/>
  <outline>
    <contour>
      <point x="259" y="-6" type="curve" smooth="yes"/>
      <point x="448" y="-6"/>
      <point x="538" y="64"/>
      <point x="538" y="212" type="curve" smooth="yes"/>
      <point x="538" y="354"/>
      <point x="446" y="425"/>
      <point x="261" y="425" type="curve" smooth="yes"/>
      <point x="217" y="425"/>
      <point x="154" y="422"/>
      <point x="130" y="416" type="curve"/>
      <point x="130" y="693" type="line"/>
      <point x="93" y="693" type="line"/>
      <point x="93" y="10" type="line"/>
      <point x="128" y="-1"/>
      <point x="194" y="-6"/>
    </contour>
    <contour>
      <point x="255" y="28" type="curve" smooth="yes"/>
      <point x="216" y="28"/>
      <point x="162" y="32"/>
      <point x="130" y="37" type="curve"/>
      <point x="130" y="382" type="line"/>
      <point x="160" y="387"/>
      <point x="218" y="391"/>
      <point x="256" y="391" type="curve" smooth="yes"/>
      <point x="423" y="388"/>
      <point x="500" y="332"/>
      <point x="500" y="212" type="curve" smooth="yes"/>
      <point x="500" y="87"/>
      <point x="422" y="28"/>
    </contour>
    <contour>
      <point x="653" y="0" type="line"/>
      <point x="690" y="0" type="line"/>
      <point x="690" y="693" type="line"/>
      <point x="653" y="693" type="line"/>
    </contour>
  </outline>
</glyph>
<glyph name="che-cy" format="2">
  <advance width="500"/>
  <unicode hex="0447"/>
  <anchor x="480" y="0" name="bottomright"/>
  <anchor x="230" y="513" name="top"/>
  <outline>
    <contour>
      <point x="374" y="0" type="line"/>
      <point x="408" y="0" type="line"/>
      <point x="408" y="513" type="line"/>
      <point x="374" y="513" type="line"/>
      <point x="374" y="256" type="line"/>
      <point x="327" y="241"/>
      <point x="275" y="234"/>
      <point x="231" y="234" type="curve" smooth="yes"/>
      <point x="133" y="234"/>
      <point x="84" y="282"/>
      <point x="84" y="378" type="curve" smooth="yes"/>
      <point x="84" y="513" type="line"/>
      <point x="50" y="513" type="line"/>
      <point x="50" y="373" type="line" smooth="yes"/>
      <point x="50" y="260"/>
      <point x="112" y="202"/>
      <point x="231" y="202" type="curve" smooth="yes"/>
      <point x="275" y="202"/>
      <point x="323" y="209"/>
      <point x="374" y="224" type="curve"/>
    </contour>
  </outline>
</glyph>
<glyph name="sha-cy" format="2">
  <advance width="782"/>
  <unicode hex="0448"/>
  <outline>
    <contour>
      <point x="92" y="0" type="line"/>
      <point x="690" y="0" type="line"/>
      <point x="690" y="513" type="line"/>
      <point x="656" y="513" type="line"/>
      <point x="656" y="30" type="line"/>
      <point x="408" y="30" type="line"/>
      <point x="408" y="513" type="line"/>
      <point x="374" y="513" type="line"/>
      <point x="374" y="30" type="line"/>
      <point x="126" y="30" type="line"/>
      <point x="126" y="513" type="line"/>
      <point x="92" y="513" type="line"/>
    </contour>
  </outline>
</glyph>
<glyph name="yeru-cy" format="2">
  <advance width="707"/>
  <unicode hex="044B"/>
  <anchor x="354" y="513" name="top"/>
  <outline>
    <contour>
      <point x="256" y="-11" type="curve" smooth="yes"/>
      <point x="393" y="-11"/>
      <point x="465" y="48"/>
      <point x="465" y="152" type="curve" smooth="yes"/>
      <point x="465" y="260"/>
      <point x="398" y="317"/>
      <point x="267" y="317" type="curve" smooth="yes"/>
      <point x="218" y="317"/>
      <point x="162" y="309"/>
      <point x="126" y="297" type="curve"/>
      <point x="126" y="513" type="line"/>
      <point x="92" y="513" type="line"/>
      <point x="92" y="12" type="line"/>
      <point x="119" y="0"/>
      <point x="202" y="-11"/>
    </contour>
    <contour>
      <point x="260" y="21" type="curve" smooth="yes"/>
      <point x="215" y="21"/>
      <point x="159" y="26"/>
      <point x="126" y="37" type="curve"/>
      <point x="126" y="263" type="line"/>
      <point x="161" y="278"/>
      <point x="211" y="285"/>
      <point x="267" y="285" type="curve" smooth="yes"/>
      <point x="375" y="285"/>
      <point x="429" y="238"/>
      <point x="429" y="154" type="curve" smooth="yes"/>
      <point x="429" y="67"/>
      <point x="369" y="21"/>
    </contour>
    <contour>
      <point x="581" y="0" type="line"/>
      <point x="615" y="0" type="line"/>
      <point x="615" y="513" type="line"/>
      <point x="581" y="513" type="line"/>
    </contour>
  </outline>
</glyph>
<glyph name="dje-cy" format="2">
  <advance width="526"/>
  <unicode hex="0452"/>
  <outline>
    <contour>
      <point x="329" y="-154" type="curve" smooth="yes"/>
      <point x="438" y="-87"/>
      <point x="470" y="-2"/>
      <point x="471" y="194" type="curve"/>
      <point x="471" y="200" type="line"/>
      <point x="471" y="353"/>
      <point x="408" y="423"/>
      <point x="271" y="423" type="curve" smooth="yes"/>
      <point x="228" y="423"/>
      <point x="177" y="412"/>
      <point x="126" y="391" type="curve"/>
      <point x="126" y="571" type="line"/>
      <point x="313" y="571" type="line"/>
      <point x="313" y="601" type="line"/>
      <point x="126" y="601" type="line"/>
      <point x="126" y="776" type="line"/>
      <point x="92" y="768" type="line"/>
      <point x="92" y="601" type="line"/>
      <point x="16" y="601" type="line"/>
      <point x="16" y="571" type="line"/>
      <point x="92" y="571" type="line"/>
      <point x="92" y="0" type="line"/>
      <point x="126" y="0" type="line"/>
      <point x="126" y="359" type="line"/>
      <point x="157" y="377"/>
      <point x="227" y="391"/>
      <point x="267" y="391" type="curve" smooth="yes"/>
      <point x="389" y="391"/>
      <point x="435" y="329"/>
      <point x="435" y="179" type="curve"/>
      <point x="435" y="172" type="line"/>
      <point x="434" y="40"/>
      <point x="419" y="-60"/>
      <point x="313" y="-126" type="curve" smooth="yes"/>
      <point x="305" y="-132"/>
      <point x="296" y="-136"/>
      <point x="287" y="-141" type="curve"/>
      <point x="302" y="-169" type="line"/>
      <point x="311" y="-164"/>
      <point x="320" y="-159"/>
    </contour>
  </outline>
</glyph>
<glyph name="lje-cy" format="2">
  <advance width="828"/>
  <unicode hex="0459"/>
  <outline>
    <contour>
      <point x="605" y="-11" type="curve" smooth="yes"/>
      <point x="728" y="-11"/>
      <point x="800" y="45"/>
      <point x="800" y="137" type="curve" smooth="yes"/>
      <point x="800" y="238"/>
      <point x="740" y="285"/>
      <point x="605" y="285" type="curve" smooth="yes"/>
      <point x="560" y="285"/>
      <point x="514" y="285"/>
      <point x="469" y="285" type="curve"/>
      <point x="469" y="513" type="line"/>
      <point x="181" y="513" type="line"/>
      <point x="181" y="434" type="line" smooth="yes"/>
      <point x="181" y="169"/>
      <point x="135" y="49"/>
      <point x="14" y="20" type="curve"/>
      <point x="20" y="-9" type="line"/>
      <point x="153" y="12"/>
      <point x="215" y="148"/>
      <point x="215" y="415" type="curve" smooth="yes"/>
      <point x="215" y="483" type="line"/>
      <point x="435" y="483" type="line"/>
      <point x="435" y="12" type="line"/>
      <point x="460" y="-2"/>
      <point x="558" y="-11"/>
    </contour>
    <contour>
      <point x="605" y="21" type="curve" smooth="yes"/>
      <point x="546" y="21"/>
      <point x="496" y="29"/>
      <point x="469" y="37" type="curve"/>
      <point x="469" y="255" type="line"/>
      <point x="513" y="255"/>
      <point x="557" y="255"/>
      <point x="601" y="255" type="curve" smooth="yes"/>
      <point x="717" y="255"/>
      <point x="764" y="221"/>
      <point x="764" y="137" type="curve" smooth="yes"/>
      <point x="764" y="62"/>
      <point x="706" y="21"/>
    </contour>
  </outline>
</glyph>
<glyph name="tshe-cy" format="2">
  <advance width="557"/>
  <unicode hex="045B"/>
  <outline>
    <contour>
      <point x="92" y="0" type="line"/>
      <point x="126" y="0" type="line"/>
      <point x="126" y="359" type="line"/>
      <point x="156" y="374"/>
      <point x="218" y="391"/>
      <point x="272" y="391" type="curve" smooth="yes"/>
      <point x="401" y="391"/>
      <point x="437" y="322"/>
      <point x="437" y="167" type="curve" smooth="yes"/>
      <point x="437" y="0" type="line"/>
      <point x="471" y="0" type="line"/>
      <point x="471" y="185" type="line" smooth="yes"/>
      <point x="471" y="336"/>
      <point x="429" y="423"/>
      <point x="278" y="423" type="curve" smooth="yes"/>
      <point x="225" y="423"/>
      <point x="175" y="410"/>
      <point x="126" y="391" type="curve"/>
      <point x="126" y="571" type="line"/>
      <point x="305" y="571" type="line"/>
      <point x="305" y="601" type="line"/>
      <point x="126" y="601" type="line"/>
      <point x="126" y="776" type="line"/>
      <point x="92" y="768" type="line"/>
      <point x="92" y="601" type="line"/>
      <point x="16" y="601" type="line"/>
      <point x="16" y="571" type="line"/>
      <point x="92" y="571" type="line"/>
    </contour>
  </outline>
</glyph>
<glyph name="Yat-cy" format="2">
  <advance width="707"/>
  <unicode hex="0462"/>
  <outline>
    <contour>
      <point x="383" y="-6" type="curve" smooth="yes"/>
      <point x="571" y="-6"/>
      <point x="667" y="64"/>
      <point x="667" y="204" type="curve" smooth="yes"/>
      <point x="667" y="347"/>
      <point x="582" y="414"/>
      <point x="356" y="414" type="curve" smooth="yes"/>
      <point x="322" y="414"/>
      <point x="288" y="414"/>
      <point x="254" y="414" type="curve"/>
      <point x="254" y="600" type="line"/>
      <point x="474" y="600" type="line"/>
      <point x="474" y="634" type="line"/>
      <point x="254" y="634" type="line"/>
      <point x="254" y="738" type="line"/>
      <point x="217" y="738" type="line"/>
      <point x="217" y="634" type="line"/>
      <point x="30" y="634" type="line"/>
      <point x="30" y="600" type="line"/>
      <point x="217" y="600" type="line"/>
      <point x="217" y="16" type="line"/>
      <point x="256" y="2"/>
      <point x="334" y="-6"/>
    </contour>
    <contour>
      <point x="381" y="28" type="curve" smooth="yes"/>
      <point x="334" y="28"/>
      <point x="291" y="32"/>
      <point x="254" y="41" type="curve"/>
      <point x="254" y="380" type="line"/>
      <point x="292" y="380"/>
      <point x="331" y="380"/>
      <point x="369" y="380" type="curve" smooth="yes"/>
      <point x="552" y="380"/>
      <point x="628" y="324"/>
      <point x="628" y="207" type="curve" smooth="yes"/>
      <point x="628" y="88"/>
      <point x="546" y="28"/>
    </contour>
  </outline>
</glyph>
<glyph name="Ertick-cy" format="2">
  <advance width="576"/>
  <unicode hex="048E"/>
  <outline>
    <contour>
      <point x="94" y="0" type="line"/>
      <point x="131" y="0" type="line"/>
      <point x="131" y="279" type="line"/>
      <point x="240" y="279" type="line" smooth="yes"/>
      <point x="281" y="279"/>
      <point x="317" y="282"/>
      <point x="349" y="287" type="curve"/>
      <point x="425" y="154" type="line"/>
      <point x="452" y="170" type="line"/>
      <point x="382" y="294" type="line"/>
      <point x="489" y="321"/>
      <point x="536" y="385"/>
      <point x="536" y="488" type="curve" smooth="yes"/>
      <point x="536" y="627"/>
      <point x="442" y="697"/>
      <point x="253" y="697" type="curve" smooth="yes"/>
      <point x="190" y="697"/>
      <point x="130" y="691"/>
      <point x="94" y="682" type="curve"/>
    </contour>
    <contour>
      <point x="131" y="313" type="line"/>
      <point x="131" y="654" type="line"/>
      <point x="160" y="660"/>
      <point x="217" y="663"/>
      <point x="253" y="663" type="curve" smooth="yes"/>
      <point x="416" y="663"/>
      <point x="498" y="605"/>
      <point x="498" y="489" type="curve" smooth="yes"/>
      <point x="498" y="397"/>
      <point x="458" y="345"/>
      <point x="365" y="324" type="curve"/>
      <point x="299" y="442" type="line"/>
      <point x="271" y="426" type="line"/>
      <point x="332" y="318" type="line"/>
      <point x="304" y="314"/>
      <point x="272" y="313"/>
      <point x="237" y="313" type="curve" smooth="yes"/>
    </contour>
  </outline>
</glyph>
<glyph name="ertick-cy" format="2">
  <advance width="568"/>
  <unicode hex="048F"/>
  <outline>
    <contour>
      <point x="90" y="-185" type="line"/>
      <point x="124" y="-185" type="line"/>
      <point x="124" y="43" type="line"/>
      <point x="163" y="12"/>
      <point x="222" y="-7"/>
      <point x="278" y="-7" type="curve" smooth="yes"/>
      <point x="316" y="-7"/>
      <point x="350" y="0"/>
      <point x="380" y="14" type="curve"/>
      <point x="437" y="-89" type="line"/>
      <point x="465" y="-73" type="line"/>
      <point x="408" y="30" type="line"/>
      <point x="472" y="73"/>
      <point x="508" y="151"/>
      <point x="508" y="258" type="curve" smooth="yes"/>
      <point x="508" y="421"/>
      <point x="414" y="523"/>
      <point x="264" y="523" type="curve" smooth="yes"/>
      <point x="201" y="523"/>
      <point x="139" y="513"/>
      <point x="90" y="494" type="curve"/>
    </contour>
    <contour>
      <point x="277" y="25" type="curve" smooth="yes"/>
      <point x="220" y="25"/>
      <point x="159" y="46"/>
      <point x="124" y="77" type="curve"/>
      <point x="124" y="471" type="line"/>
      <point x="163" y="483"/>
      <point x="212" y="491"/>
      <point x="251" y="491" type="curve" smooth="yes"/>
      <point x="380" y="491"/>
      <point x="472" y="421"/>
      <point x="472" y="258" type="curve" smooth="yes"/>
      <point x="472" y="165"/>
      <point x="443" y="98"/>
      <point x="391" y="59" type="curve"/>
      <point x="317" y="193" type="line"/>
      <point x="289" y="177" type="line"/>
      <point x="364" y="42" type="line"/>
      <point x="338" y="31"/>
      <point x="309" y="25"/>
    </contour>
  </outline>
</glyph>
<glyph name="Zedescender-cy" format="2">
  <advance width="536"/>
  <unicode hex="0498"/>
  <outline>
    <contour>
      <point x="229" y="-185" type="curve" smooth="yes"/>
      <point x="285" y="-185"/>
      <point x="319" y="-157"/>
      <point x="319" y="-113" type="curve" smooth="yes"/>
      <point x="319" y="-79"/>
      <point x="298" y="-53"/>
      <point x="257" y="-36" type="curve"/>
      <point x="262" y="-23"/>
      <point x="267" y="-14"/>
      <point x="270" y="-8" type="curve"/>
      <point x="398" y="4"/>
      <point x="476" y="78"/>
      <point x="476" y="191" type="curve" smooth="yes"/>
      <point x="476" y="296"/>
      <point x="413" y="360"/>
      <point x="296" y="372" type="curve"/>
      <point x="388" y="387"/>
      <point x="443" y="449"/>
      <point x="443" y="542" type="curve" smooth="yes"/>
      <point x="443" y="639"/>
      <point x="360" y="703"/>
      <point x="231" y="703" type="curve" smooth="yes"/>
      <point x="171" y="703"/>
      <point x="113" y="688"/>
      <point x="66" y="660" type="curve"/>
      <point x="81" y="630" type="line"/>
      <point x="124" y="655"/>
      <point x="181" y="669"/>
      <point x="232" y="669" type="curve" smooth="yes"/>
      <point x="341" y="669"/>
      <point x="405" y="623"/>
      <point x="405" y="540" type="curve" smooth="yes"/>
      <point x="405" y="440"/>
      <point x="334" y="387"/>
      <point x="198" y="387" type="curve" smooth="yes"/>
      <point x="149" y="387" type="line"/>
      <point x="149" y="353" type="line"/>
      <point x="198" y="353" type="line" smooth="yes"/>
      <point x="362" y="353"/>
      <point x="438" y="302"/>
      <point x="438" y="191" type="curve" smooth="yes"/>
      <point x="438" y="88"/>
      <point x="358" y="24"/>
      <point x="230" y="24" type="curve" smooth="yes"/>
      <point x="162" y="24"/>
      <point x="111" y="37"/>
      <point x="51" y="66" type="curve"/>
      <point x="38" y="35" type="line"/>
      <point x="90" y="6"/>
      <point x="158" y="-10"/>
      <point x="238" y="-10" type="curve"/>
      <point x="231" y="-25"/>
      <point x="224" y="-40"/>
      <point x="217" y="-55" type="curve"/>
      <point x="268" y="-71"/>
      <point x="285" y="-85"/>
      <point x="285" y="-114" type="curve" smooth="yes"/>
      <point x="285" y="-141"/>
      <point x="265" y="-155"/>
      <point x="225" y="-155" type="curve" smooth="yes"/>
      <point x="209" y="-155"/>
      <point x="189" y="-152"/>
      <point x="174" y="-147" type="curve"/>
      <point x="169" y="-175" type="line"/>
      <point x="187" y="-182"/>
      <point x="207" y="-185"/>
    </contour>
  </outline>
</glyph>
<glyph name="zedescender-cy" format="2">
  <advance width="463"/>
  <unicode hex="0499"/>
  <outline>
    <contour>
      <point x="189" y="-185" type="curve" smooth="yes"/>
      <point x="245" y="-185"/>
      <point x="279" y="-157"/>
      <point x="279" y="-113" type="curve" smooth="yes"/>
      <point x="279" y="-79"/>
      <point x="258" y="-53"/>
      <point x="217" y="-36" type="curve"/>
      <point x="221" y="-27"/>
      <point x="225" y="-18"/>
      <point x="229" y="-9" type="curve"/>
      <point x="341" y="-2"/>
      <point x="403" y="48"/>
      <point x="403" y="136" type="curve" smooth="yes"/>
      <point x="403" y="209"/>
      <point x="361" y="252"/>
      <point x="278" y="273" type="curve"/>
      <point x="335" y="284"/>
      <point x="381" y="325"/>
      <point x="381" y="385" type="curve" smooth="yes"/>
      <point x="381" y="476"/>
      <point x="320" y="522"/>
      <point x="198" y="522" type="curve" smooth="yes"/>
      <point x="149" y="522"/>
      <point x="103" y="514"/>
      <point x="66" y="501" type="curve"/>
      <point x="75" y="470" type="line"/>
      <point x="108" y="481"/>
      <point x="157" y="490"/>
      <point x="198" y="490" type="curve" smooth="yes"/>
      <point x="296" y="490"/>
      <point x="345" y="454"/>
      <point x="345" y="383" type="curve" smooth="yes"/>
      <point x="345" y="324"/>
      <point x="283" y="287"/>
      <point x="190" y="287" type="curve" smooth="yes"/>
      <point x="141" y="287" type="line"/>
      <point x="141" y="257" type="line"/>
      <point x="191" y="257" type="line" smooth="yes"/>
      <point x="300" y="257"/>
      <point x="367" y="212"/>
      <point x="367" y="137" type="curve" smooth="yes"/>
      <point x="367" y="62"/>
      <point x="309" y="22"/>
      <point x="205" y="22" type="curve" smooth="yes"/>
      <point x="145" y="22"/>
      <point x="89" y="35"/>
      <point x="60" y="47" type="curve"/>
      <point x="49" y="17" type="line"/>
      <point x="89" y="-2"/>
      <point x="142" y="-9"/>
      <point x="198" y="-10" type="curve"/>
      <point x="191" y="-25"/>
      <point x="184" y="-40"/>
      <point x="177" y="-55" type="curve"/>
      <point x="228" y="-71"/>
      <point x="245" y="-85"/>
      <point x="245" y="-114" type="curve" smooth="yes"/>
      <point x="245" y="-141"/>
      <point x="225" y="-155"/>
      <point x="185" y="-155" type="curve" smooth="yes"/>
      <point x="169" y="-155"/>
      <point x="149" y="-152"/>
      <point x="134" y="-147" type="curve"/>
      <point x="129" y="-175" type="line"/>
      <point x="147" y="-182"/>
      <point x="167" y="-185"/>
    </contour>
  </outline>
</glyph>
<glyph name="kadescender-cy" format="2">
  <advance width="483"/>
  <unicode hex="049B"/>
  <outline>
    <contour>
      <point x="443" y="-143" type="line"/>
      <point x="477" y="-143" type="line"/>
      <point x="477" y="30" type="line"/>
      <point x="428" y="30" type="line"/>
      <point x="354" y="129"/>
      <point x="251" y="231"/>
      <point x="168" y="276" type="curve"/>
      <point x="261" y="352"/>
      <point x="341" y="432"/>
      <point x="421" y="513" type="curve"/>
      <point x="377" y="513" type="line"/>
      <point x="296" y="429"/>
      <point x="247" y="379"/>
      <point x="126" y="279" type="curve"/>
      <point x="126" y="513" type="line"/>
      <point x="92" y="513" type="line"/>
      <point x="92" y="0" type="line"/>
      <point x="126" y="0" type="line"/>
      <point x="126" y="262" type="line"/>
      <point x="220" y="215"/>
      <point x="332" y="104"/>
      <point x="407" y="0" type="curve"/>
      <point x="443" y="0" type="line"/>
    </contour>
  </outline>
</glyph>
<glyph name="Kastroke-cy" format="2">
  <advance width="582"/>
  <unicode hex="049E"/>
  <outline>
    <contour>
      <point x="109" y="0" type="line"/>
      <point x="146" y="0" type="line"/>
      <point x="146" y="345" type="line"/>
      <point x="262" y="290"/>
      <point x="434" y="130"/>
      <point x="526" y="0" type="curve"/>
      <point x="566" y="0" type="line"/>
      <point x="473" y="148"/>
      <point x="309" y="289"/>
      <point x="190" y="361" type="curve"/>
      <point x="296" y="444"/>
      <point x="444" y="590"/>
      <point x="544" y="693" type="curve"/>
      <point x="500" y="693" type="line"/>
      <point x="420" y="607"/>
      <point x="260" y="456"/>
      <point x="146" y="366" type="curve"/>
      <point x="146" y="566" type="line"/>
      <point x="251" y="566" type="line"/>
      <point x="251" y="600" type="line"/>
      <point x="146" y="600" type="line"/>
      <point x="146" y="693" type="line"/>
      <point x="109" y="693" type="line"/>
      <point x="109" y="600" type="line"/>
      <point x="31" y="600" type="line"/>
      <point x="31" y="566" type="line"/>
      <point x="109" y="566" type="line"/>
    </contour>
  </outline>
</glyph>
<glyph name="Kabashkir-cy" format="2">
  <advance width="678"/>
  <unicode hex="04A0"/>
  <outline>
    <contour>
      <point x="205" y="0" type="line"/>
      <point x="242" y="0" type="line"/>
      <point x="242" y="345" type="line"/>
      <point x="358" y="290"/>
      <point x="530" y="130"/>
      <point x="622" y="0" type="curve"/>
      <point x="662" y="0" type="line"/>
      <point x="569" y="148"/>
      <point x="405" y="289"/>
      <point x="286" y="361" type="curve"/>
      <point x="392" y="444"/>
      <point x="540" y="590"/>
      <point x="640" y="693" type="curve"/>
      <point x="596" y="693" type="line"/>
      <point x="516" y="607"/>
      <point x="356" y="456"/>
      <point x="242" y="366" type="curve"/>
      <point x="242" y="693" type="line"/>
      <point x="20" y="693" type="line"/>
      <point x="20" y="659" type="line"/>
      <point x="205" y="659" type="line"/>
    </contour>
  </outline>
</glyph>
<glyph name="Endescender-cy" format="2">
  <advance width="685"/>
  <unicode hex="04A2"/>
  <outline>
    <contour>
      <point x="592" y="-185" type="line"/>
      <point x="629" y="-185" type="line"/>
      <point x="629" y="34" type="line"/>
      <point x="586" y="34" type="line"/>
      <point x="586" y="693" type="line"/>
      <point x="549" y="693" type="line"/>
      <point x="549" y="380" type="line"/>
      <point x="131" y="380" type="line"/>
      <point x="131" y="693" type="line"/>
      <point x="94" y="693" type="line"/>
      <point x="94" y="0" type="line"/>
      <point x="131" y="0" type="line"/>
      <point x="131" y="346" type="line"/>
      <point x="549" y="346" type="line"/>
      <point x="549" y="0" type="line"/>
      <point x="592" y="0" type="line"/>
    </contour>
  </outline>
</glyph>
<glyph name="Pemiddlehook-cy" format="2">
  <advance width="1002"/>
  <unicode hex="04A6"/>
  <outline>
    <contour>
      <point x="722" y="-185" type="curve" smooth="yes"/>
      <point x="877" y="-185"/>
      <point x="963" y="-77"/>
      <point x="963" y="118" type="curve" smooth="yes"/>
      <point x="963" y="327"/>
      <point x="879" y="431"/>
      <point x="712" y="431" type="curve" smooth="yes"/>
      <point x="648" y="431"/>
      <point x="600" y="420"/>
      <point x="555" y="393" type="curve"/>
      <point x="555" y="693" type="line"/>
      <point x="94" y="693" type="line"/>
      <point x="94" y="0" type="line"/>
      <point x="131" y="0" type="line"/>
      <point x="131" y="659" type="line"/>
      <point x="518" y="659" type="line"/>
      <point x="518" y="0" type="line"/>
      <point x="555" y="0" type="line"/>
      <point x="555" y="359" type="line"/>
      <point x="596" y="382"/>
      <point x="655" y="397"/>
      <point x="711" y="397" type="curve" smooth="yes"/>
      <point x="851" y="397"/>
      <point x="925" y="301"/>
      <point x="925" y="120" type="curve" smooth="yes"/>
      <point x="925" y="-56"/>
      <point x="856" y="-151"/>
      <point x="727" y="-151" type="curve" smooth="yes"/>
      <point x="714" y="-151"/>
      <point x="696" y="-150"/>
      <point x="681" y="-148" type="curve"/>
      <point x="678" y="-181" type="line"/>
      <point x="691" y="-184"/>
      <point x="711" y="-185"/>
    </contour>
  </outline>
</glyph>
<glyph name="haabkhasian-cy" format="2">
  <advance width="570"/>
  <unicode hex="04A9"/>
  <outline>
    <contour>
      <point x="528" y="-3" type="curve"/>
      <point x="528" y="28" type="line"/>
      <point x="521" y="25"/>
      <point x="511" y="24"/>
      <point x="499" y="24" type="curve" smooth="yes"/>
      <point x="473" y="24"/>
      <point x="438" y="30"/>
      <point x="413" y="41" type="curve"/>
      <point x="473" y="86"/>
      <point x="513" y="157"/>
      <point x="513" y="244" type="curve" smooth="yes"/>
      <point x="513" y="341"/>
      <point x="463" y="393"/>
      <point x="387" y="393" type="curve" smooth="yes"/>
      <point x="310" y="393"/>
      <point x="261" y="337"/>
      <point x="261" y="248" type="curve" smooth="yes"/>
      <point x="261" y="163"/>
      <point x="300" y="89"/>
      <point x="357" y="42" type="curve"/>
      <point x="329" y="31"/>
      <point x="300" y="24"/>
      <point x="271" y="24" type="curve" smooth="yes"/>
      <point x="180" y="24"/>
      <point x="96" y="87"/>
      <point x="96" y="251" type="curve" smooth="yes"/>
      <point x="96" y="398"/>
      <point x="160" y="491"/>
      <point x="290" y="491" type="curve" smooth="yes"/>
      <point x="306" y="491"/>
      <point x="332" y="489"/>
      <point x="340" y="486" type="curve"/>
      <point x="346" y="518" type="line"/>
      <point x="334" y="521"/>
      <point x="314" y="523"/>
      <point x="287" y="523" type="curve" smooth="yes"/>
      <point x="139" y="523"/>
      <point x="60" y="417"/>
      <point x="60" y="252" type="curve" smooth="yes"/>
      <point x="60" y="74"/>
      <point x="156" y="-8"/>
      <point x="266" y="-8" type="curve" smooth="yes"/>
      <point x="305" y="-8"/>
      <point x="345" y="3"/>
      <point x="384" y="23" type="curve"/>
      <point x="417" y="3"/>
      <point x="459" y="-8"/>
      <point x="494" y="-8" type="curve" smooth="yes"/>
      <point x="506" y="-8"/>
      <point x="518" y="-6"/>
    </contour>
    <contour>
      <point x="386" y="57" type="curve"/>
      <point x="333" y="96"/>
      <point x="297" y="163"/>
      <point x="297" y="248" type="curve" smooth="yes"/>
      <point x="297" y="323"/>
      <point x="327" y="361"/>
      <point x="387" y="361" type="curve" smooth="yes"/>
      <point x="444" y="361"/>
      <point x="477" y="325"/>
      <point x="477" y="244" type="curve" smooth="yes"/>
      <point x="477" y="159"/>
      <point x="442" y="94"/>
    </contour>
  </outline>
</glyph>
<glyph name="tedescender-cy" format="2">
  <advance width="401"/>
  <unicode hex="04AD"/>
  <outline>
    <contour>
      <point x="226" y="-143" type="line"/>
      <point x="262" y="-143" type="line"/>
      <point x="262" y="30" type="line"/>
      <point x="216" y="30" type="line"/>
      <point x="216" y="483" type="line"/>
      <point x="388" y="483" type="line"/>
      <point x="388" y="513" type="line"/>
      <point x="13" y="513" type="line"/>
      <point x="13" y="483" type="line"/>
      <point x="182" y="483" type="line"/>
      <point x="182" y="0" type="line"/>
      <point x="226" y="0" type="line"/>
    </contour>
  </outline>
</glyph>
<glyph name="ustraight-cy" format="2">
  <advance width="464"/>
  <unicode hex="04AF"/>
  <outline>
    <contour>
      <point x="217" y="-185" type="line"/>
      <point x="251" y="-185" type="line"/>
      <point x="251" y="-7" type="line"/>
      <point x="316" y="104"/>
      <point x="402" y="347"/>
      <point x="438" y="513" type="curve"/>
      <point x="404" y="513" type="line"/>
      <point x="371" y="371"/>
      <point x="300" y="147"/>
      <point x="235" y="28" type="curve"/>
      <point x="167" y="164"/>
      <point x="98" y="350"/>
      <point x="60" y="513" type="curve"/>
      <point x="26" y="513" type="line"/>
      <point x="66" y="332"/>
      <point x="141" y="131"/>
      <point x="217" y="-7" type="curve"/>
    </contour>
  </outline>
</glyph>
<glyph name="Ustraightstroke-cy" format="2">
  <advance width="536"/>
  <unicode hex="04B0"/>
  <outline>
    <contour>
      <point x="250" y="0" type="line"/>
      <point x="287" y="0" type="line"/>
      <point x="287" y="236" type="line"/>
      <point x="439" y="236" type="line"/>
      <point x="439" y="266" type="line"/>
      <point x="287" y="266" type="line"/>
      <point x="287" y="291" type="line"/>
      <point x="383" y="433"/>
      <point x="453" y="544"/>
      <point x="522" y="693" type="curve"/>
      <point x="484" y="693" type="line"/>
      <point x="436" y="583"/>
      <point x="377" y="486"/>
      <point x="269" y="319" type="curve"/>
      <point x="189" y="436"/>
      <point x="114" y="566"/>
      <point x="54" y="693" type="curve"/>
      <point x="14" y="693" type="line"/>
      <point x="90" y="540"/>
      <point x="165" y="410"/>
      <point x="250" y="289" type="curve"/>
      <point x="250" y="266" type="line"/>
      <point x="99" y="266" type="line"/>
      <point x="99" y="236" type="line"/>
      <point x="250" y="236" type="line"/>
    </contour>
  </outline>
</glyph>
<glyph name="hadescender-cy" format="2">
  <advance width="486"/>
  <unicode hex="04B3"/>
  <outline>
    <contour>
      <point x="446" y="-143" type="line"/>
      <point x="480" y="-143" type="line"/>
      <point x="480" y="30" type="line"/>
      <point x="425" y="30" type="line"/>
      <point x="382" y="102"/>
      <point x="323" y="193"/>
      <point x="256" y="281" type="curve"/>
      <point x="421" y="513" type="line"/>
      <point x="384" y="513" type="line"/>
      <point x="236" y="304" type="line"/>
      <point x="87" y="513" type="line"/>
      <point x="49" y="513" type="line"/>
      <point x="216" y="279" type="line"/>
      <point x="148" y="190"/>
      <point x="90" y="100"/>
      <point x="35" y="0" type="curve"/>
      <point x="70" y="0" type="line"/>
      <point x="111" y="74"/>
      <point x="182" y="190"/>
      <point x="235" y="256" type="curve"/>
      <point x="295" y="179"/>
      <point x="358" y="84"/>
      <point x="405" y="0" type="curve"/>
      <point x="446" y="0" type="line"/>
    </contour>
  </outline>
</glyph>
<glyph name="chedescender-cy" format="2">
  <advance width="500"/>
  <unicode hex="04B7"/>
  <outline>
    <contour>
      <point x="416" y="-143" type="line"/>
      <point x="452" y="-143" type="line"/>
      <point x="452" y="30" type="line"/>
      <point x="408" y="30" type="line"/>
      <point x="408" y="513" type="line"/>
      <point x="374" y="513" type="line"/>
      <point x="374" y="256" type="line"/>
      <point x="327" y="241"/>
      <point x="275" y="234"/>
      <point x="231" y="234" type="curve" smooth="yes"/>
      <point x="133" y="234"/>
      <point x="84" y="282"/>
      <point x="84" y="378" type="curve" smooth="yes"/>
      <point x="84" y="513" type="line"/>
      <point x="50" y="513" type="line"/>
      <point x="50" y="373" type="line" smooth="yes"/>
      <point x="50" y="260"/>
      <point x="112" y="202"/>
      <point x="231" y="202" type="curve" smooth="yes"/>
      <point x="275" y="202"/>
      <point x="323" y="209"/>
      <point x="374" y="224" type="curve"/>
      <point x="374" y="0" type="line"/>
      <point x="416" y="0" type="line"/>
    </contour>
  </outline>
</glyph>
<glyph name="Shha-cy" format="2">
  <advance width="598"/>
  <unicode hex="04BA"/>
  <anchor x="578" y="0" name="bottomright"/>
  <outline>
    <contour>
      <point x="94" y="0" type="line"/>
      <point x="131" y="0" type="line"/>
      <point x="131" y="389" type="line"/>
      <point x="170" y="404"/>
      <point x="250" y="414"/>
      <point x="294" y="414" type="curve" smooth="yes"/>
      <point x="438" y="414"/>
      <point x="482" y="368"/>
      <point x="482" y="204" type="curve" smooth="yes"/>
      <point x="482" y="0" type="line"/>
      <point x="519" y="0" type="line"/>
      <point x="519" y="204" type="line" smooth="yes"/>
      <point x="519" y="385"/>
      <point x="462" y="448"/>
      <point x="293" y="448" type="curve" smooth="yes"/>
      <point x="238" y="448"/>
      <point x="172" y="437"/>
      <point x="131" y="422" type="curve"/>
      <point x="131" y="693" type="line"/>
      <point x="94" y="693" type="line"/>
    </contour>
  </outline>
</glyph>
<glyph name="eltail-cy" format="2">
  <advance width="561"/>
  <unicode hex="04C6"/>
  <outline>
    <contour>
      <point x="428" y="-166" type="line"/>
      <point x="481" y="-117"/>
      <point x="512" y="-36"/>
      <point x="505" y="30" type="curve"/>
      <point x="469" y="30" type="line"/>
      <point x="469" y="513" type="line"/>
      <point x="181" y="513" type="line"/>
      <point x="181" y="434" type="line" smooth="yes"/>
      <point x="181" y="286"/>
      <point x="167" y="183"/>
      <point x="133" y="116" type="curve" smooth="yes"/>
      <point x="106" y="63"/>
      <point x="67" y="33"/>
      <point x="14" y="20" type="curve"/>
      <point x="20" y="-9" type="line"/>
      <point x="83" y="1"/>
      <point x="130" y="37"/>
      <point x="162" y="100" type="curve" smooth="yes"/>
      <point x="198" y="170"/>
      <point x="215" y="274"/>
      <point x="215" y="415" type="curve" smooth="yes"/>
      <point x="215" y="483" type="line"/>
      <point x="435" y="483" type="line"/>
      <point x="435" y="0" type="line"/>
      <point x="473" y="0" type="line"/>
      <point x="469" y="-56"/>
      <point x="444" y="-103"/>
      <point x="405" y="-142" type="curve"/>
    </contour>
  </outline>
</glyph>
<glyph name="enhook-cy" format="2">
  <advance width="579"/>
  <unicode hex="04C8"/>
  <outline>
    <contour>
      <point x="370" y="-185" type="curve" smooth="yes"/>
      <point x="466" y="-185"/>
      <point x="486" y="-115"/>
      <point x="486" y="-22" type="curve" smooth="yes"/>
      <point x="486" y="513" type="line"/>
      <point x="452" y="513" type="line"/>
      <point x="452" y="283" type="line"/>
      <point x="126" y="283" type="line"/>
      <point x="126" y="513" type="line"/>
      <point x="92" y="513" type="line"/>
      <point x="92" y="0" type="line"/>
      <point x="126" y="0" type="line"/>
      <point x="126" y="253" type="line"/>
      <point x="452" y="253" type="line"/>
      <point x="452" y="-22" type="line" smooth="yes"/>
      <point x="452" y="-94"/>
      <point x="443" y="-153"/>
      <point x="370" y="-153" type="curve" smooth="yes"/>
      <point x="359" y="-153"/>
      <point x="338" y="-150"/>
      <point x="329" y="-147" type="curve"/>
      <point x="324" y="-177" type="line"/>
      <point x="335" y="-181"/>
      <point x="357" y="-185"/>
    </contour>
  </outline>
</glyph>
<glyph name="prosgegrammeni" format="2">
  <advance width="489"/>
  <unicode hex="1FBE"/>
  <anchor x="211" y="0" name="_bottom"/>
  <outline>
    <contour>
      <point x="286" y="-184" type="curve" smooth="yes"/>
      <point x="297" y="-184"/>
      <point x="307" y="-183"/>
      <point x="314" y="-180" type="curve"/>
      <point x="314" y="-152" type="line"/>
      <point x="254" y="-152"/>
      <point x="230" y="-130"/>
      <point x="230" y="-74" type="curve" smooth="yes"/>
      <point x="230" y="-61" type="line"/>
      <point x="196" y="-61" type="line"/>
      <point x="195" y="-69"/>
      <point x="194" y="-77"/>
      <point x="194" y="-85" type="curve" smooth="yes"/>
      <point x="194" y="-144"/>
      <point x="227" y="-184"/>
    </contour>
  </outline>
</glyph>
<glyph name="perispomeni" format="2">
  <advance width="376"/>
  <unicode hex="1FC0"/>
  <anchor x="188" y="513" name="_top"/>
  <outline>
    <contour>
      <point x="76" y="620" type="curve"/>
      <point x="103" y="620" type="line"/>
      <point x="106" y="676"/>
      <point x="135" y="708"/>
      <point x="188" y="708" type="curve" smooth="yes"/>
      <point x="241" y="708"/>
      <point x="270" y="676"/>
      <point x="273" y="620" type="curve"/>
      <point x="300" y="620" type="line"/>
      <point x="300" y="691"/>
      <point x="260" y="736"/>
      <point x="188" y="736" type="curve" smooth="yes"/>
      <point x="116" y="736"/>
      <point x="76" y="691"/>
    </contour>
  </outline>
</glyph>
<glyph name="psilioxia" format="2">
  <advance width="382"/>
  <unicode hex="1FCE"/>
  <anchor x="155" y="513" name="_top"/>
  <outline>
    <contour>
      <point x="200" y="583" type="line"/>
      <point x="315" y="739" type="line"/>
      <point x="285" y="760" type="line"/>
      <point x="181" y="598" type="line"/>
    </contour>
    <contour>
      <point x="52" y="583" type="line"/>
      <point x="108" y="624"/>
      <point x="145" y="678"/>
      <point x="145" y="721" type="curve" smooth="yes"/>
      <point x="145" y="744"/>
      <point x="132" y="759"/>
      <point x="112" y="759" type="curve" smooth="yes"/>
      <point x="92" y="759"/>
      <point x="79" y="746"/>
      <point x="79" y="726" type="curve" smooth="yes"/>
      <point x="79" y="711"/>
      <point x="88" y="697"/>
      <point x="109" y="693" type="curve"/>
      <point x="106" y="668"/>
      <point x="70" y="626"/>
      <point x="36" y="600" type="curve"/>
    </contour>
  </outline>
</glyph>
<glyph name="oxia" format="2">
  <advance width="375"/>
  <unicode hex="1FFD"/>
  <anchor x="155" y="513" name="_top"/>
  <outline>
    <contour>
      <point x="138" y="600" type="line"/>
      <point x="293" y="734" type="line"/>
      <point x="269" y="761" type="line"/>
      <point x="122" y="619" type="line"/>
    </contour>
  </outline>
</glyph>
<glyph name="quoteright" format="2">
  <advance width="224"/>
  <unicode hex="2019"/>
  <outline>
    <contour>
      <point x="77" y="533" type="line"/>
      <point x="121" y="598"/>
      <point x="135" y="657"/>
      <point x="135" y="725" type="curve" smooth="yes"/>
      <point x="135" y="727"/>
      <point x="135" y="728"/>
      <point x="135" y="730" type="curve"/>
      <point x="95" y="730" type="line"/>
      <point x="95" y="721"/>
      <point x="95" y="712"/>
      <point x="95" y="703" type="curve" smooth="yes"/>
      <point x="95" y="664"/>
      <point x="87" y="617"/>
      <point x="50" y="546" type="curve"/>
    </contour>
  </outline>
</glyph>
<glyph name="tugrik" format="2">
  <advance width="564"/>
  <unicode hex="20AE"/>
  <outline>
    <contour>
      <point x="263" y="0" type="line"/>
      <point x="300" y="0" type="line"/>
      <point x="300" y="203" type="line"/>
      <point x="465" y="279" type="line"/>
      <point x="453" y="306" type="line"/>
      <point x="300" y="236" type="line"/>
      <point x="300" y="385" type="line"/>
      <point x="465" y="461" type="line"/>
      <point x="453" y="488" type="line"/>
      <point x="300" y="418" type="line"/>
      <point x="300" y="659" type="line"/>
      <point x="496" y="659" type="line"/>
      <point x="496" y="693" type="line"/>
      <point x="67" y="693" type="line"/>
      <point x="67" y="659" type="line"/>
      <point x="263" y="659" type="line"/>
      <point x="263" y="404" type="line"/>
      <point x="102" y="330" type="line"/>
      <point x="115" y="303" type="line"/>
      <point x="263" y="371" type="line"/>
      <point x="263" y="222" type="line"/>
      <point x="102" y="148" type="line"/>
      <point x="115" y="121" type="line"/>
      <point x="263" y="189" type="line"/>
    </contour>
  </outline>
</glyph>
<glyph name="hryvnia" format="2">
  <advance width="564"/>
  <unicode hex="20B4"/>
  <outline>
    <contour>
      <point x="310" y="-10" type="curve" smooth="yes"/>
      <point x="375" y="-10"/>
      <point x="442" y="5"/>
      <point x="489" y="29" type="curve"/>
      <point x="476" y="61" type="line"/>
      <point x="423" y="34"/>
      <point x="376" y="24"/>
      <point x="313" y="24" type="curve" smooth="yes"/>
      <point x="194" y="24"/>
      <point x="133" y="59"/>
      <point x="133" y="155" type="curve" smooth="yes"/>
      <point x="133" y="192"/>
      <point x="145" y="221"/>
      <point x="165" y="246" type="curve"/>
      <point x="508" y="246" type="line"/>
      <point x="508" y="278" type="line"/>
      <point x="197" y="278" type="line"/>
      <point x="259" y="327"/>
      <point x="359" y="363"/>
      <point x="420" y="416" type="curve"/>
      <point x="508" y="416" type="line"/>
      <point x="508" y="448" type="line"/>
      <point x="450" y="448" type="line"/>
      <point x="467" y="472"/>
      <point x="478" y="499"/>
      <point x="478" y="534" type="curve" smooth="yes"/>
      <point x="478" y="646"/>
      <point x="406" y="703"/>
      <point x="266" y="703" type="curve" smooth="yes"/>
      <point x="217" y="703"/>
      <point x="156" y="689"/>
      <point x="122" y="673" type="curve"/>
      <point x="134" y="641" type="line"/>
      <point x="175" y="660"/>
      <point x="220" y="669"/>
      <point x="270" y="669" type="curve" smooth="yes"/>
      <point x="382" y="669"/>
      <point x="440" y="622"/>
      <point x="440" y="533" type="curve" smooth="yes"/>
      <point x="440" y="498"/>
      <point x="427" y="471"/>
      <point x="404" y="448" type="curve"/>
      <point x="56" y="448" type="line"/>
      <point x="56" y="416" type="line"/>
      <point x="365" y="416" type="line"/>
      <point x="298" y="371"/>
      <point x="206" y="338"/>
      <point x="146" y="278" type="curve"/>
      <point x="56" y="278" type="line"/>
      <point x="56" y="246" type="line"/>
      <point x="121" y="246" type="line"/>
      <point x="105" y="219"/>
      <point x="95" y="190"/>
      <point x="95" y="153" type="curve" smooth="yes"/>
      <point x="95" y="46"/>
      <point x="169" y="-10"/>
    </contour>
  </outline>
</glyph>
<glyph name="rupeeIndian" format="2">
  <advance width="564"/>
  <unicode hex="20B9"/>
  <outline>
    <contour>
      <point x="358" y="0" type="curve"/>
      <point x="400" y="0" type="line"/>
      <point x="352" y="83"/>
      <point x="220" y="237"/>
      <point x="132" y="322" type="curve"/>
      <point x="166" y="322" type="line" smooth="yes"/>
      <point x="333" y="322"/>
      <point x="420" y="378"/>
      <point x="425" y="491" type="curve"/>
      <point x="502" y="491" type="line"/>
      <point x="508" y="523" type="line"/>
      <point x="424" y="523" type="line"/>
      <point x="417" y="590"/>
      <point x="380" y="636"/>
      <point x="320" y="661" type="curve"/>
      <point x="534" y="661" type="line"/>
      <point x="540" y="693" type="line"/>
      <point x="77" y="693" type="line"/>
      <point x="77" y="661" type="line"/>
      <point x="170" y="661" type="line" smooth="yes"/>
      <point x="303" y="661"/>
      <point x="378" y="615"/>
      <point x="387" y="523" type="curve"/>
      <point x="77" y="523" type="line"/>
      <point x="77" y="491" type="line"/>
      <point x="387" y="491" type="line"/>
      <point x="382" y="391"/>
      <point x="307" y="356"/>
      <point x="170" y="356" type="curve" smooth="yes"/>
      <point x="77" y="356" type="line"/>
      <point x="77" y="328" type="line"/>
      <point x="173" y="241"/>
      <point x="266" y="134"/>
    </contour>
  </outline>
</glyph>
<glyph name="ruble" format="2">
  <advance width="564"/>
  <unicode hex="20BD"/>
  <outline>
    <contour>
      <point x="109" y="0" type="line"/>
      <point x="146" y="0" type="line"/>
      <point x="146" y="124" type="line"/>
      <point x="449" y="124" type="line"/>
      <point x="449" y="156" type="line"/>
      <point x="146" y="156" type="line"/>
      <point x="146" y="295" type="line"/>
      <point x="248" y="295" type="line" smooth="yes"/>
      <point x="445" y="295"/>
      <point x="531" y="354"/>
      <point x="531" y="495" type="curve" smooth="yes"/>
      <point x="531" y="630"/>
      <point x="441" y="697"/>
      <point x="261" y="697" type="curve" smooth="yes"/>
      <point x="201" y="697"/>
      <point x="144" y="691"/>
      <point x="109" y="682" type="curve"/>
      <point x="109" y="327" type="line"/>
      <point x="25" y="327" type="line"/>
      <point x="25" y="295" type="line"/>
      <point x="109" y="295" type="line"/>
      <point x="109" y="156" type="line"/>
      <point x="25" y="156" type="line"/>
      <point x="25" y="124" type="line"/>
      <point x="109" y="124" type="line"/>
    </contour>
    <contour>
      <point x="146" y="327" type="line"/>
      <point x="146" y="654" type="line"/>
      <point x="173" y="659"/>
      <point x="225" y="663"/>
      <point x="261" y="663" type="curve" smooth="yes"/>
      <point x="416" y="663"/>
      <point x="493" y="607"/>
      <point x="493" y="496" type="curve" smooth="yes"/>
      <point x="493" y="353"/>
      <point x="388" y="327"/>
      <point x="245" y="327" type="curve" smooth="yes"/>
    </contour>
  </outline>
</glyph>
<glyph name="trademark" format="2">
  <advance width="703"/>
  <unicode hex="2122"/>
  <outline>
    <contour>
      <point x="293" y="369" type="curve"/>
      <point x="321" y="369" type="line"/>
      <point x="324" y="483"/>
      <point x="328" y="554"/>
      <point x="341" y="652" type="curve"/>
      <point x="379" y="584"/>
      <point x="425" y="494"/>
      <point x="460" y="418" type="curve"/>
      <point x="482" y="418" type="line"/>
      <point x="516" y="489"/>
      <point x="564" y="585"/>
      <point x="602" y="649" type="curve"/>
      <point x="613" y="546"/>
      <point x="619" y="481"/>
      <point x="622" y="369" type="curve"/>
      <point x="650" y="369" type="line"/>
      <point x="647" y="477"/>
      <point x="640" y="573"/>
      <point x="624" y="693" type="curve"/>
      <point x="602" y="693" type="line"/>
      <point x="572" y="646"/>
      <point x="509" y="529"/>
      <point x="473" y="455" type="curve"/>
      <point x="438" y="528"/>
      <point x="373" y="645"/>
      <point x="342" y="693" type="curve"/>
      <point x="320" y="693" type="line"/>
      <point x="304" y="573"/>
      <point x="296" y="477"/>
    </contour>
    <contour>
      <point x="129" y="369" type="line"/>
      <point x="157" y="369" type="line"/>
      <point x="157" y="667" type="line"/>
      <point x="262" y="667" type="line"/>
      <point x="262" y="693" type="line"/>
      <point x="26" y="693" type="line"/>
      <point x="26" y="667" type="line"/>
      <point x="129" y="667" type="line"/>
    </contour>
  </outline>
</glyph>
<glyph name="summation" format="2">
  <advance width="532"/>
  <unicode hex="2211"/>
  <outline>
    <contour>
      <point x="33" y="-109" type="line"/>
      <point x="481" y="-109" type="line"/>
      <point x="481" y="-75" type="line"/>
      <point x="71" y="-75" type="line"/>
      <point x="143" y="53"/>
      <point x="239" y="194"/>
      <point x="325" y="308" type="curve"/>
      <point x="213" y="455"/>
      <point x="177" y="502"/>
      <point x="79" y="659" type="curve"/>
      <point x="481" y="659" type="line"/>
      <point x="481" y="693" type="line"/>
      <point x="37" y="693" type="line"/>
      <point x="37" y="661" type="line"/>
      <point x="148" y="487"/>
      <point x="174" y="452"/>
      <point x="285" y="307" type="curve"/>
      <point x="191" y="184"/>
      <point x="95" y="36"/>
      <point x="33" y="-77" type="curve"/>
    </contour>
  </outline>
</glyph>
<glyph name="integral" format="2">
  <advance width="340"/>
  <unicode hex="222B"/>
  <outline>
    <contour>
      <point x="35" y="-185" type="curve" smooth="yes"/>
      <point x="131" y="-185"/>
      <point x="187" y="-123"/>
      <point x="187" y="-19" type="curve" smooth="yes"/>
      <point x="187" y="600" type="line" smooth="yes"/>
      <point x="187" y="697"/>
      <point x="226" y="746"/>
      <point x="305" y="746" type="curve" smooth="yes"/>
      <point x="328" y="746" type="line"/>
      <point x="328" y="774" type="line"/>
      <point x="317" y="776"/>
      <point x="317" y="776"/>
      <point x="305" y="776" type="curve" smooth="yes"/>
      <point x="209" y="776"/>
      <point x="153" y="714"/>
      <point x="153" y="610" type="curve" smooth="yes"/>
      <point x="153" y="-9" type="line" smooth="yes"/>
      <point x="153" y="-106"/>
      <point x="114" y="-155"/>
      <point x="35" y="-155" type="curve" smooth="yes"/>
      <point x="12" y="-155" type="line"/>
      <point x="12" y="-183" type="line"/>
      <point x="23" y="-185"/>
      <point x="23" y="-185"/>
    </contour>
  </outline>
</glyph>
<glyph name="greaterequal" format="2">
  <advance width="564"/>
  <unicode hex="2265"/>
  <outline>
    <contour>
      <point x="73" y="158" type="line"/>
      <point x="506" y="344" type="line"/>
      <point x="506" y="377" type="line"/>
      <point x="73" y="562" type="line"/>
      <point x="59" y="531" type="line"/>
      <point x="460" y="360" type="line"/>
      <point x="59" y="189" type="line"/>
    </contour>
    <contour>
      <point x="60" y="-2" type="line"/>
      <point x="506" y="-2" type="line"/>
      <point x="506" y="31" type="line"/>
      <point x="60" y="31" type="line"/>
    </contour>
  </outline>
</glyph>
<glyph name="acute_greek.sc" format="2">
  <advance width="238"/>
  <anchor x="238" y="575" name="_topleft"/>
  <outline>
    <contour>
      <point x="30" y="409" type="line"/>
      <point x="191" y="570" type="line"/>
      <point x="164" y="596" type="line"/>
      <point x="12" y="425" type="line"/>
    </contour>
  </outline>
</glyph>
<glyph name="at.c2sc" format="2">
  <advance width="787"/>
  <outline>
    <contour>
      <point x="416" y="-50" type="curve" smooth="yes"/>
      <point x="464" y="-50"/>
      <point x="508" y="-46"/>
      <point x="534" y="-37" type="curve"/>
      <point x="531" y="-6" type="line"/>
      <point x="508" y="-13"/>
      <point x="469" y="-18"/>
      <point x="416" y="-18" type="curve" smooth="yes"/>
      <point x="225" y="-18"/>
      <point x="103" y="105"/>
      <point x="103" y="306" type="curve" smooth="yes"/>
      <point x="103" y="511"/>
      <point x="222" y="623"/>
      <point x="399" y="623" type="curve" smooth="yes"/>
      <point x="582" y="623"/>
      <point x="684" y="512"/>
      <point x="684" y="335" type="curve" smooth="yes"/>
      <point x="684" y="230"/>
      <point x="646" y="161"/>
      <point x="580" y="161" type="curve" smooth="yes"/>
      <point x="545" y="161"/>
      <point x="529" y="182"/>
      <point x="529" y="222" type="curve" smooth="yes"/>
      <point x="529" y="466" type="line"/>
      <point x="505" y="477"/>
      <point x="465" y="485"/>
      <point x="418" y="485" type="curve" smooth="yes"/>
      <point x="312" y="485"/>
      <point x="242" y="413"/>
      <point x="242" y="304" type="curve" smooth="yes"/>
      <point x="242" y="193"/>
      <point x="303" y="127"/>
      <point x="401" y="127" type="curve" smooth="yes"/>
      <point x="443" y="127"/>
      <point x="482" y="139"/>
      <point x="514" y="161" type="curve"/>
      <point x="527" y="142"/>
      <point x="549" y="132"/>
      <point x="578" y="132" type="curve" smooth="yes"/>
      <point x="666" y="132"/>
      <point x="720" y="214"/>
      <point x="720" y="337" type="curve" smooth="yes"/>
      <point x="720" y="527"/>
      <point x="599" y="655"/>
      <point x="398" y="655" type="curve" smooth="yes"/>
      <point x="203" y="655"/>
      <point x="67" y="524"/>
      <point x="67" y="306" type="curve" smooth="yes"/>
      <point x="67" y="88"/>
      <point x="204" y="-50"/>
    </contour>
    <contour>
      <point x="411" y="156" type="curve" smooth="yes"/>
      <point x="325" y="156"/>
      <point x="276" y="210"/>
      <point x="276" y="307" type="curve" smooth="yes"/>
      <point x="276" y="394"/>
      <point x="330" y="457"/>
      <point x="419" y="457" type="curve" smooth="yes"/>
      <point x="451" y="457"/>
      <point x="475" y="453"/>
      <point x="497" y="447" type="curve"/>
      <point x="497" y="227" type="line" smooth="yes"/>
      <point x="497" y="215"/>
      <point x="498" y="199"/>
      <point x="502" y="185" type="curve"/>
      <point x="474" y="167"/>
      <point x="445" y="156"/>
    </contour>
  </outline>
</glyph>
<glyph name="breveinvertedcomb.sc" format="2">
  <anchor x="0" y="575" name="_top"/>
  <anchor x="0" y="760" name="top"/>
  <outline>
    <contour>
      <point x="-110" y="644" type="curve"/>
      <point x="-84" y="644" type="line"/>
      <point x="-81" y="700"/>
      <point x="-55" y="731"/>
      <point x="0" y="731" type="curve" smooth="yes"/>
      <point x="55" y="731"/>
      <point x="81" y="700"/>
      <point x="84" y="644" type="curve"/>
      <point x="110" y="644" type="line"/>
      <point x="110" y="715"/>
      <point x="75" y="760"/>
      <point x="0" y="760" type="curve" smooth="yes"/>
      <point x="-75" y="760"/>
      <point x="-110" y="715"/>
    </contour>
  </outline>
</glyph>
<glyph name="che-cy.sc" format="2">
  <advance width="522"/>
  <anchor x="502" y="0" name="bottomright"/>
  <anchor x="259" y="575" name="top"/>
  <outline>
    <contour>
      <point x="396" y="0" type="line"/>
      <point x="430" y="0" type="line"/>
      <point x="430" y="575" type="line"/>
      <point x="396" y="575" type="line"/>
      <point x="396" y="265" type="line"/>
      <point x="368" y="255"/>
      <point x="308" y="247"/>
      <point x="265" y="247" type="curve" smooth="yes"/>
      <point x="143" y="247"/>
      <point x="113" y="286"/>
      <point x="113" y="419" type="curve" smooth="yes"/>
      <point x="113" y="575" type="line"/>
      <point x="79" y="575" type="line"/>
      <point x="79" y="418" type="line" smooth="yes"/>
      <point x="79" y="268"/>
      <point x="120" y="216"/>
      <point x="266" y="216" type="curve" smooth="yes"/>
      <point x="309" y="216"/>
      <point x="369" y="225"/>
      <point x="396" y="235" type="curve"/>
    </contour>
  </outline>
</glyph>
<glyph name="copyright.c2sc" format="2">
  <advance width="710"/>
  <outline>
    <contour>
      <point x="355" y="-15" type="curve" smooth="yes"/>
      <point x="518" y="-15"/>
      <point x="640" y="107"/>
      <point x="640" y="283" type="curve" smooth="yes"/>
      <point x="640" y="461"/>
      <point x="517" y="584"/>
      <point x="355" y="584" type="curve" smooth="yes"/>
      <point x="193" y="584"/>
      <point x="70" y="462"/>
      <point x="70" y="283" type="curve" smooth="yes"/>
      <point x="70" y="106"/>
      <point x="193" y="-15"/>
    </contour>
    <contour>
      <point x="358" y="117" type="curve" smooth="yes"/>
      <point x="397" y="117"/>
      <point x="438" y="128"/>
      <point x="461" y="141" type="curve"/>
      <point x="450" y="169" type="line"/>
      <point x="427" y="157"/>
      <point x="397" y="148"/>
      <point x="364" y="148" type="curve" smooth="yes"/>
      <point x="288" y="148"/>
      <point x="243" y="201"/>
      <point x="243" y="286" type="curve" smooth="yes"/>
      <point x="243" y="364"/>
      <point x="290" y="421"/>
      <point x="364" y="421" type="curve" smooth="yes"/>
      <point x="394" y="421"/>
      <point x="424" y="413"/>
      <point x="447" y="399" type="curve"/>
      <point x="458" y="426" type="line"/>
      <point x="434" y="442"/>
      <point x="399" y="452"/>
      <point x="361" y="452" type="curve" smooth="yes"/>
      <point x="274" y="452"/>
      <point x="207" y="382"/>
      <point x="207" y="286" type="curve" smooth="yes"/>
      <point x="207" y="186"/>
      <point x="266" y="117"/>
    </contour>
    <contour>
      <point x="355" y="14" type="curve" smooth="yes"/>
      <point x="206" y="14"/>
      <point x="103" y="125"/>
      <point x="103" y="283" type="curve" smooth="yes"/>
      <point x="103" y="443"/>
      <point x="206" y="554"/>
      <point x="355" y="554" type="curve" smooth="yes"/>
      <point x="502" y="554"/>
      <point x="607" y="444"/>
      <point x="607" y="283" type="curve" smooth="yes"/>
      <point x="607" y="126"/>
      <point x="504" y="14"/>
    </contour>
  </outline>
</glyph>
<glyph name="d.sc" format="2">
  <advance width="612"/>
  <anchor x="306" y="0" name="bottom"/>
  <anchor x="306" y="288" name="center"/>
  <anchor x="274" y="575" name="top"/>
  <outline>
    <contour>
      <point x="228" y="-4" type="curve" smooth="yes"/>
      <point x="423" y="-4"/>
      <point x="543" y="103"/>
      <point x="543" y="288" type="curve" smooth="yes"/>
      <point x="543" y="472"/>
      <point x="425" y="579"/>
      <point x="221" y="579" type="curve" smooth="yes"/>
      <point x="177" y="579"/>
      <point x="121" y="574"/>
      <point x="92" y="565" type="curve"/>
      <point x="92" y="10" type="line"/>
      <point x="126" y="2"/>
      <point x="183" y="-4"/>
    </contour>
    <contour>
      <point x="229" y="27" type="curve" smooth="yes"/>
      <point x="189" y="27"/>
      <point x="150" y="30"/>
      <point x="126" y="34" type="curve"/>
      <point x="126" y="541" type="line"/>
      <point x="150" y="544"/>
      <point x="188" y="548"/>
      <point x="222" y="548" type="curve" smooth="yes"/>
      <point x="406" y="548"/>
      <point x="508" y="454"/>
      <point x="508" y="288" type="curve" smooth="yes"/>
      <point x="508" y="125"/>
      <point x="407" y="27"/>
    </contour>
  </outline>
</glyph>
<glyph name="dasiaperispomeni.sc" format="2">
  <advance width="299"/>
  <anchor x="299" y="575" name="_topleft"/>
  <outline>
    <contour>
      <point x="3" y="514" type="curve"/>
      <point x="30" y="514" type="line"/>
      <point x="33" y="570"/>
      <point x="61" y="602"/>
      <point x="114" y="602" type="curve" smooth="yes"/>
      <point x="167" y="602"/>
      <point x="195" y="570"/>
      <point x="198" y="514" type="curve"/>
      <point x="225" y="514" type="line"/>
      <point x="225" y="585"/>
      <point x="186" y="630"/>
      <point x="114" y="630" type="curve" smooth="yes"/>
      <point x="42" y="630"/>
      <point x="3" y="585"/>
    </contour>
    <contour>
      <point x="169" y="337" type="curve"/>
      <point x="182" y="355" type="line"/>
      <point x="150" y="375"/>
      <point x="122" y="407"/>
      <point x="119" y="426" type="curve"/>
      <point x="139" y="430"/>
      <point x="149" y="444"/>
      <point x="149" y="459" type="curve" smooth="yes"/>
      <point x="149" y="479"/>
      <point x="136" y="492"/>
      <point x="116" y="492" type="curve" smooth="yes"/>
      <point x="96" y="492"/>
      <point x="83" y="477"/>
      <point x="83" y="454" type="curve" smooth="yes"/>
      <point x="83" y="414"/>
      <point x="118" y="369"/>
    </contour>
  </outline>
</glyph>
<glyph name="dasiavaria.sc" format="2">
  <advance width="322"/>
  <anchor x="323" y="575" name="_topleft"/>
  <outline>
    <contour>
      <point x="238" y="414" type="line"/>
      <point x="257" y="429" type="line"/>
      <point x="153" y="591" type="line"/>
      <point x="123" y="570" type="line"/>
    </contour>
    <contour>
      <point x="93" y="414" type="curve"/>
      <point x="109" y="431" type="line"/>
      <point x="72" y="457"/>
      <point x="39" y="499"/>
      <point x="36" y="524" type="curve"/>
      <point x="56" y="528"/>
      <point x="66" y="542"/>
      <point x="66" y="557" type="curve" smooth="yes"/>
      <point x="66" y="577"/>
      <point x="53" y="590"/>
      <point x="33" y="590" type="curve" smooth="yes"/>
      <point x="13" y="590"/>
      <point x="0" y="575"/>
      <point x="0" y="552" type="curve" smooth="yes"/>
      <point x="0" y="509"/>
      <point x="37" y="455"/>
    </contour>
  </outline>
</glyph>
<glyph name="delta.sc" format="2">
  <advance width="549"/>
  <outline>
    <contour>
      <point x="24" y="0" type="curve"/>
      <point x="525" y="0" type="line"/>
      <point x="456" y="185"/>
      <point x="368" y="406"/>
      <point x="287" y="575" type="curve"/>
      <point x="260" y="575" type="line"/>
      <point x="189" y="425"/>
      <point x="102" y="212"/>
    </contour>
    <contour>
      <point x="70" y="30" type="line"/>
      <point x="142" y="225"/>
      <point x="193" y="357"/>
      <point x="272" y="536" type="curve"/>
      <point x="354" y="347"/>
      <point x="402" y="236"/>
      <point x="478" y="30" type="curve"/>
    </contour>
  </outline>
</glyph>
<glyph name="dieresiscomb_macroncomb" format="2">
  <anchor x="0" y="513" name="_top"/>
  <anchor x="0" y="786" name="top"/>
  <outline>
    <contour>
      <point x="-121" y="752" type="line"/>
      <point x="121" y="752" type="line"/>
      <point x="121" y="786" type="line"/>
      <point x="-121" y="786" type="line"/>
    </contour>
    <contour>
      <point x="-98" y="608" type="curve" smooth="yes"/>
      <point x="-81" y="608"/>
      <point x="-67" y="622"/>
      <point x="-67" y="641" type="curve" smooth="yes"/>
      <point x="-67" y="660"/>
      <point x="-81" y="674"/>
      <point x="-98" y="674" type="curve" smooth="yes"/>
      <point x="-115" y="674"/>
      <point x="-129" y="660"/>
      <point x="-129" y="641" type="curve" smooth="yes"/>
      <point x="-129" y="622"/>
      <point x="-115" y="608"/>
    </contour>
    <contour>
      <point x="98" y="608" type="curve" smooth="yes"/>
      <point x="115" y="608"/>
      <point x="129" y="622"/>
      <point x="129" y="641" type="curve" smooth="yes"/>
      <point x="129" y="660"/>
      <point x="115" y="674"/>
      <point x="98" y="674" type="curve" smooth="yes"/>
      <point x="81" y="674"/>
      <point x="67" y="660"/>
      <point x="67" y="641" type="curve" smooth="yes"/>
      <point x="67" y="622"/>
      <point x="81" y="608"/>
    </contour>
  </outline>
</glyph>
<glyph name="dotaccentcomb_macroncomb.sc" format="2">
  <anchor x="1" y="575" name="_top"/>
  <anchor x="1" y="792" name="top"/>
  <outline>
    <contour>
      <point x="-121" y="758" type="line"/>
      <point x="121" y="758" type="line"/>
      <point x="121" y="792" type="line"/>
      <point x="-121" y="792" type="line"/>
    </contour>
    <contour>
      <point x="1" y="614" type="curve" smooth="yes"/>
      <point x="18" y="614"/>
      <point x="32" y="628"/>
      <point x="32" y="647" type="curve" smooth="yes"/>
      <point x="32" y="666"/>
      <point x="18" y="680"/>
      <point x="1" y="680" type="curve" smooth="yes"/>
      <point x="-16" y="680"/>
      <point x="-30" y="666"/>
      <point x="-30" y="647" type="curve" smooth="yes"/>
      <point x="-30" y="628"/>
      <point x="-16" y="614"/>
    </contour>
  </outline>
</glyph>
<glyph name="double_gravecomb" format="2">
  <anchor x="0" y="513" name="_top"/>
  <anchor x="0" y="766" name="top"/>
  <outline>
    <contour>
      <point x="74" y="587" type="line"/>
      <point x="94" y="605" type="line"/>
      <point x="-38" y="766" type="line"/>
      <point x="-65" y="742" type="line"/>
    </contour>
    <contour>
      <point x="-64" y="587" type="line"/>
      <point x="-44" y="605" type="line"/>
      <point x="-176" y="766" type="line"/>
      <point x="-203" y="742" type="line"/>
    </contour>
  </outline>
</glyph>
<glyph name="dtopbar.sc" format="2">
  <advance width="537"/>
  <anchor x="269" y="0" name="bottom"/>
  <anchor x="269" y="575" name="top"/>
  <outline>
    <contour>
      <point x="307" y="-5" type="curve" smooth="yes"/>
      <point x="354" y="-5"/>
      <point x="412" y="2"/>
      <point x="445" y="13" type="curve"/>
      <point x="445" y="575" type="line"/>
      <point x="109" y="575" type="line"/>
      <point x="109" y="545" type="line"/>
      <point x="411" y="545" type="line"/>
      <point x="411" y="344" type="line"/>
      <point x="306" y="344" type="line" smooth="yes"/>
      <point x="161" y="344"/>
      <point x="60" y="309"/>
      <point x="60" y="170" type="curve" smooth="yes"/>
      <point x="60" y="53"/>
      <point x="144" y="-5"/>
    </contour>
    <contour>
      <point x="308" y="26" type="curve" smooth="yes"/>
      <point x="170" y="26"/>
      <point x="96" y="73"/>
      <point x="96" y="172" type="curve" smooth="yes"/>
      <point x="96" y="270"/>
      <point x="157" y="313"/>
      <point x="298" y="313" type="curve" smooth="yes"/>
      <point x="411" y="313" type="line"/>
      <point x="411" y="36" type="line"/>
      <point x="380" y="29"/>
      <point x="346" y="26"/>
    </contour>
  </outline>
</glyph>
<glyph name="ecedilla.sc" format="2">
  <advance width="483"/>
  <anchor x="242" y="-185" name="bottom"/>
  <anchor x="435" y="10" name="ogonek"/>
  <anchor x="251" y="575" name="top"/>
  <anchor x="20" y="575" name="topleft"/>
  <outline>
    <contour>
      <point x="92" y="0" type="line"/>
      <point x="257" y="0" type="line"/>
      <point x="248" y="-16"/>
      <point x="238" y="-37"/>
      <point x="230" y="-55" type="curve"/>
      <point x="281" y="-71"/>
      <point x="298" y="-85"/>
      <point x="298" y="-114" type="curve" smooth="yes"/>
      <point x="298" y="-141"/>
      <point x="278" y="-155"/>
      <point x="238" y="-155" type="curve" smooth="yes"/>
      <point x="222" y="-155"/>
      <point x="202" y="-152"/>
      <point x="187" y="-147" type="curve"/>
      <point x="182" y="-175" type="line"/>
      <point x="200" y="-182"/>
      <point x="220" y="-185"/>
      <point x="242" y="-185" type="curve" smooth="yes"/>
      <point x="298" y="-185"/>
      <point x="332" y="-157"/>
      <point x="332" y="-113" type="curve" smooth="yes"/>
      <point x="332" y="-79"/>
      <point x="311" y="-53"/>
      <point x="270" y="-36" type="curve"/>
      <point x="277" y="-19"/>
      <point x="282" y="-10"/>
      <point x="287" y="0" type="curve"/>
      <point x="433" y="0" type="line"/>
      <point x="433" y="31" type="line"/>
      <point x="126" y="31" type="line"/>
      <point x="126" y="287" type="line"/>
      <point x="380" y="287" type="line"/>
      <point x="380" y="317" type="line"/>
      <point x="126" y="317" type="line"/>
      <point x="126" y="544" type="line"/>
      <point x="413" y="544" type="line"/>
      <point x="413" y="575" type="line"/>
      <point x="92" y="575" type="line"/>
    </contour>
  </outline>
</glyph>
<glyph name="eng.sc" format="2">
  <advance width="618"/>
  <anchor x="309" y="0" name="bottom"/>
  <anchor x="309" y="575" name="top"/>
  <outline>
    <contour>
      <point x="430" y="-155" type="curve" smooth="yes"/>
      <point x="518" y="-155"/>
      <point x="526" y="-92"/>
      <point x="526" y="-43" type="curve" smooth="yes"/>
      <point x="526" y="575" type="line"/>
      <point x="491" y="575" type="line"/>
      <point x="491" y="69" type="line"/>
      <point x="428" y="191"/>
      <point x="250" y="432"/>
      <point x="120" y="575" type="curve"/>
      <point x="92" y="575" type="line"/>
      <point x="92" y="0" type="line"/>
      <point x="126" y="0" type="line"/>
      <point x="126" y="520" type="line"/>
      <point x="233" y="401"/>
      <point x="418" y="146"/>
      <point x="491" y="8" type="curve"/>
      <point x="491" y="-47" type="line" smooth="yes"/>
      <point x="491" y="-103"/>
      <point x="475" y="-126"/>
      <point x="429" y="-126" type="curve" smooth="yes"/>
      <point x="418" y="-126"/>
      <point x="401" y="-123"/>
      <point x="395" y="-121" type="curve"/>
      <point x="390" y="-148" type="line"/>
      <point x="398" y="-152"/>
      <point x="421" y="-155"/>
    </contour>
  </outline>
</glyph>
<glyph name="enhook-cy.sc" format="2">
  <advance width="602"/>
  <outline>
    <contour>
      <point x="414" y="-155" type="curve" smooth="yes"/>
      <point x="502" y="-155"/>
      <point x="510" y="-91"/>
      <point x="510" y="-43" type="curve" smooth="yes"/>
      <point x="510" y="575" type="line"/>
      <point x="476" y="575" type="line"/>
      <point x="476" y="317" type="line"/>
      <point x="126" y="317" type="line"/>
      <point x="126" y="575" type="line"/>
      <point x="92" y="575" type="line"/>
      <point x="92" y="0" type="line"/>
      <point x="126" y="0" type="line"/>
      <point x="126" y="286" type="line"/>
      <point x="476" y="286" type="line"/>
      <point x="476" y="-47" type="line" smooth="yes"/>
      <point x="476" y="-103"/>
      <point x="459" y="-126"/>
      <point x="413" y="-126" type="curve" smooth="yes"/>
      <point x="402" y="-126"/>
      <point x="385" y="-123"/>
      <point x="379" y="-121" type="curve"/>
      <point x="374" y="-148" type="line"/>
      <point x="382" y="-152"/>
      <point x="405" y="-155"/>
    </contour>
  </outline>
</glyph>
<glyph name="exclam.c2sc" format="2">
  <advance width="230"/>
  <outline>
    <contour>
      <point x="105" y="166" type="curve"/>
      <point x="125" y="166" type="line"/>
      <point x="132" y="266"/>
      <point x="133" y="289"/>
      <point x="133" y="435" type="curve" smooth="yes"/>
      <point x="133" y="575" type="line"/>
      <point x="97" y="575" type="line"/>
      <point x="97" y="435" type="line" smooth="yes"/>
      <point x="97" y="289"/>
      <point x="99" y="266"/>
    </contour>
    <contour>
      <point x="115" y="-7" type="curve" smooth="yes"/>
      <point x="136" y="-7"/>
      <point x="150" y="9"/>
      <point x="150" y="29" type="curve" smooth="yes"/>
      <point x="150" y="50"/>
      <point x="136" y="65"/>
      <point x="115" y="65" type="curve" smooth="yes"/>
      <point x="94" y="65"/>
      <point x="80" y="50"/>
      <point x="80" y="29" type="curve" smooth="yes"/>
      <point x="80" y="9"/>
      <point x="94" y="-7"/>
    </contour>
  </outline>
</glyph>
<glyph name="four.numr" format="2">
  <advance width="359"/>
  <outline>
    <contour>
      <point x="227" y="319" type="line"/>
      <point x="259" y="319" type="line"/>
      <point x="259" y="417" type="line"/>
      <point x="314" y="417" type="line"/>
      <point x="314" y="445" type="line"/>
      <point x="259" y="445" type="line"/>
      <point x="259" y="696" type="line"/>
      <point x="237" y="696" type="line"/>
      <point x="168" y="639"/>
      <point x="76" y="513"/>
      <point x="42" y="437" type="curve"/>
      <point x="42" y="417" type="line"/>
      <point x="227" y="417" type="line"/>
    </contour>
    <contour>
      <point x="78" y="445" type="line"/>
      <point x="110" y="512"/>
      <point x="176" y="598"/>
      <point x="227" y="651" type="curve"/>
      <point x="227" y="445" type="line"/>
    </contour>
  </outline>
</glyph>
<glyph name="four.osf" format="2">
  <advance width="468"/>
  <outline>
    <contour>
      <point x="331" y="-118" type="line"/>
      <point x="367" y="-118" type="line"/>
      <point x="367" y="76" type="line"/>
      <point x="457" y="76" type="line"/>
      <point x="457" y="108" type="line"/>
      <point x="367" y="108" type="line"/>
      <point x="367" y="575" type="line"/>
      <point x="329" y="575" type="line"/>
      <point x="203" y="449"/>
      <point x="59" y="239"/>
      <point x="13" y="96" type="curve"/>
      <point x="13" y="76" type="line"/>
      <point x="331" y="76" type="line"/>
    </contour>
    <contour>
      <point x="53" y="108" type="line"/>
      <point x="101" y="237"/>
      <point x="229" y="423"/>
      <point x="331" y="530" type="curve"/>
      <point x="331" y="108" type="line"/>
    </contour>
  </outline>
</glyph>
<glyph name="idotless_ogonekcomb" format="2">
  <advance width="220"/>
  <anchor x="110" y="0" name="bottom"/>
  <anchor x="127" y="0" name="ogonek"/>
  <anchor x="110" y="513" name="top"/>
  <outline>
    <contour>
      <point x="101" y="-186" type="curve" smooth="yes"/>
      <point x="116" y="-186"/>
      <point x="131" y="-184"/>
      <point x="145" y="-179" type="curve"/>
      <point x="142" y="-149" type="line"/>
      <point x="129" y="-152"/>
      <point x="118" y="-154"/>
      <point x="109" y="-154" type="curve" smooth="yes"/>
      <point x="76" y="-154"/>
      <point x="59" y="-139"/>
      <point x="59" y="-110" type="curve" smooth="yes"/>
      <point x="59" y="-78"/>
      <point x="84" y="-39"/>
      <point x="127" y="0" type="curve"/>
      <point x="127" y="513" type="line"/>
      <point x="93" y="513" type="line"/>
      <point x="93" y="0" type="line"/>
      <point x="93" y="0" type="line"/>
      <point x="47" y="-39"/>
      <point x="24" y="-78"/>
      <point x="24" y="-116" type="curve" smooth="yes"/>
      <point x="24" y="-159"/>
      <point x="54" y="-186"/>
    </contour>
  </outline>
</glyph>
<glyph name="iishorttail-cy.sc" format="2">
  <advance width="618"/>
  <outline>
    <contour>
      <point x="487" y="-156" type="line"/>
      <point x="523" y="-127"/>
      <point x="567" y="-59"/>
      <point x="567" y="31" type="curve"/>
      <point x="526" y="31" type="line"/>
      <point x="526" y="575" type="line"/>
      <point x="498" y="575" type="line"/>
      <point x="367" y="431"/>
      <point x="192" y="195"/>
      <point x="126" y="69" type="curve"/>
      <point x="126" y="575" type="line"/>
      <point x="92" y="575" type="line"/>
      <point x="92" y="0" type="line"/>
      <point x="122" y="0" type="line"/>
      <point x="195" y="142"/>
      <point x="391" y="407"/>
      <point x="491" y="520" type="curve"/>
      <point x="491" y="0" type="line"/>
      <point x="532" y="0" type="line"/>
      <point x="527" y="-53"/>
      <point x="502" y="-98"/>
      <point x="463" y="-134" type="curve"/>
    </contour>
    <component base="brevecomb.cyr.sc" xOffset="312"/>
  </outline>
</glyph>
<glyph name="izhitsa-cy.sc" format="2">
  <advance width="633"/>
  <anchor x="317" y="575" name="top"/>
  <outline>
    <contour>
      <point x="249" y="0" type="curve"/>
      <point x="276" y="0" type="line"/>
      <point x="334" y="121"/>
      <point x="404" y="297"/>
      <point x="458" y="451" type="curve" smooth="yes"/>
      <point x="484" y="525"/>
      <point x="502" y="551"/>
      <point x="541" y="551" type="curve" smooth="yes"/>
      <point x="561" y="551"/>
      <point x="580" y="542"/>
      <point x="602" y="521" type="curve"/>
      <point x="621" y="545" type="line"/>
      <point x="596" y="570"/>
      <point x="572" y="581"/>
      <point x="540" y="581" type="curve" smooth="yes"/>
      <point x="484" y="581"/>
      <point x="460" y="554"/>
      <point x="429" y="467" type="curve" smooth="yes"/>
      <point x="378" y="323"/>
      <point x="338" y="218"/>
      <point x="263" y="42" type="curve"/>
      <point x="179" y="230"/>
      <point x="130" y="366"/>
      <point x="61" y="575" type="curve"/>
      <point x="24" y="575" type="line"/>
      <point x="97" y="353"/>
      <point x="161" y="183"/>
    </contour>
  </outline>
</glyph>
<glyph name="kadescender-cy.sc" format="2">
  <advance width="531"/>
  <outline>
    <contour>
      <point x="479" y="-154" type="line"/>
      <point x="513" y="-154" type="line"/>
      <point x="513" y="31" type="line"/>
      <point x="461" y="31" type="line"/>
      <point x="368" y="157"/>
      <point x="245" y="254"/>
      <point x="167" y="300" type="curve"/>
      <point x="259" y="372"/>
      <point x="396" y="507"/>
      <point x="464" y="575" type="curve"/>
      <point x="423" y="575" type="line"/>
      <point x="356" y="505"/>
      <point x="224" y="382"/>
      <point x="126" y="305" type="curve"/>
      <point x="126" y="575" type="line"/>
      <point x="92" y="575" type="line"/>
      <point x="92" y="0" type="line"/>
      <point x="126" y="0" type="line"/>
      <point x="126" y="286" type="line"/>
      <point x="233" y="230"/>
      <point x="356" y="121"/>
      <point x="445" y="0" type="curve"/>
      <point x="479" y="0" type="line"/>
    </contour>
  </outline>
</glyph>
